<?xml version="1.0" encoding="UTF-8" standalone="no"?>
<svg
   xmlns:dc="http://purl.org/dc/elements/1.1/"
   xmlns:cc="http://creativecommons.org/ns#"
   xmlns:rdf="http://www.w3.org/1999/02/22-rdf-syntax-ns#"
   xmlns:svg="http://www.w3.org/2000/svg"
   xmlns="http://www.w3.org/2000/svg"
   xmlns:xlink="http://www.w3.org/1999/xlink"
   xmlns:sodipodi="http://sodipodi.sourceforge.net/DTD/sodipodi-0.dtd"
   xmlns:inkscape="http://www.inkscape.org/namespaces/inkscape"
   enable-background="new 0 0 128 128"
   viewBox="0 0 128.50394 128.50394"
   version="1.1"
   id="svg133"
   width="34mm"
   height="34mm"
   sodipodi:docname="ottercast_silk.svg"
   inkscape:version="0.92.5 (2060ec1f9f, 2020-04-08)"
   inkscape:export-filename="/home/niklas/ottercast/OtterCastAmp/graphics/ottercast/mask.png"
   inkscape:export-xdpi="747.05884"
   inkscape:export-ydpi="747.05884">
  <sodipodi:namedview
     pagecolor="#ffffff"
     bordercolor="#666666"
     borderopacity="1"
     objecttolerance="10"
     gridtolerance="10"
     guidetolerance="10"
     inkscape:pageopacity="0"
     inkscape:pageshadow="2"
     inkscape:window-width="2815"
     inkscape:window-height="1596"
     id="namedview146"
     showgrid="false"
     inkscape:zoom="10.388924"
     inkscape:cx="88.882805"
     inkscape:cy="78.34496"
     inkscape:window-x="65"
     inkscape:window-y="24"
     inkscape:window-maximized="1"
     inkscape:current-layer="svg133" />
  <metadata
     id="metadata139">
    <rdf:RDF>
      <cc:Work
         rdf:about="">
        <dc:format>image/svg+xml</dc:format>
        <dc:type
           rdf:resource="http://purl.org/dc/dcmitype/StillImage" />
        <dc:title></dc:title>
      </cc:Work>
    </rdf:RDF>
  </metadata>
  <defs
     id="defs137">
    <linearGradient
       xlink:href="#g"
       id="linearGradient964"
       gradientUnits="userSpaceOnUse"
       x1="42.358002"
       y1="69.515999"
       x2="33.627998"
       y2="86.111"
       gradientTransform="translate(67.890536,67.16295)" />
    <radialGradient
       id="a-3"
       cx="91.667"
       cy="64.333"
       r="59.529999"
       gradientUnits="userSpaceOnUse"
       gradientTransform="matrix(0.41905488,0,0,0.43829023,79.389059,-7.83865)">
      <stop
         stop-color="#757575"
         offset="0"
         id="stop65-6" />
      <stop
         stop-color="#6A6A6A"
         offset=".3078"
         id="stop67-7" />
      <stop
         stop-color="#4B4B4B"
         offset=".8542"
         id="stop69-5" />
      <stop
         stop-color="#424242"
         offset="1"
         id="stop71-3" />
    </radialGradient>
    <radialGradient
       id="b-5"
       cx="35.667"
       cy="64.167"
       r="59.845001"
       gradientUnits="userSpaceOnUse"
       gradientTransform="matrix(0.52638118,0,0,0.43829023,58.227161,28.445987)">
      <stop
         stop-color="#757575"
         offset="0"
         id="stop54-6" />
      <stop
         stop-color="#6A6A6A"
         offset=".3078"
         id="stop56" />
      <stop
         stop-color="#4B4B4B"
         offset=".8542"
         id="stop58" />
      <stop
         stop-color="#424242"
         offset="1"
         id="stop60" />
    </radialGradient>
    <radialGradient
       id="c-2"
       cx="99.333"
       cy="67.667"
       r="52.560001"
       gradientUnits="userSpaceOnUse"
       gradientTransform="matrix(0.30912862,0,0,0.43829023,88.952641,-7.83865)">
      <stop
         stop-color="#40C4FF"
         offset="0"
         id="stop41" />
      <stop
         stop-color="#0091EA"
         offset=".6853"
         id="stop43" />
      <stop
         stop-color="#0091EA"
         offset="1"
         id="stop45" />
    </radialGradient>
    <radialGradient
       id="d-9"
       cx="28.667"
       cy="68.167"
       r="52.032001"
       gradientUnits="userSpaceOnUse"
       gradientTransform="matrix(0.52638118,0,0,0.43829023,58.227161,28.445987)">
      <stop
         stop-color="#40C4FF"
         offset="0"
         id="stop28" />
      <stop
         stop-color="#0091EA"
         offset=".6853"
         id="stop30" />
      <stop
         stop-color="#0091EA"
         offset="1"
         id="stop32" />
    </radialGradient>
    <radialGradient
       id="e-1"
       cx="63.833"
       cy="4"
       r="74.892998"
       gradientUnits="userSpaceOnUse"
       gradientTransform="matrix(0.63201051,0,0,0.43829023,52.332548,-0.190573)">
      <stop
         stop-color="#40C4FF"
         stop-opacity=".98"
         offset="0"
         id="stop17" />
      <stop
         stop-color="#0091EA"
         offset="1"
         id="stop19" />
    </radialGradient>
    <radialGradient
       id="f-2"
       cx="64.333"
       cy="12.667"
       r="35.358002"
       gradientUnits="userSpaceOnUse"
       gradientTransform="matrix(0.66750276,0,0,0.43829023,50.148424,-0.190573)">
      <stop
         stop-color="#757575"
         offset="0"
         id="stop2" />
      <stop
         stop-color="#6A6A6A"
         offset=".3078"
         id="stop4" />
      <stop
         stop-color="#4B4B4B"
         offset=".8542"
         id="stop6" />
      <stop
         stop-color="#424242"
         offset="1"
         id="stop8" />
    </radialGradient>
    <radialGradient
       id="c-2-9"
       cx="99.333"
       cy="67.667"
       r="52.560001"
       gradientUnits="userSpaceOnUse"
       gradientTransform="matrix(-0.32817257,0,0,0.43829021,99.597569,-8.2311976)">
      <stop
         stop-color="#40C4FF"
         offset="0"
         id="stop41-3" />
      <stop
         stop-color="#0091EA"
         offset=".6853"
         id="stop43-6" />
      <stop
         stop-color="#0091EA"
         offset="1"
         id="stop45-0" />
    </radialGradient>
    <radialGradient
       id="a-3-6"
       cx="91.667"
       cy="64.333"
       r="59.529999"
       gradientUnits="userSpaceOnUse"
       gradientTransform="matrix(-0.44487087,0,0,0.43829021,109.45392,-7.1973188)">
      <stop
         stop-color="#757575"
         offset="0"
         id="stop65-6-2" />
      <stop
         stop-color="#6A6A6A"
         offset=".3078"
         id="stop67-7-6" />
      <stop
         stop-color="#4B4B4B"
         offset=".8542"
         id="stop69-5-1" />
      <stop
         stop-color="#424242"
         offset="1"
         id="stop71-3-8" />
    </radialGradient>
  </defs>
  <radialGradient
     id="h"
     cx="39.221001"
     cy="86.867996"
     r="27.285999"
     gradientUnits="userSpaceOnUse"
     gradientTransform="translate(67.890536,67.16295)">
    <stop
       stop-color="#825545"
       offset=".4958"
       id="stop18" />
    <stop
       stop-color="#B06A51"
       offset="1"
       id="stop20" />
    <stop
       stop-color="#7E5344"
       offset="1"
       id="stop22" />
  </radialGradient>
  <linearGradient
     id="g"
     x1="42.358002"
     x2="33.627998"
     y1="69.515999"
     y2="86.111"
     gradientUnits="userSpaceOnUse">
    <stop
       stop-color="#4E342E"
       offset=".4371"
       id="stop27" />
    <stop
       stop-color="#553931"
       stop-opacity=".747"
       offset=".5795"
       id="stop29" />
    <stop
       stop-color="#6A463A"
       stop-opacity=".3704"
       offset=".7915"
       id="stop31" />
    <stop
       stop-color="#845746"
       stop-opacity="0"
       offset="1"
       id="stop33" />
  </linearGradient>
  <radialGradient
     id="f"
     cx="27.257999"
     cy="54.591999"
     r="85.635002"
     fx="26.076"
     fy="52.952999"
     gradientTransform="matrix(0.057,-0.9984,1.0613,0.0606,35.657536,145.66095)"
     gradientUnits="userSpaceOnUse"
     xlink:href="#g">
    <stop
       stop-color="#825545"
       offset=".2068"
       id="stop48" />
    <stop
       stop-color="#B06A51"
       offset=".4835"
       id="stop50" />
    <stop
       stop-color="#B06A51"
       offset="1"
       id="stop52" />
    <stop
       stop-color="#7E5344"
       offset="1"
       id="stop54" />
  </radialGradient>
  <linearGradient
     id="e"
     x1="84.329002"
     x2="84.329002"
     y1="25.025"
     y2="96.125999"
     gradientUnits="userSpaceOnUse"
     gradientTransform="translate(67.890536,67.16295)">
    <stop
       stop-color="#F9F3DF"
       offset=".162"
       id="stop65" />
    <stop
       stop-color="#EDE2CF"
       offset=".33"
       id="stop67" />
    <stop
       stop-color="#CFBAA9"
       offset=".7709"
       id="stop69" />
    <stop
       stop-color="#C4AB9B"
       offset="1"
       id="stop71" />
  </linearGradient>
  <linearGradient
     id="d"
     x1="92.921997"
     x2="92.921997"
     y1="28.979"
     y2="21.957001"
     gradientUnits="userSpaceOnUse"
     gradientTransform="translate(67.890536,67.16295)">
    <stop
       offset="0"
       id="stop76" />
    <stop
       stop-color="#18100E"
       offset=".3508"
       id="stop78" />
    <stop
       stop-color="#4E342E"
       offset="1"
       id="stop80" />
  </linearGradient>
  <radialGradient
     id="c"
     cx="91.257004"
     cy="32.999001"
     r="22.806999"
     gradientTransform="matrix(1,0,0,1.0377,67.890536,65.91965)"
     gradientUnits="userSpaceOnUse">
    <stop
       stop-color="#825545"
       offset=".4418"
       id="stop87" />
    <stop
       stop-color="#B06A51"
       offset=".7926"
       id="stop89" />
    <stop
       stop-color="#B06A51"
       offset="1"
       id="stop91" />
    <stop
       stop-color="#7E5344"
       offset="1"
       id="stop93" />
  </radialGradient>
  <radialGradient
     id="b"
     cx="101.6"
     cy="34.166"
     r="24.65"
     fx="101.42"
     fy="33.82"
     gradientTransform="matrix(-1,0,0,1,263.39054,67.16295)"
     gradientUnits="userSpaceOnUse">
    <stop
       stop-color="#825545"
       offset=".4418"
       id="stop98" />
    <stop
       stop-color="#B06A51"
       offset=".7926"
       id="stop100" />
    <stop
       stop-color="#B06A51"
       offset="1"
       id="stop102" />
    <stop
       stop-color="#7E5344"
       offset="1"
       id="stop104" />
  </radialGradient>
  <radialGradient
     id="a"
     cx="54.894001"
     cy="84.953003"
     r="31.403999"
     gradientUnits="userSpaceOnUse"
     gradientTransform="translate(67.890536,67.16295)">
    <stop
       stop-color="#825545"
       offset=".2068"
       id="stop109" />
    <stop
       stop-color="#B06A51"
       offset=".4835"
       id="stop111" />
    <stop
       stop-color="#B06A51"
       offset="1"
       id="stop113" />
    <stop
       stop-color="#7E5344"
       offset="1"
       id="stop115" />
  </radialGradient>
  <linearGradient
     id="i"
     x1="61.459999"
     x2="47.452"
     y1="69.822998"
     y2="94.402"
     gradientUnits="userSpaceOnUse"
     gradientTransform="translate(67.890536,67.16295)">
    <stop
       stop-color="#4E342E"
       offset=".4371"
       id="stop120" />
    <stop
       stop-color="#553931"
       stop-opacity=".747"
       offset=".5795"
       id="stop122" />
    <stop
       stop-color="#6A463A"
       stop-opacity=".3704"
       offset=".7915"
       id="stop124" />
    <stop
       stop-color="#845746"
       stop-opacity="0"
       offset="1"
       id="stop126" />
  </linearGradient>
  <g
     id="g993"
     transform="translate(-67.260871,-62.255738)">
    <g
       fill="none"
       stroke="#3e2723"
       stroke-linecap="round"
       stroke-miterlimit="10"
       id="g8"
       transform="translate(67.890536,67.16295)">
      <path
         d="m 123.48,21.71 c -7.92,-0.94 -11.38,3.38 -11.38,3.38"
         id="path2" />
      <path
         d="m 123.48,27.59 c -5.94,-2.81 -10.9,-0.62 -10.9,-0.62"
         id="path4" />
      <path
         d="m 120.88,34.28 c -2.74,-4.91 -8.31,-4.56 -8.31,-4.56"
         id="path6" />
    </g>
    <g
       fill="none"
       stroke="#3e2723"
       stroke-linecap="round"
       stroke-miterlimit="10"
       id="g16"
       transform="translate(67.890536,67.16295)">
      <path
         d="m 62.26,21.71 c 7.92,-0.94 11.38,3.38 11.38,3.38"
         id="path10" />
      <path
         d="m 62.26,27.59 c 5.94,-2.81 10.9,-0.62 10.9,-0.62"
         id="path12" />
      <path
         d="m 64.86,34.28 c 2.74,-4.91 8.31,-4.56 8.31,-4.56"
         id="path14" />
    </g>
    <path
       d="m 125.47054,169.64295 c 0,0 8.33,-7.89 3.45,-17.16 -4.88,-9.27 -17.79,-2.87 -20.89,-1.46 0,0 5.29,-9.69 5.71,-15.58 0.18,-2.54 -3.19,-5.57 -7.01,0.6 -3.4,5.49 -9.390004,14.5 -12.630004,20.95 -1.41,2.82 1.97,5.87 4.15,6.65 2.180004,0.78 7.530004,0.57 9.840004,0.56"
       fill="url(#h)"
       id="path25"
       style="fill:#fffffe;fill-opacity:1" />
    <path
       d="m 106.73054,136.04295 c -2.56,4.13 -5.22,8.2 -7.750004,12.35 -1.16,1.9 -6.81,9.96 -2.2,10.83 0.76,0.14 1.55,0.01 2.3,-0.2 2.290004,-0.64 4.380004,-1.96 5.940004,-3.75 0.7,-0.8 1.3,-1.7 1.89,-2.58 3.24,-4.86 6.42,-11.34 6.83,-17.24 0.18,-2.55 -3.19,-5.58 -7.01,0.59 z"
       fill="url(#g)"
       opacity="0.93"
       id="path36"
       style="fill:#fffffe;fill-opacity:1" />
    <path
       d="m 125.47054,169.64295 c 0,0 8.33,-7.89 3.45,-17.16 -4.88,-9.27 -17.79,-2.87 -20.89,-1.46 0,0 5.29,-9.69 5.71,-15.58 0.18,-2.54 -3.19,-5.57 -7.01,0.6 -3.4,5.49 -9.390004,14.5 -12.630004,20.95 -1.41,2.82 1.97,5.87 4.15,6.65 2.180004,0.78 7.530004,0.57 9.840004,0.56"
       fill="none"
       stroke="#3c251f"
       stroke-miterlimit="10"
       stroke-width="2"
       id="path38"
       style="stroke:#fffff8;stroke-opacity:1" />
    <path
       d="m 142.53054,88.95295 c -2.09,0 -3.84,-1.63 -4,-3.72 -0.08,-1.07 0.27,-2.1 0.97,-2.91 0.7,-0.81 1.67,-1.3 2.74,-1.38 0.1,-0.01 0.2,-0.01 0.3,-0.01 2.09,0 3.84,1.63 4,3.72 0.08,1.07 -0.26,2.1 -0.97,2.91 -0.7,0.81 -1.67,1.3 -2.74,1.38 -0.11,0 -0.2,0.01 -0.3,0.01 z"
       fill="#4e342e"
       id="path40"
       style="fill:#fffffe;fill-opacity:1" />
    <path
       d="m 142.54054,81.67295 c 1.7,0 3.12,1.33 3.25,3.02 0.06,0.87 -0.22,1.71 -0.79,2.37 -0.57,0.66 -1.36,1.06 -2.23,1.12 -0.08,0.01 -0.16,0.01 -0.24,0.01 -1.7,0 -3.12,-1.33 -3.25,-3.02 -0.13,-1.79 1.22,-3.36 3.02,-3.49 0.08,0 0.16,-0.01 0.24,-0.01 m 0,-1.5 c -0.12,0 -0.23,0 -0.35,0.01 -2.62,0.19 -4.59,2.47 -4.4,5.09 0.18,2.51 2.27,4.42 4.74,4.42 0.12,0 0.23,0 0.35,-0.01 2.62,-0.19 4.59,-2.47 4.4,-5.09 -0.18,-2.51 -2.27,-4.42 -4.74,-4.42 z"
       fill="#3c251f"
       id="path42"
       style="fill:#fffffe;fill-opacity:1" />
    <path
       d="m 178.09054,88.95295 c -2.09,0 -3.84,-1.63 -4,-3.72 -0.08,-1.07 0.27,-2.1 0.97,-2.91 0.7,-0.81 1.67,-1.3 2.74,-1.38 0.1,-0.01 0.2,-0.01 0.3,-0.01 2.09,0 3.84,1.63 4,3.72 0.08,1.07 -0.26,2.1 -0.97,2.91 -0.7,0.81 -1.67,1.3 -2.74,1.38 -0.11,0 -0.21,0.01 -0.3,0.01 z"
       fill="#4e342e"
       id="path44"
       style="fill:#fffffe;fill-opacity:1" />
    <path
       d="m 178.10054,81.67295 c 1.7,0 3.12,1.33 3.25,3.02 0.13,1.79 -1.22,3.36 -3.02,3.49 -0.08,0.01 -0.16,0.01 -0.24,0.01 -1.7,0 -3.12,-1.33 -3.25,-3.02 -0.13,-1.79 1.22,-3.36 3.02,-3.49 0.08,0 0.16,-0.01 0.24,-0.01 m 0,-1.5 c -0.12,0 -0.23,0 -0.35,0.01 -2.62,0.19 -4.59,2.47 -4.4,5.09 0.18,2.51 2.27,4.42 4.74,4.42 0.12,0 0.23,0 0.35,-0.01 2.62,-0.19 4.59,-2.47 4.4,-5.09 -0.18,-2.51 -2.27,-4.42 -4.74,-4.42 z"
       fill="#3c251f"
       id="path46"
       style="fill:#fffffe;fill-opacity:1" />
    <path
       d="m 181.85054,96.49295 c 0.4,-11.74 -8.79,-22.09 -20.53,-22.36 -11.87,-0.28 -21.57,9.26 -21.57,21.06 0,1.75 0.55,6.39 1.13,9.35 1.85,9.36 -1.25,28.83 -7.97,38.07 -13.4,18.47 -34.520004,21.93 -45.540004,-0.65 -4.56,-9.34 1,-25.5 6.56,-31.09 0.94,-0.95 -0.01,-2.55 -1.3,-2.22 -7.35,1.87 -19.74,11.24 -19.74,34.51 0,17.43 15.15,44.89 49.750004,44.89 29.8,0 59.24,-16.96 58.49,-81.89 0.1,-3.42 0.61,-6.33 0.72,-9.67 z"
       fill="url(#f)"
       id="path57"
       style="fill:#ffffff;fill-opacity:1" />
    <path
       d="m 181.77054,96.64295 c 0.4,-11.74 -8.79,-22.09 -20.53,-22.36 -11.87,-0.28 -21.57,9.26 -21.57,21.06 0,1.75 0.55,6.39 1.13,9.35 1.85,9.36 -1.25,28.83 -7.97,38.07 -13.4,18.47 -36.020004,20.9 -45.540004,-0.65 -4.2,-9.51 -0.02,-24.51 6.56,-31.09 0.94,-0.94 -0.01,-2.55 -1.3,-2.22 -7.35,1.87 -19.66,11.09 -19.66,34.36 0,17.43 15.07,45.04 49.670004,45.04 29.8,0 59.24,-16.96 58.49,-81.89 0.1,-3.42 0.61,-6.33 0.72,-9.67 z"
       fill="none"
       stroke="#3c251f"
       stroke-miterlimit="10"
       stroke-width="2"
       id="path59"
       style="stroke:#fffff4;stroke-opacity:1" />
    <circle
       cx="150.56053"
       cy="90.162949"
       r="2.5699999"
       id="circle61"
       style="fill:#fffffe;fill-opacity:1" />
    <circle
       cx="170.94054"
       cy="90.162949"
       r="2.5699999"
       id="circle63"
       style="fill:#fffffe;fill-opacity:1" />
    <path
       d="m 174.23054,112.75295 c 1.08,-5.42 3.52,-8.31 3.81,-13.7 0.15,-2.78 -1.51,-5.16 -3.81,-6.33 -2.11,-1.06 -5.42,-0.32 -8.03,0.17 -1.72,0.33 -3.57,0.8 -5.39,0.9 -1.82,-0.1 -3.66,-0.57 -5.39,-0.9 -2.61,-0.49 -5.92,-1.23 -8.03,-0.17 -2.3,1.16 -3.95,3.54 -3.81,6.33 0.29,5.39 2.84,8.25 3.81,13.7 4.66,26.33 -16.94,36.87 -20.36,44.86 -2.22,5.18 1.02,7.98 14.5,3.26 19.28,-6.75 27.1,-20.01 32.7,-48.12 z"
       fill="url(#e)"
       id="path74"
       style="fill:#000012;fill-opacity:1" />
    <path
       d="m 160.91054,96.27295 c -1.68,0 -3.92,-1.29 -3.92,-2.87 v -0.08 c 0,-1.58 2.39,-3.68 2.91,-3.96 0.51,-0.28 1.29,-0.21 1.88,-0.02 0.59,0.19 2.86,2.41 2.86,3.98 v 0.04 c -0.01,1.58 -2.05,2.91 -3.73,2.91 z"
       fill="url(#d)"
       id="path83"
       style="fill:#fffffe;fill-opacity:1" />
    <path
       d="m 170.62054,95.67295 c 0.25,1.29 -0.12,2.75 -1.03,3.88 -1.02,1.01 -2.44,1.61 -3.88,1.6 -1.44,0.01 -2.87,-0.59 -3.88,-1.61 -1.02,-1.01 -1.61,-2.44 -1.61,-3.88 h 1.15 c 0.01,1.44 -0.59,2.87 -1.61,3.88 -1.01,1.02 -2.44,1.61 -3.88,1.61 -1.44,0.01 -2.87,-0.59 -3.88,-1.61 -0.88,-1.14 -1.27,-2.59 -1.03,-3.88 0.23,1.28 0.9,2.39 1.84,3.06 0.8,0.81 1.92,1.27 3.06,1.27 1.14,0 2.26,-0.46 3.06,-1.27 0.81,-0.8 1.27,-1.92 1.27,-3.06 h 1.15 c 0,1.14 0.46,2.26 1.27,3.06 0.8,0.81 1.92,1.27 3.06,1.27 1.14,0 2.26,-0.46 3.06,-1.27 0.96,-0.67 1.64,-1.76 1.88,-3.05 z"
       id="path85"
       style="fill:#fffffe;fill-opacity:1" />
    <path
       d="m 156.60054,98.62295 c 0.4,-0.47 1.3,-1.3 2.61,-0.84 1.04,0.37 1.5,1.54 1.5,3.47 0,16.2 -11.93,32.18 -22.24,29.01 -5.32,-1.63 -6.4,-9.01 0.09,-12.82 2.62,-1.53 12.05,-3.75 15.37,-10.75 1.31,-2.74 0.58,-5.6 2.67,-8.07 z"
       fill="url(#c)"
       stroke="#3c251f"
       stroke-miterlimit="10"
       stroke-width="2"
       id="path96"
       style="fill:#fffffe;fill-opacity:1;stroke:#ffffff;stroke-opacity:1" />
    <path
       d="m 164.92054,98.62295 c -0.4,-0.47 -1.3,-1.3 -2.61,-0.84 -1.04,0.37 -1.5,1.54 -1.5,3.47 0,16.2 11.93,32.18 22.24,29.01 5.32,-1.63 6.4,-9.01 -0.09,-12.82 -2.62,-1.53 -12.05,-3.75 -15.37,-10.75 -1.3,-2.74 -0.57,-5.6 -2.67,-8.07 z"
       fill="url(#b)"
       stroke="#3c251f"
       stroke-miterlimit="10"
       stroke-width="2"
       id="path107"
       style="fill:#fffffe;fill-opacity:1;stroke:#ffffff;stroke-opacity:1" />
    <path
       d="m 140.39054,176.23295 c 0,0 8.33,-7.89 3.45,-17.16 -4.88,-9.27 -17.79,-2.87 -20.89,-1.46 0,0 5.29,-9.69 5.71,-15.58 0.18,-2.54 -3.19,-5.57 -7.01,0.6 -3.4,5.49 -9.39,14.5 -12.63,20.95 -1.41,2.82 1.97,5.87 4.15,6.65 2.18,0.78 7.53,0.57 9.84,0.56"
       fill="url(#a)"
       id="path118"
       style="fill:#fffffe;fill-opacity:1" />
    <path
       d="m 121.66054,142.63295 c -2.56,4.13 -5.22,8.2 -7.75,12.35 -1.16,1.9 -6.81,9.96 -2.2,10.83 0.76,0.14 1.55,0.01 2.3,-0.2 2.29,-0.64 4.38,-1.96 5.94,-3.75 0.7,-0.8 1.3,-1.7 1.89,-2.58 3.24,-4.86 6.42,-11.34 6.83,-17.24 0.17,-2.55 -3.2,-5.59 -7.01,0.59 z"
       fill="url(#i)"
       opacity="0.79"
       id="path129"
       style="fill:#ffffff;fill-opacity:1" />
    <path
       d="m 140.39054,176.23295 c 0,0 8.33,-7.89 3.45,-17.16 -4.88,-9.27 -17.79,-2.87 -20.89,-1.46 0,0 5.29,-9.69 5.71,-15.58 0.18,-2.54 -3.19,-5.57 -7.01,0.6 -3.4,5.49 -9.39,14.5 -12.63,20.95 -1.41,2.82 0.89,6.06 4.15,6.65 2.28,0.41 7.53,0.57 9.84,0.56"
       fill="none"
       stroke="#3c251f"
       stroke-linecap="round"
       stroke-miterlimit="10"
       stroke-width="2"
       id="path131"
       style="stroke:#ffffff;stroke-opacity:1" />
  </g>
  <path
     d="M 92.861928,4.192329 C 83.076337,4.192329 74.245275,6.852751 67.937378,11.130463 L 70.914442,13.085238 C 72.34957,14.027562 74.639098,14.119603 76.227755,13.286851 80.793476,10.889404 86.58072,9.451812 92.861928,9.451812 99.143137,9.451812 104.93037,10.889404 109.4961,13.282468 111.08476,14.11522 113.3743,14.027562 114.80943,13.080855 L 117.78649,11.12608 C 111.47858,6.852751 102.64752,4.192329 92.861928,4.192329 Z"
     id="path11"
     style="fill:#fffffe;stroke-width:0.54088789;fill-opacity:1"
     inkscape:connector-curvature="0" />
  <path
     d="M 92.781206,5.209162 C 108.00636,5.209162 120.38744,13.795268 120.38744,24.353679 V 36.205047 H 125.64577 V 24.353679 C 125.64577,11.787899 110.90096,1.562587 92.781206,1.562587 74.661481,1.562587 59.916667,11.787899 59.916667,24.353679 V 36.205047 H 65.17499 V 24.353679 C 65.17499,13.795268 77.556086,5.209162 92.781206,5.209162 Z"
     id="path22"
     style="fill:#fffffe;stroke-width:0.5263111;fill-opacity:1"
     inkscape:connector-curvature="0" />
  <path
     d="M 119.55638,21.965085 C 123.65233,21.965085 127.28459,27.066784 127.28459,33.360631 127.28459,39.654479 123.65233,44.756176 119.55638,44.756176 H 115.84683 V 21.965085 Z"
     id="path48"
     style="fill:#fffffe;stroke-width:0.36808684;fill-opacity:1"
     inkscape:connector-curvature="0" />
  <path
     d="M 117.49372,46.509337 H 118.3905 C 119.99548,46.509337 121.29455,45.150637 121.29455,43.471986 V 23.249276 C 121.29455,21.570624 119.99548,20.211924 118.3905,20.211924 H 117.49372 C 115.88874,20.211924 114.58967,21.570624 114.58967,23.249276 V 43.471986 C 114.58967,45.150637 115.88874,46.509337 117.49372,46.509337 Z"
     id="path74-7"
     style="fill:#000012;stroke-width:2;fill-opacity:1;stroke:#ffffff;stroke-opacity:1;stroke-miterlimit:4;stroke-dasharray:none"
     inkscape:connector-curvature="0" />
  <path
     d="M 67.108459,22.43885 C 62.760185,22.43885 58.904158,27.540544 58.904161,33.834391 58.90415,40.128248 62.760186,45.229934 67.108457,45.229945 L 71.046534,45.229946 71.046536,22.43885 Z"
     id="path48-7"
     style="fill:#fffffe;fill-opacity:1;stroke-width:0.37925544"
     inkscape:connector-curvature="0" />
  <path
     d="M 69.001802,47.150658 68.049787,47.150657 C 66.345921,47.150652 64.966825,45.791951 64.966817,44.113316 L 64.966826,23.890593 C 64.966822,22.211945 66.345918,20.853246 68.049773,20.853249 L 69.001804,20.853243 C 70.705658,20.853242 72.084755,22.211946 72.084759,23.890594 L 72.084757,44.113309 C 72.084753,45.791961 70.705663,47.150653 69.001802,47.150658 Z"
     id="path74-7-0"
     style="fill:#000012;stroke-width:2;fill-opacity:1;stroke:#ffffff;stroke-opacity:1;stroke-miterlimit:4;stroke-dasharray:none"
     inkscape:connector-curvature="0" />
</svg>
