G04 #@! TF.GenerationSoftware,KiCad,Pcbnew,5.1.5+dfsg1-2build2*
G04 #@! TF.CreationDate,2021-04-11T15:19:25-07:00*
G04 #@! TF.ProjectId,back,6261636b-2e6b-4696-9361-645f70636258,rev?*
G04 #@! TF.SameCoordinates,Original*
G04 #@! TF.FileFunction,Copper,L1,Top*
G04 #@! TF.FilePolarity,Positive*
%FSLAX46Y46*%
G04 Gerber Fmt 4.6, Leading zero omitted, Abs format (unit mm)*
G04 Created by KiCad (PCBNEW 5.1.5+dfsg1-2build2) date 2021-04-11 15:19:25*
%MOMM*%
%LPD*%
G04 APERTURE LIST*
%ADD10C,0.010000*%
G04 APERTURE END LIST*
D10*
G36*
X191818848Y-78289872D02*
G01*
X191982766Y-78295700D01*
X192106647Y-78304284D01*
X192566122Y-78364643D01*
X193014353Y-78458037D01*
X193446899Y-78582979D01*
X193859324Y-78737983D01*
X194247188Y-78921561D01*
X194606054Y-79132227D01*
X194634643Y-79151046D01*
X194755704Y-79233989D01*
X194867905Y-79315624D01*
X194966436Y-79392003D01*
X195046485Y-79459172D01*
X195103243Y-79513181D01*
X195131900Y-79550078D01*
X195134066Y-79561298D01*
X195111554Y-79581846D01*
X195060897Y-79610712D01*
X195000512Y-79638415D01*
X194930922Y-79664203D01*
X194864126Y-79680030D01*
X194785816Y-79688119D01*
X194681680Y-79690690D01*
X194663417Y-79690737D01*
X194594594Y-79690757D01*
X194538492Y-79689371D01*
X194488683Y-79684586D01*
X194438739Y-79674407D01*
X194382233Y-79656839D01*
X194312735Y-79629889D01*
X194223819Y-79591560D01*
X194109056Y-79539860D01*
X193964117Y-79473750D01*
X193647935Y-79343478D01*
X193310537Y-79232138D01*
X192946172Y-79138106D01*
X192549087Y-79059755D01*
X192430599Y-79040302D01*
X192286098Y-79022578D01*
X192108430Y-79008782D01*
X191906581Y-78998956D01*
X191689538Y-78993139D01*
X191466288Y-78991373D01*
X191245818Y-78993698D01*
X191037114Y-79000155D01*
X190849164Y-79010785D01*
X190690954Y-79025628D01*
X190641750Y-79032197D01*
X190146199Y-79123444D01*
X189676673Y-79246712D01*
X189234116Y-79401728D01*
X188974675Y-79513207D01*
X188864659Y-79562730D01*
X188758646Y-79608063D01*
X188667117Y-79644882D01*
X188600551Y-79668864D01*
X188588583Y-79672476D01*
X188457403Y-79695367D01*
X188311222Y-79698849D01*
X188172681Y-79682865D01*
X188133500Y-79673587D01*
X188056426Y-79648687D01*
X187979512Y-79617894D01*
X187914831Y-79586668D01*
X187874456Y-79560472D01*
X187868404Y-79553671D01*
X187878366Y-79531661D01*
X187918197Y-79490111D01*
X187982720Y-79433231D01*
X188066762Y-79365231D01*
X188165148Y-79290321D01*
X188272703Y-79212713D01*
X188366333Y-79148527D01*
X188706203Y-78944439D01*
X189078494Y-78763994D01*
X189479677Y-78608479D01*
X189906221Y-78479186D01*
X190354597Y-78377403D01*
X190588833Y-78336767D01*
X190710080Y-78322027D01*
X190864558Y-78309645D01*
X191043224Y-78299813D01*
X191237032Y-78292727D01*
X191436935Y-78288579D01*
X191633889Y-78287563D01*
X191818848Y-78289872D01*
G37*
X191818848Y-78289872D02*
X191982766Y-78295700D01*
X192106647Y-78304284D01*
X192566122Y-78364643D01*
X193014353Y-78458037D01*
X193446899Y-78582979D01*
X193859324Y-78737983D01*
X194247188Y-78921561D01*
X194606054Y-79132227D01*
X194634643Y-79151046D01*
X194755704Y-79233989D01*
X194867905Y-79315624D01*
X194966436Y-79392003D01*
X195046485Y-79459172D01*
X195103243Y-79513181D01*
X195131900Y-79550078D01*
X195134066Y-79561298D01*
X195111554Y-79581846D01*
X195060897Y-79610712D01*
X195000512Y-79638415D01*
X194930922Y-79664203D01*
X194864126Y-79680030D01*
X194785816Y-79688119D01*
X194681680Y-79690690D01*
X194663417Y-79690737D01*
X194594594Y-79690757D01*
X194538492Y-79689371D01*
X194488683Y-79684586D01*
X194438739Y-79674407D01*
X194382233Y-79656839D01*
X194312735Y-79629889D01*
X194223819Y-79591560D01*
X194109056Y-79539860D01*
X193964117Y-79473750D01*
X193647935Y-79343478D01*
X193310537Y-79232138D01*
X192946172Y-79138106D01*
X192549087Y-79059755D01*
X192430599Y-79040302D01*
X192286098Y-79022578D01*
X192108430Y-79008782D01*
X191906581Y-78998956D01*
X191689538Y-78993139D01*
X191466288Y-78991373D01*
X191245818Y-78993698D01*
X191037114Y-79000155D01*
X190849164Y-79010785D01*
X190690954Y-79025628D01*
X190641750Y-79032197D01*
X190146199Y-79123444D01*
X189676673Y-79246712D01*
X189234116Y-79401728D01*
X188974675Y-79513207D01*
X188864659Y-79562730D01*
X188758646Y-79608063D01*
X188667117Y-79644882D01*
X188600551Y-79668864D01*
X188588583Y-79672476D01*
X188457403Y-79695367D01*
X188311222Y-79698849D01*
X188172681Y-79682865D01*
X188133500Y-79673587D01*
X188056426Y-79648687D01*
X187979512Y-79617894D01*
X187914831Y-79586668D01*
X187874456Y-79560472D01*
X187868404Y-79553671D01*
X187878366Y-79531661D01*
X187918197Y-79490111D01*
X187982720Y-79433231D01*
X188066762Y-79365231D01*
X188165148Y-79290321D01*
X188272703Y-79212713D01*
X188366333Y-79148527D01*
X188706203Y-78944439D01*
X189078494Y-78763994D01*
X189479677Y-78608479D01*
X189906221Y-78479186D01*
X190354597Y-78377403D01*
X190588833Y-78336767D01*
X190710080Y-78322027D01*
X190864558Y-78309645D01*
X191043224Y-78299813D01*
X191237032Y-78292727D01*
X191436935Y-78288579D01*
X191633889Y-78287563D01*
X191818848Y-78289872D01*
G36*
X194505622Y-80616085D02*
G01*
X194567628Y-80626483D01*
X194632988Y-80642655D01*
X194689325Y-80662394D01*
X194700823Y-80667765D01*
X194785166Y-80722727D01*
X194866663Y-80796530D01*
X194929500Y-80874213D01*
X194942598Y-80896512D01*
X194960456Y-80941645D01*
X194963957Y-80991430D01*
X194953892Y-81062454D01*
X194951168Y-81076429D01*
X194936130Y-81169433D01*
X194925142Y-81268803D01*
X194922501Y-81308730D01*
X194917417Y-81422543D01*
X194867943Y-81319313D01*
X194817608Y-81222210D01*
X194750849Y-81104341D01*
X194675893Y-80979352D01*
X194600970Y-80860891D01*
X194534307Y-80762604D01*
X194522293Y-80746029D01*
X194480530Y-80687225D01*
X194451246Y-80642050D01*
X194441167Y-80621443D01*
X194459343Y-80613669D01*
X194505622Y-80616085D01*
G37*
X194505622Y-80616085D02*
X194567628Y-80626483D01*
X194632988Y-80642655D01*
X194689325Y-80662394D01*
X194700823Y-80667765D01*
X194785166Y-80722727D01*
X194866663Y-80796530D01*
X194929500Y-80874213D01*
X194942598Y-80896512D01*
X194960456Y-80941645D01*
X194963957Y-80991430D01*
X194953892Y-81062454D01*
X194951168Y-81076429D01*
X194936130Y-81169433D01*
X194925142Y-81268803D01*
X194922501Y-81308730D01*
X194917417Y-81422543D01*
X194867943Y-81319313D01*
X194817608Y-81222210D01*
X194750849Y-81104341D01*
X194675893Y-80979352D01*
X194600970Y-80860891D01*
X194534307Y-80762604D01*
X194522293Y-80746029D01*
X194480530Y-80687225D01*
X194451246Y-80642050D01*
X194441167Y-80621443D01*
X194459343Y-80613669D01*
X194505622Y-80616085D01*
G36*
X188685755Y-80616506D02*
G01*
X188722178Y-80630559D01*
X188723228Y-80659544D01*
X188692183Y-80708011D01*
X188685449Y-80716626D01*
X188623476Y-80801929D01*
X188550979Y-80912611D01*
X188475704Y-81035866D01*
X188405399Y-81158885D01*
X188347810Y-81268860D01*
X188334155Y-81297430D01*
X188266943Y-81442277D01*
X188253367Y-81308013D01*
X188220695Y-81156571D01*
X188177915Y-81052660D01*
X188116038Y-80931570D01*
X188175803Y-80849067D01*
X188271524Y-80747225D01*
X188388723Y-80670096D01*
X188516229Y-80623748D01*
X188610680Y-80612833D01*
X188685755Y-80616506D01*
G37*
X188685755Y-80616506D02*
X188722178Y-80630559D01*
X188723228Y-80659544D01*
X188692183Y-80708011D01*
X188685449Y-80716626D01*
X188623476Y-80801929D01*
X188550979Y-80912611D01*
X188475704Y-81035866D01*
X188405399Y-81158885D01*
X188347810Y-81268860D01*
X188334155Y-81297430D01*
X188266943Y-81442277D01*
X188253367Y-81308013D01*
X188220695Y-81156571D01*
X188177915Y-81052660D01*
X188116038Y-80931570D01*
X188175803Y-80849067D01*
X188271524Y-80747225D01*
X188388723Y-80670096D01*
X188516229Y-80623748D01*
X188610680Y-80612833D01*
X188685755Y-80616506D01*
G36*
X196436125Y-81208710D02*
G01*
X196593546Y-81342089D01*
X196740166Y-81510478D01*
X196871625Y-81707050D01*
X196983566Y-81924974D01*
X197071629Y-82157423D01*
X197096768Y-82243799D01*
X197155020Y-82527464D01*
X197180701Y-82815181D01*
X197174982Y-83101957D01*
X197139029Y-83382801D01*
X197074012Y-83652721D01*
X196981099Y-83906723D01*
X196861459Y-84139817D01*
X196716261Y-84347009D01*
X196567549Y-84504609D01*
X196504121Y-84560643D01*
X196448004Y-84606825D01*
X196410271Y-84634087D01*
X196407517Y-84635650D01*
X196400334Y-84638569D01*
X196394062Y-84637360D01*
X196388640Y-84629370D01*
X196384005Y-84611945D01*
X196380095Y-84582433D01*
X196376850Y-84538180D01*
X196374207Y-84476534D01*
X196372104Y-84394842D01*
X196370480Y-84290450D01*
X196369274Y-84160706D01*
X196368422Y-84002956D01*
X196367865Y-83814548D01*
X196367539Y-83592828D01*
X196367383Y-83335144D01*
X196367336Y-83038842D01*
X196367333Y-82908720D01*
X196367333Y-81160284D01*
X196436125Y-81208710D01*
G37*
X196436125Y-81208710D02*
X196593546Y-81342089D01*
X196740166Y-81510478D01*
X196871625Y-81707050D01*
X196983566Y-81924974D01*
X197071629Y-82157423D01*
X197096768Y-82243799D01*
X197155020Y-82527464D01*
X197180701Y-82815181D01*
X197174982Y-83101957D01*
X197139029Y-83382801D01*
X197074012Y-83652721D01*
X196981099Y-83906723D01*
X196861459Y-84139817D01*
X196716261Y-84347009D01*
X196567549Y-84504609D01*
X196504121Y-84560643D01*
X196448004Y-84606825D01*
X196410271Y-84634087D01*
X196407517Y-84635650D01*
X196400334Y-84638569D01*
X196394062Y-84637360D01*
X196388640Y-84629370D01*
X196384005Y-84611945D01*
X196380095Y-84582433D01*
X196376850Y-84538180D01*
X196374207Y-84476534D01*
X196372104Y-84394842D01*
X196370480Y-84290450D01*
X196369274Y-84160706D01*
X196368422Y-84002956D01*
X196367865Y-83814548D01*
X196367539Y-83592828D01*
X196367383Y-83335144D01*
X196367336Y-83038842D01*
X196367333Y-82908720D01*
X196367333Y-81160284D01*
X196436125Y-81208710D01*
G36*
X186757667Y-82992886D02*
G01*
X186757563Y-83259115D01*
X186757262Y-83512799D01*
X186756779Y-83750799D01*
X186756131Y-83969979D01*
X186755334Y-84167199D01*
X186754402Y-84339322D01*
X186753352Y-84483210D01*
X186752200Y-84595725D01*
X186750961Y-84673730D01*
X186749651Y-84714086D01*
X186748984Y-84719167D01*
X186729162Y-84707078D01*
X186686262Y-84675616D01*
X186637859Y-84638095D01*
X186449181Y-84462474D01*
X186288228Y-84258897D01*
X186155529Y-84031852D01*
X186051616Y-83785827D01*
X185977019Y-83525312D01*
X185932269Y-83254794D01*
X185917896Y-82978761D01*
X185934432Y-82701702D01*
X185982407Y-82428105D01*
X186062352Y-82162459D01*
X186174797Y-81909251D01*
X186292033Y-81713451D01*
X186363034Y-81619032D01*
X186448281Y-81521042D01*
X186538215Y-81429259D01*
X186623277Y-81353462D01*
X186691430Y-81304845D01*
X186757667Y-81266606D01*
X186757667Y-82992886D01*
G37*
X186757667Y-82992886D02*
X186757563Y-83259115D01*
X186757262Y-83512799D01*
X186756779Y-83750799D01*
X186756131Y-83969979D01*
X186755334Y-84167199D01*
X186754402Y-84339322D01*
X186753352Y-84483210D01*
X186752200Y-84595725D01*
X186750961Y-84673730D01*
X186749651Y-84714086D01*
X186748984Y-84719167D01*
X186729162Y-84707078D01*
X186686262Y-84675616D01*
X186637859Y-84638095D01*
X186449181Y-84462474D01*
X186288228Y-84258897D01*
X186155529Y-84031852D01*
X186051616Y-83785827D01*
X185977019Y-83525312D01*
X185932269Y-83254794D01*
X185917896Y-82978761D01*
X185934432Y-82701702D01*
X185982407Y-82428105D01*
X186062352Y-82162459D01*
X186174797Y-81909251D01*
X186292033Y-81713451D01*
X186363034Y-81619032D01*
X186448281Y-81521042D01*
X186538215Y-81429259D01*
X186623277Y-81353462D01*
X186691430Y-81304845D01*
X186757667Y-81266606D01*
X186757667Y-82992886D01*
G36*
X191867702Y-79577146D02*
G01*
X192095353Y-79600180D01*
X192313891Y-79641457D01*
X192538837Y-79703398D01*
X192601892Y-79723716D01*
X192909693Y-79840850D01*
X193191085Y-79981387D01*
X193454124Y-80150344D01*
X193706869Y-80352739D01*
X193892117Y-80527096D01*
X194144699Y-80804355D01*
X194358061Y-81092807D01*
X194534574Y-81395758D01*
X194576327Y-81480691D01*
X194669906Y-81692903D01*
X194746741Y-81901256D01*
X194807460Y-82111055D01*
X194852689Y-82327605D01*
X194883058Y-82556210D01*
X194899191Y-82802176D01*
X194901718Y-83070807D01*
X194891266Y-83367408D01*
X194868461Y-83697284D01*
X194855712Y-83843103D01*
X194834131Y-84094576D01*
X194818391Y-84321265D01*
X194807703Y-84539593D01*
X194801279Y-84765982D01*
X194798327Y-85016854D01*
X194798215Y-85039020D01*
X194796984Y-85209141D01*
X194794952Y-85378624D01*
X194792279Y-85538988D01*
X194789128Y-85681748D01*
X194785658Y-85798423D01*
X194782340Y-85875126D01*
X194769250Y-86110336D01*
X194695167Y-86077357D01*
X194586762Y-86028130D01*
X194466334Y-85971844D01*
X194341703Y-85912325D01*
X194220691Y-85853398D01*
X194111118Y-85798891D01*
X194020807Y-85752628D01*
X193957579Y-85718435D01*
X193939825Y-85707866D01*
X193851234Y-85651695D01*
X193901589Y-85465889D01*
X193924820Y-85382371D01*
X193948907Y-85301268D01*
X193976128Y-85215895D01*
X194008764Y-85119571D01*
X194049096Y-85005613D01*
X194099403Y-84867337D01*
X194161965Y-84698061D01*
X194181661Y-84645083D01*
X194289839Y-84335103D01*
X194371638Y-84055593D01*
X194426993Y-83803863D01*
X194455840Y-83577223D01*
X194458115Y-83372984D01*
X194433753Y-83188455D01*
X194382691Y-83020946D01*
X194304864Y-82867768D01*
X194200209Y-82726231D01*
X194134247Y-82655420D01*
X194019041Y-82554951D01*
X193893779Y-82470835D01*
X193769586Y-82409596D01*
X193661997Y-82378434D01*
X193607697Y-82367792D01*
X193576373Y-82357860D01*
X193573333Y-82354966D01*
X193584742Y-82333698D01*
X193613144Y-82292214D01*
X193623327Y-82278296D01*
X193691291Y-82156435D01*
X193717916Y-82032655D01*
X193703464Y-81910931D01*
X193648200Y-81795239D01*
X193586408Y-81721004D01*
X193483982Y-81642175D01*
X193377319Y-81600699D01*
X193270707Y-81592460D01*
X193168440Y-81613347D01*
X193074808Y-81659245D01*
X192994101Y-81726042D01*
X192930612Y-81809624D01*
X192888631Y-81905877D01*
X192872449Y-82010689D01*
X192886358Y-82119946D01*
X192934649Y-82229534D01*
X192985100Y-82297399D01*
X193020824Y-82340096D01*
X193039125Y-82366037D01*
X193039478Y-82369667D01*
X193006166Y-82373621D01*
X192940148Y-82384375D01*
X192850197Y-82400262D01*
X192745086Y-82419619D01*
X192633588Y-82440780D01*
X192524475Y-82462080D01*
X192426520Y-82481855D01*
X192348496Y-82498438D01*
X192299176Y-82510166D01*
X192299147Y-82510174D01*
X192272025Y-82505789D01*
X192251158Y-82470242D01*
X192240660Y-82436237D01*
X192204642Y-82347020D01*
X192144743Y-82245535D01*
X192068539Y-82140922D01*
X191983606Y-82042322D01*
X191897520Y-81958874D01*
X191817858Y-81899720D01*
X191780673Y-81881283D01*
X191685045Y-81860386D01*
X191580693Y-81861585D01*
X191486362Y-81883743D01*
X191450409Y-81901326D01*
X191387656Y-81948945D01*
X191310694Y-82020043D01*
X191229983Y-82103699D01*
X191155986Y-82188989D01*
X191099163Y-82264992D01*
X191093081Y-82274417D01*
X191053155Y-82346762D01*
X191019678Y-82422036D01*
X191013296Y-82439909D01*
X190989819Y-82493646D01*
X190964931Y-82510436D01*
X190954367Y-82508305D01*
X190924531Y-82500940D01*
X190861608Y-82487902D01*
X190774218Y-82470782D01*
X190670980Y-82451167D01*
X190560511Y-82430650D01*
X190451432Y-82410818D01*
X190352362Y-82393263D01*
X190271919Y-82379574D01*
X190218722Y-82371340D01*
X190202753Y-82369667D01*
X190202886Y-82355840D01*
X190226361Y-82320715D01*
X190245733Y-82297399D01*
X190316692Y-82188186D01*
X190350537Y-82070970D01*
X190349766Y-81952683D01*
X190316877Y-81840253D01*
X190254368Y-81740611D01*
X190164737Y-81660686D01*
X190050481Y-81607410D01*
X189992197Y-81594056D01*
X189877750Y-81595230D01*
X189768512Y-81631618D01*
X189671043Y-81696597D01*
X189591902Y-81783548D01*
X189537649Y-81885849D01*
X189514844Y-81996879D01*
X189520008Y-82070680D01*
X189557579Y-82189131D01*
X189619137Y-82294398D01*
X189639807Y-82319177D01*
X189680663Y-82363937D01*
X189591001Y-82378274D01*
X189460115Y-82417352D01*
X189324053Y-82489986D01*
X189190902Y-82589528D01*
X189068749Y-82709333D01*
X188965680Y-82842754D01*
X188910961Y-82937186D01*
X188849729Y-83076523D01*
X188811859Y-83209138D01*
X188794602Y-83349666D01*
X188795212Y-83512741D01*
X188796934Y-83544417D01*
X188809933Y-83688083D01*
X188832644Y-83834878D01*
X188866726Y-83991224D01*
X188913840Y-84163540D01*
X188975647Y-84358246D01*
X189053806Y-84581763D01*
X189092517Y-84687417D01*
X189174172Y-84911878D01*
X189244161Y-85112680D01*
X189301479Y-85286674D01*
X189345121Y-85430710D01*
X189374081Y-85541640D01*
X189386478Y-85608167D01*
X189386195Y-85627222D01*
X189377272Y-85645837D01*
X189355003Y-85667068D01*
X189314681Y-85693966D01*
X189251602Y-85729585D01*
X189161058Y-85776980D01*
X189038345Y-85839203D01*
X189003201Y-85856875D01*
X188884754Y-85915843D01*
X188778545Y-85967697D01*
X188690576Y-86009589D01*
X188626849Y-86038671D01*
X188593367Y-86052097D01*
X188590451Y-86052674D01*
X188582228Y-86036420D01*
X188576602Y-85986276D01*
X188573500Y-85900181D01*
X188572852Y-85776072D01*
X188574587Y-85611888D01*
X188574779Y-85599881D01*
X188576434Y-85377807D01*
X188573110Y-85178006D01*
X188563920Y-84989461D01*
X188547983Y-84801151D01*
X188524414Y-84602059D01*
X188492330Y-84381167D01*
X188462003Y-84193702D01*
X188408545Y-83856928D01*
X188367067Y-83557672D01*
X188337309Y-83292926D01*
X188319012Y-83059682D01*
X188311916Y-82854933D01*
X188315763Y-82675671D01*
X188322990Y-82581333D01*
X188361866Y-82288636D01*
X188419321Y-82021368D01*
X188499377Y-81765211D01*
X188606056Y-81505841D01*
X188652890Y-81406583D01*
X188821359Y-81105916D01*
X189024592Y-80821609D01*
X189257995Y-80557929D01*
X189516973Y-80319140D01*
X189796932Y-80109511D01*
X190093278Y-79933306D01*
X190379677Y-79803126D01*
X190646730Y-79708657D01*
X190897566Y-79640859D01*
X191146461Y-79597037D01*
X191407692Y-79574498D01*
X191615417Y-79569936D01*
X191867702Y-79577146D01*
G37*
X191867702Y-79577146D02*
X192095353Y-79600180D01*
X192313891Y-79641457D01*
X192538837Y-79703398D01*
X192601892Y-79723716D01*
X192909693Y-79840850D01*
X193191085Y-79981387D01*
X193454124Y-80150344D01*
X193706869Y-80352739D01*
X193892117Y-80527096D01*
X194144699Y-80804355D01*
X194358061Y-81092807D01*
X194534574Y-81395758D01*
X194576327Y-81480691D01*
X194669906Y-81692903D01*
X194746741Y-81901256D01*
X194807460Y-82111055D01*
X194852689Y-82327605D01*
X194883058Y-82556210D01*
X194899191Y-82802176D01*
X194901718Y-83070807D01*
X194891266Y-83367408D01*
X194868461Y-83697284D01*
X194855712Y-83843103D01*
X194834131Y-84094576D01*
X194818391Y-84321265D01*
X194807703Y-84539593D01*
X194801279Y-84765982D01*
X194798327Y-85016854D01*
X194798215Y-85039020D01*
X194796984Y-85209141D01*
X194794952Y-85378624D01*
X194792279Y-85538988D01*
X194789128Y-85681748D01*
X194785658Y-85798423D01*
X194782340Y-85875126D01*
X194769250Y-86110336D01*
X194695167Y-86077357D01*
X194586762Y-86028130D01*
X194466334Y-85971844D01*
X194341703Y-85912325D01*
X194220691Y-85853398D01*
X194111118Y-85798891D01*
X194020807Y-85752628D01*
X193957579Y-85718435D01*
X193939825Y-85707866D01*
X193851234Y-85651695D01*
X193901589Y-85465889D01*
X193924820Y-85382371D01*
X193948907Y-85301268D01*
X193976128Y-85215895D01*
X194008764Y-85119571D01*
X194049096Y-85005613D01*
X194099403Y-84867337D01*
X194161965Y-84698061D01*
X194181661Y-84645083D01*
X194289839Y-84335103D01*
X194371638Y-84055593D01*
X194426993Y-83803863D01*
X194455840Y-83577223D01*
X194458115Y-83372984D01*
X194433753Y-83188455D01*
X194382691Y-83020946D01*
X194304864Y-82867768D01*
X194200209Y-82726231D01*
X194134247Y-82655420D01*
X194019041Y-82554951D01*
X193893779Y-82470835D01*
X193769586Y-82409596D01*
X193661997Y-82378434D01*
X193607697Y-82367792D01*
X193576373Y-82357860D01*
X193573333Y-82354966D01*
X193584742Y-82333698D01*
X193613144Y-82292214D01*
X193623327Y-82278296D01*
X193691291Y-82156435D01*
X193717916Y-82032655D01*
X193703464Y-81910931D01*
X193648200Y-81795239D01*
X193586408Y-81721004D01*
X193483982Y-81642175D01*
X193377319Y-81600699D01*
X193270707Y-81592460D01*
X193168440Y-81613347D01*
X193074808Y-81659245D01*
X192994101Y-81726042D01*
X192930612Y-81809624D01*
X192888631Y-81905877D01*
X192872449Y-82010689D01*
X192886358Y-82119946D01*
X192934649Y-82229534D01*
X192985100Y-82297399D01*
X193020824Y-82340096D01*
X193039125Y-82366037D01*
X193039478Y-82369667D01*
X193006166Y-82373621D01*
X192940148Y-82384375D01*
X192850197Y-82400262D01*
X192745086Y-82419619D01*
X192633588Y-82440780D01*
X192524475Y-82462080D01*
X192426520Y-82481855D01*
X192348496Y-82498438D01*
X192299176Y-82510166D01*
X192299147Y-82510174D01*
X192272025Y-82505789D01*
X192251158Y-82470242D01*
X192240660Y-82436237D01*
X192204642Y-82347020D01*
X192144743Y-82245535D01*
X192068539Y-82140922D01*
X191983606Y-82042322D01*
X191897520Y-81958874D01*
X191817858Y-81899720D01*
X191780673Y-81881283D01*
X191685045Y-81860386D01*
X191580693Y-81861585D01*
X191486362Y-81883743D01*
X191450409Y-81901326D01*
X191387656Y-81948945D01*
X191310694Y-82020043D01*
X191229983Y-82103699D01*
X191155986Y-82188989D01*
X191099163Y-82264992D01*
X191093081Y-82274417D01*
X191053155Y-82346762D01*
X191019678Y-82422036D01*
X191013296Y-82439909D01*
X190989819Y-82493646D01*
X190964931Y-82510436D01*
X190954367Y-82508305D01*
X190924531Y-82500940D01*
X190861608Y-82487902D01*
X190774218Y-82470782D01*
X190670980Y-82451167D01*
X190560511Y-82430650D01*
X190451432Y-82410818D01*
X190352362Y-82393263D01*
X190271919Y-82379574D01*
X190218722Y-82371340D01*
X190202753Y-82369667D01*
X190202886Y-82355840D01*
X190226361Y-82320715D01*
X190245733Y-82297399D01*
X190316692Y-82188186D01*
X190350537Y-82070970D01*
X190349766Y-81952683D01*
X190316877Y-81840253D01*
X190254368Y-81740611D01*
X190164737Y-81660686D01*
X190050481Y-81607410D01*
X189992197Y-81594056D01*
X189877750Y-81595230D01*
X189768512Y-81631618D01*
X189671043Y-81696597D01*
X189591902Y-81783548D01*
X189537649Y-81885849D01*
X189514844Y-81996879D01*
X189520008Y-82070680D01*
X189557579Y-82189131D01*
X189619137Y-82294398D01*
X189639807Y-82319177D01*
X189680663Y-82363937D01*
X189591001Y-82378274D01*
X189460115Y-82417352D01*
X189324053Y-82489986D01*
X189190902Y-82589528D01*
X189068749Y-82709333D01*
X188965680Y-82842754D01*
X188910961Y-82937186D01*
X188849729Y-83076523D01*
X188811859Y-83209138D01*
X188794602Y-83349666D01*
X188795212Y-83512741D01*
X188796934Y-83544417D01*
X188809933Y-83688083D01*
X188832644Y-83834878D01*
X188866726Y-83991224D01*
X188913840Y-84163540D01*
X188975647Y-84358246D01*
X189053806Y-84581763D01*
X189092517Y-84687417D01*
X189174172Y-84911878D01*
X189244161Y-85112680D01*
X189301479Y-85286674D01*
X189345121Y-85430710D01*
X189374081Y-85541640D01*
X189386478Y-85608167D01*
X189386195Y-85627222D01*
X189377272Y-85645837D01*
X189355003Y-85667068D01*
X189314681Y-85693966D01*
X189251602Y-85729585D01*
X189161058Y-85776980D01*
X189038345Y-85839203D01*
X189003201Y-85856875D01*
X188884754Y-85915843D01*
X188778545Y-85967697D01*
X188690576Y-86009589D01*
X188626849Y-86038671D01*
X188593367Y-86052097D01*
X188590451Y-86052674D01*
X188582228Y-86036420D01*
X188576602Y-85986276D01*
X188573500Y-85900181D01*
X188572852Y-85776072D01*
X188574587Y-85611888D01*
X188574779Y-85599881D01*
X188576434Y-85377807D01*
X188573110Y-85178006D01*
X188563920Y-84989461D01*
X188547983Y-84801151D01*
X188524414Y-84602059D01*
X188492330Y-84381167D01*
X188462003Y-84193702D01*
X188408545Y-83856928D01*
X188367067Y-83557672D01*
X188337309Y-83292926D01*
X188319012Y-83059682D01*
X188311916Y-82854933D01*
X188315763Y-82675671D01*
X188322990Y-82581333D01*
X188361866Y-82288636D01*
X188419321Y-82021368D01*
X188499377Y-81765211D01*
X188606056Y-81505841D01*
X188652890Y-81406583D01*
X188821359Y-81105916D01*
X189024592Y-80821609D01*
X189257995Y-80557929D01*
X189516973Y-80319140D01*
X189796932Y-80109511D01*
X190093278Y-79933306D01*
X190379677Y-79803126D01*
X190646730Y-79708657D01*
X190897566Y-79640859D01*
X191146461Y-79597037D01*
X191407692Y-79574498D01*
X191615417Y-79569936D01*
X191867702Y-79577146D01*
G36*
X192045220Y-83418891D02*
G01*
X192124687Y-83466490D01*
X192207725Y-83556054D01*
X192228475Y-83584162D01*
X192276696Y-83664049D01*
X192319763Y-83762901D01*
X192359445Y-83886340D01*
X192397513Y-84039986D01*
X192435736Y-84229461D01*
X192441479Y-84260698D01*
X192485603Y-84471454D01*
X192537149Y-84651386D01*
X192600397Y-84811890D01*
X192679626Y-84964357D01*
X192745636Y-85070507D01*
X192885783Y-85262321D01*
X193047073Y-85442797D01*
X193232396Y-85613941D01*
X193444646Y-85777758D01*
X193686716Y-85936252D01*
X193961496Y-86091429D01*
X194271881Y-86245293D01*
X194620761Y-86399850D01*
X194726917Y-86444007D01*
X194898541Y-86515755D01*
X195037083Y-86577242D01*
X195149336Y-86632420D01*
X195242096Y-86685240D01*
X195322155Y-86739654D01*
X195396308Y-86799612D01*
X195471350Y-86869066D01*
X195491107Y-86888437D01*
X195585813Y-86987265D01*
X195656441Y-87074921D01*
X195713228Y-87165025D01*
X195745107Y-87226319D01*
X195780541Y-87300102D01*
X195804021Y-87357371D01*
X195818006Y-87410432D01*
X195824955Y-87471592D01*
X195827328Y-87553159D01*
X195827583Y-87639069D01*
X195826811Y-87747451D01*
X195823207Y-87825044D01*
X195814841Y-87883383D01*
X195799780Y-87934005D01*
X195776094Y-87988443D01*
X195765383Y-88010583D01*
X195666278Y-88166094D01*
X195535543Y-88297575D01*
X195379156Y-88400434D01*
X195203094Y-88470079D01*
X195150250Y-88483184D01*
X194951633Y-88512293D01*
X194753686Y-88515892D01*
X194655537Y-88507029D01*
X194410524Y-88453476D01*
X194163254Y-88359605D01*
X193915965Y-88227193D01*
X193670895Y-88058016D01*
X193430282Y-87853850D01*
X193196363Y-87616472D01*
X192971376Y-87347657D01*
X192757560Y-87049183D01*
X192692743Y-86949089D01*
X192610861Y-86810879D01*
X192520452Y-86643611D01*
X192426798Y-86458245D01*
X192335179Y-86265741D01*
X192250878Y-86077059D01*
X192179177Y-85903158D01*
X192145472Y-85813465D01*
X191998797Y-85345369D01*
X191891491Y-84870341D01*
X191824495Y-84393179D01*
X191802134Y-84061783D01*
X191797860Y-83884395D01*
X191800168Y-83743991D01*
X191809814Y-83635627D01*
X191827551Y-83554357D01*
X191854135Y-83495234D01*
X191890318Y-83453315D01*
X191895586Y-83449013D01*
X191968971Y-83413113D01*
X192045220Y-83418891D01*
G37*
X192045220Y-83418891D02*
X192124687Y-83466490D01*
X192207725Y-83556054D01*
X192228475Y-83584162D01*
X192276696Y-83664049D01*
X192319763Y-83762901D01*
X192359445Y-83886340D01*
X192397513Y-84039986D01*
X192435736Y-84229461D01*
X192441479Y-84260698D01*
X192485603Y-84471454D01*
X192537149Y-84651386D01*
X192600397Y-84811890D01*
X192679626Y-84964357D01*
X192745636Y-85070507D01*
X192885783Y-85262321D01*
X193047073Y-85442797D01*
X193232396Y-85613941D01*
X193444646Y-85777758D01*
X193686716Y-85936252D01*
X193961496Y-86091429D01*
X194271881Y-86245293D01*
X194620761Y-86399850D01*
X194726917Y-86444007D01*
X194898541Y-86515755D01*
X195037083Y-86577242D01*
X195149336Y-86632420D01*
X195242096Y-86685240D01*
X195322155Y-86739654D01*
X195396308Y-86799612D01*
X195471350Y-86869066D01*
X195491107Y-86888437D01*
X195585813Y-86987265D01*
X195656441Y-87074921D01*
X195713228Y-87165025D01*
X195745107Y-87226319D01*
X195780541Y-87300102D01*
X195804021Y-87357371D01*
X195818006Y-87410432D01*
X195824955Y-87471592D01*
X195827328Y-87553159D01*
X195827583Y-87639069D01*
X195826811Y-87747451D01*
X195823207Y-87825044D01*
X195814841Y-87883383D01*
X195799780Y-87934005D01*
X195776094Y-87988443D01*
X195765383Y-88010583D01*
X195666278Y-88166094D01*
X195535543Y-88297575D01*
X195379156Y-88400434D01*
X195203094Y-88470079D01*
X195150250Y-88483184D01*
X194951633Y-88512293D01*
X194753686Y-88515892D01*
X194655537Y-88507029D01*
X194410524Y-88453476D01*
X194163254Y-88359605D01*
X193915965Y-88227193D01*
X193670895Y-88058016D01*
X193430282Y-87853850D01*
X193196363Y-87616472D01*
X192971376Y-87347657D01*
X192757560Y-87049183D01*
X192692743Y-86949089D01*
X192610861Y-86810879D01*
X192520452Y-86643611D01*
X192426798Y-86458245D01*
X192335179Y-86265741D01*
X192250878Y-86077059D01*
X192179177Y-85903158D01*
X192145472Y-85813465D01*
X191998797Y-85345369D01*
X191891491Y-84870341D01*
X191824495Y-84393179D01*
X191802134Y-84061783D01*
X191797860Y-83884395D01*
X191800168Y-83743991D01*
X191809814Y-83635627D01*
X191827551Y-83554357D01*
X191854135Y-83495234D01*
X191890318Y-83453315D01*
X191895586Y-83449013D01*
X191968971Y-83413113D01*
X192045220Y-83418891D01*
G36*
X191315195Y-83435072D02*
G01*
X191334563Y-83448475D01*
X191372089Y-83486707D01*
X191399514Y-83537956D01*
X191418183Y-83608580D01*
X191429439Y-83704935D01*
X191434625Y-83833378D01*
X191435382Y-83925546D01*
X191416129Y-84351428D01*
X191359285Y-84786437D01*
X191266762Y-85224482D01*
X191140470Y-85659468D01*
X190982321Y-86085304D01*
X190794225Y-86495895D01*
X190578096Y-86885149D01*
X190439507Y-87100417D01*
X190224006Y-87394303D01*
X189999214Y-87656924D01*
X189767075Y-87887062D01*
X189529532Y-88083495D01*
X189288527Y-88245003D01*
X189046005Y-88370368D01*
X188803908Y-88458368D01*
X188564179Y-88507785D01*
X188328762Y-88517397D01*
X188201789Y-88505271D01*
X187996152Y-88457677D01*
X187817381Y-88380066D01*
X187667444Y-88274433D01*
X187548311Y-88142773D01*
X187461948Y-87987079D01*
X187410325Y-87809347D01*
X187396655Y-87689455D01*
X187404516Y-87494410D01*
X187450303Y-87311008D01*
X187535364Y-87135857D01*
X187661045Y-86965565D01*
X187702111Y-86919987D01*
X187780014Y-86843682D01*
X187867438Y-86772974D01*
X187970026Y-86704553D01*
X188093423Y-86635110D01*
X188243273Y-86561334D01*
X188425218Y-86479916D01*
X188525083Y-86437370D01*
X188866025Y-86288445D01*
X189168532Y-86144140D01*
X189435934Y-86002156D01*
X189671560Y-85860193D01*
X189878739Y-85715953D01*
X190060802Y-85567135D01*
X190221077Y-85411442D01*
X190362894Y-85246572D01*
X190476737Y-85089583D01*
X190547839Y-84979124D01*
X190605871Y-84877079D01*
X190653873Y-84775190D01*
X190694887Y-84665199D01*
X190731955Y-84538845D01*
X190768118Y-84387871D01*
X190806418Y-84204018D01*
X190810545Y-84183193D01*
X190852258Y-83990395D01*
X190894745Y-83834306D01*
X190940209Y-83709322D01*
X190990854Y-83609842D01*
X191048881Y-83530265D01*
X191080300Y-83497204D01*
X191163864Y-83434768D01*
X191242308Y-83414029D01*
X191315195Y-83435072D01*
G37*
X191315195Y-83435072D02*
X191334563Y-83448475D01*
X191372089Y-83486707D01*
X191399514Y-83537956D01*
X191418183Y-83608580D01*
X191429439Y-83704935D01*
X191434625Y-83833378D01*
X191435382Y-83925546D01*
X191416129Y-84351428D01*
X191359285Y-84786437D01*
X191266762Y-85224482D01*
X191140470Y-85659468D01*
X190982321Y-86085304D01*
X190794225Y-86495895D01*
X190578096Y-86885149D01*
X190439507Y-87100417D01*
X190224006Y-87394303D01*
X189999214Y-87656924D01*
X189767075Y-87887062D01*
X189529532Y-88083495D01*
X189288527Y-88245003D01*
X189046005Y-88370368D01*
X188803908Y-88458368D01*
X188564179Y-88507785D01*
X188328762Y-88517397D01*
X188201789Y-88505271D01*
X187996152Y-88457677D01*
X187817381Y-88380066D01*
X187667444Y-88274433D01*
X187548311Y-88142773D01*
X187461948Y-87987079D01*
X187410325Y-87809347D01*
X187396655Y-87689455D01*
X187404516Y-87494410D01*
X187450303Y-87311008D01*
X187535364Y-87135857D01*
X187661045Y-86965565D01*
X187702111Y-86919987D01*
X187780014Y-86843682D01*
X187867438Y-86772974D01*
X187970026Y-86704553D01*
X188093423Y-86635110D01*
X188243273Y-86561334D01*
X188425218Y-86479916D01*
X188525083Y-86437370D01*
X188866025Y-86288445D01*
X189168532Y-86144140D01*
X189435934Y-86002156D01*
X189671560Y-85860193D01*
X189878739Y-85715953D01*
X190060802Y-85567135D01*
X190221077Y-85411442D01*
X190362894Y-85246572D01*
X190476737Y-85089583D01*
X190547839Y-84979124D01*
X190605871Y-84877079D01*
X190653873Y-84775190D01*
X190694887Y-84665199D01*
X190731955Y-84538845D01*
X190768118Y-84387871D01*
X190806418Y-84204018D01*
X190810545Y-84183193D01*
X190852258Y-83990395D01*
X190894745Y-83834306D01*
X190940209Y-83709322D01*
X190990854Y-83609842D01*
X191048881Y-83530265D01*
X191080300Y-83497204D01*
X191163864Y-83434768D01*
X191242308Y-83414029D01*
X191315195Y-83435072D01*
G36*
X189247590Y-88662534D02*
G01*
X189245263Y-88686776D01*
X189227876Y-88743027D01*
X189198091Y-88824853D01*
X189158570Y-88925818D01*
X189111977Y-89039488D01*
X189060973Y-89159427D01*
X189008222Y-89279200D01*
X188956387Y-89392374D01*
X188908130Y-89492511D01*
X188886746Y-89534583D01*
X188774856Y-89742758D01*
X188659546Y-89942106D01*
X188537823Y-90136514D01*
X188406696Y-90329867D01*
X188263174Y-90526050D01*
X188104263Y-90728949D01*
X187926974Y-90942451D01*
X187728313Y-91170439D01*
X187505290Y-91416800D01*
X187254912Y-91685420D01*
X187125848Y-91821607D01*
X187005181Y-91948492D01*
X186890003Y-92069860D01*
X186784587Y-92181190D01*
X186693205Y-92277960D01*
X186620129Y-92355649D01*
X186569633Y-92409736D01*
X186552928Y-92427900D01*
X186516143Y-92466207D01*
X186479392Y-92497034D01*
X186434935Y-92524359D01*
X186375030Y-92552162D01*
X186291934Y-92584421D01*
X186177905Y-92625116D01*
X186150762Y-92634598D01*
X186017331Y-92681099D01*
X185918644Y-92715297D01*
X185849462Y-92738800D01*
X185804547Y-92753221D01*
X185778662Y-92760168D01*
X185766568Y-92761253D01*
X185763027Y-92758085D01*
X185762833Y-92753857D01*
X185771648Y-92729631D01*
X185794939Y-92678079D01*
X185827976Y-92609599D01*
X185833769Y-92597930D01*
X185870060Y-92522012D01*
X185916583Y-92420234D01*
X185967374Y-92305847D01*
X186016468Y-92192102D01*
X186016935Y-92191000D01*
X186129167Y-91926417D01*
X186438125Y-91608707D01*
X186696193Y-91333420D01*
X186921952Y-91070159D01*
X187120666Y-90811444D01*
X187297597Y-90549793D01*
X187458008Y-90277726D01*
X187607162Y-89987761D01*
X187665078Y-89864591D01*
X187721414Y-89736376D01*
X187784577Y-89583632D01*
X187849857Y-89418553D01*
X187912548Y-89253336D01*
X187967940Y-89100175D01*
X188011325Y-88971267D01*
X188017211Y-88952500D01*
X188053222Y-88836083D01*
X188373819Y-88835845D01*
X188533956Y-88833515D01*
X188664635Y-88825276D01*
X188778576Y-88808851D01*
X188888499Y-88781965D01*
X189007122Y-88742343D01*
X189103357Y-88705330D01*
X189171822Y-88680057D01*
X189223541Y-88664669D01*
X189247487Y-88662439D01*
X189247590Y-88662534D01*
G37*
X189247590Y-88662534D02*
X189245263Y-88686776D01*
X189227876Y-88743027D01*
X189198091Y-88824853D01*
X189158570Y-88925818D01*
X189111977Y-89039488D01*
X189060973Y-89159427D01*
X189008222Y-89279200D01*
X188956387Y-89392374D01*
X188908130Y-89492511D01*
X188886746Y-89534583D01*
X188774856Y-89742758D01*
X188659546Y-89942106D01*
X188537823Y-90136514D01*
X188406696Y-90329867D01*
X188263174Y-90526050D01*
X188104263Y-90728949D01*
X187926974Y-90942451D01*
X187728313Y-91170439D01*
X187505290Y-91416800D01*
X187254912Y-91685420D01*
X187125848Y-91821607D01*
X187005181Y-91948492D01*
X186890003Y-92069860D01*
X186784587Y-92181190D01*
X186693205Y-92277960D01*
X186620129Y-92355649D01*
X186569633Y-92409736D01*
X186552928Y-92427900D01*
X186516143Y-92466207D01*
X186479392Y-92497034D01*
X186434935Y-92524359D01*
X186375030Y-92552162D01*
X186291934Y-92584421D01*
X186177905Y-92625116D01*
X186150762Y-92634598D01*
X186017331Y-92681099D01*
X185918644Y-92715297D01*
X185849462Y-92738800D01*
X185804547Y-92753221D01*
X185778662Y-92760168D01*
X185766568Y-92761253D01*
X185763027Y-92758085D01*
X185762833Y-92753857D01*
X185771648Y-92729631D01*
X185794939Y-92678079D01*
X185827976Y-92609599D01*
X185833769Y-92597930D01*
X185870060Y-92522012D01*
X185916583Y-92420234D01*
X185967374Y-92305847D01*
X186016468Y-92192102D01*
X186016935Y-92191000D01*
X186129167Y-91926417D01*
X186438125Y-91608707D01*
X186696193Y-91333420D01*
X186921952Y-91070159D01*
X187120666Y-90811444D01*
X187297597Y-90549793D01*
X187458008Y-90277726D01*
X187607162Y-89987761D01*
X187665078Y-89864591D01*
X187721414Y-89736376D01*
X187784577Y-89583632D01*
X187849857Y-89418553D01*
X187912548Y-89253336D01*
X187967940Y-89100175D01*
X188011325Y-88971267D01*
X188017211Y-88952500D01*
X188053222Y-88836083D01*
X188373819Y-88835845D01*
X188533956Y-88833515D01*
X188664635Y-88825276D01*
X188778576Y-88808851D01*
X188888499Y-88781965D01*
X189007122Y-88742343D01*
X189103357Y-88705330D01*
X189171822Y-88680057D01*
X189223541Y-88664669D01*
X189247487Y-88662439D01*
X189247590Y-88662534D01*
G36*
X183575122Y-89181097D02*
G01*
X183616365Y-89217695D01*
X183663761Y-89278275D01*
X183692402Y-89344565D01*
X183703637Y-89425413D01*
X183698814Y-89529669D01*
X183682145Y-89649106D01*
X183632924Y-89885934D01*
X183559340Y-90151756D01*
X183463118Y-90442224D01*
X183345984Y-90752994D01*
X183209664Y-91079719D01*
X183055883Y-91418053D01*
X182886366Y-91763652D01*
X182707453Y-92103698D01*
X182656852Y-92198196D01*
X182615301Y-92278680D01*
X182586221Y-92338295D01*
X182573034Y-92370184D01*
X182572823Y-92373545D01*
X182593642Y-92367739D01*
X182646370Y-92346696D01*
X182724585Y-92313154D01*
X182821870Y-92269852D01*
X182907069Y-92230965D01*
X183215723Y-92092713D01*
X183499645Y-91973865D01*
X183755694Y-91875667D01*
X183980728Y-91799362D01*
X184046922Y-91779409D01*
X184142031Y-91752466D01*
X184221151Y-91731396D01*
X184276158Y-91718269D01*
X184298925Y-91715152D01*
X184299007Y-91715217D01*
X184290093Y-91734225D01*
X184261382Y-91784693D01*
X184215529Y-91862195D01*
X184155192Y-91962303D01*
X184083026Y-92080590D01*
X184001687Y-92212629D01*
X183966862Y-92268813D01*
X183881352Y-92406543D01*
X183802610Y-92533405D01*
X183733535Y-92644726D01*
X183677027Y-92735830D01*
X183635984Y-92802045D01*
X183613308Y-92838697D01*
X183610157Y-92843822D01*
X183578938Y-92861923D01*
X183512557Y-92878932D01*
X183418183Y-92894313D01*
X183302983Y-92907531D01*
X183174125Y-92918050D01*
X183038778Y-92925334D01*
X182904109Y-92928847D01*
X182777286Y-92928053D01*
X182665478Y-92922417D01*
X182619583Y-92917874D01*
X182418942Y-92887656D01*
X182211558Y-92845579D01*
X182017234Y-92795897D01*
X181934880Y-92770751D01*
X181846134Y-92738664D01*
X181740789Y-92695618D01*
X181626589Y-92645344D01*
X181511278Y-92591574D01*
X181402599Y-92538038D01*
X181308296Y-92488467D01*
X181236113Y-92446593D01*
X181193794Y-92416146D01*
X181189455Y-92411589D01*
X181190034Y-92391512D01*
X181206688Y-92347987D01*
X181240080Y-92279901D01*
X181290870Y-92186146D01*
X181359720Y-92065611D01*
X181447290Y-91917186D01*
X181554241Y-91739760D01*
X181681236Y-91532224D01*
X181828934Y-91293466D01*
X181997998Y-91022378D01*
X182189088Y-90717847D01*
X182352457Y-90458598D01*
X182505573Y-90216846D01*
X182638790Y-90008626D01*
X182754105Y-89831238D01*
X182853513Y-89681984D01*
X182939014Y-89558165D01*
X183012603Y-89457081D01*
X183076278Y-89376033D01*
X183132035Y-89312323D01*
X183181872Y-89263252D01*
X183227786Y-89226120D01*
X183271774Y-89198229D01*
X183293277Y-89187095D01*
X183402557Y-89147852D01*
X183495062Y-89145716D01*
X183575122Y-89181097D01*
G37*
X183575122Y-89181097D02*
X183616365Y-89217695D01*
X183663761Y-89278275D01*
X183692402Y-89344565D01*
X183703637Y-89425413D01*
X183698814Y-89529669D01*
X183682145Y-89649106D01*
X183632924Y-89885934D01*
X183559340Y-90151756D01*
X183463118Y-90442224D01*
X183345984Y-90752994D01*
X183209664Y-91079719D01*
X183055883Y-91418053D01*
X182886366Y-91763652D01*
X182707453Y-92103698D01*
X182656852Y-92198196D01*
X182615301Y-92278680D01*
X182586221Y-92338295D01*
X182573034Y-92370184D01*
X182572823Y-92373545D01*
X182593642Y-92367739D01*
X182646370Y-92346696D01*
X182724585Y-92313154D01*
X182821870Y-92269852D01*
X182907069Y-92230965D01*
X183215723Y-92092713D01*
X183499645Y-91973865D01*
X183755694Y-91875667D01*
X183980728Y-91799362D01*
X184046922Y-91779409D01*
X184142031Y-91752466D01*
X184221151Y-91731396D01*
X184276158Y-91718269D01*
X184298925Y-91715152D01*
X184299007Y-91715217D01*
X184290093Y-91734225D01*
X184261382Y-91784693D01*
X184215529Y-91862195D01*
X184155192Y-91962303D01*
X184083026Y-92080590D01*
X184001687Y-92212629D01*
X183966862Y-92268813D01*
X183881352Y-92406543D01*
X183802610Y-92533405D01*
X183733535Y-92644726D01*
X183677027Y-92735830D01*
X183635984Y-92802045D01*
X183613308Y-92838697D01*
X183610157Y-92843822D01*
X183578938Y-92861923D01*
X183512557Y-92878932D01*
X183418183Y-92894313D01*
X183302983Y-92907531D01*
X183174125Y-92918050D01*
X183038778Y-92925334D01*
X182904109Y-92928847D01*
X182777286Y-92928053D01*
X182665478Y-92922417D01*
X182619583Y-92917874D01*
X182418942Y-92887656D01*
X182211558Y-92845579D01*
X182017234Y-92795897D01*
X181934880Y-92770751D01*
X181846134Y-92738664D01*
X181740789Y-92695618D01*
X181626589Y-92645344D01*
X181511278Y-92591574D01*
X181402599Y-92538038D01*
X181308296Y-92488467D01*
X181236113Y-92446593D01*
X181193794Y-92416146D01*
X181189455Y-92411589D01*
X181190034Y-92391512D01*
X181206688Y-92347987D01*
X181240080Y-92279901D01*
X181290870Y-92186146D01*
X181359720Y-92065611D01*
X181447290Y-91917186D01*
X181554241Y-91739760D01*
X181681236Y-91532224D01*
X181828934Y-91293466D01*
X181997998Y-91022378D01*
X182189088Y-90717847D01*
X182352457Y-90458598D01*
X182505573Y-90216846D01*
X182638790Y-90008626D01*
X182754105Y-89831238D01*
X182853513Y-89681984D01*
X182939014Y-89558165D01*
X183012603Y-89457081D01*
X183076278Y-89376033D01*
X183132035Y-89312323D01*
X183181872Y-89263252D01*
X183227786Y-89226120D01*
X183271774Y-89198229D01*
X183293277Y-89187095D01*
X183402557Y-89147852D01*
X183495062Y-89145716D01*
X183575122Y-89181097D01*
G36*
X180474356Y-85259628D02*
G01*
X180481727Y-85293511D01*
X180453299Y-85349978D01*
X180389072Y-85429026D01*
X180385047Y-85433433D01*
X180179312Y-85681817D01*
X179982973Y-85966692D01*
X179798984Y-86282712D01*
X179630299Y-86624527D01*
X179479871Y-86986791D01*
X179394370Y-87227417D01*
X179276287Y-87617327D01*
X179187725Y-87991579D01*
X179126411Y-88362467D01*
X179090071Y-88742282D01*
X179081211Y-88920750D01*
X179079900Y-89295605D01*
X179105598Y-89646220D01*
X179160177Y-89979839D01*
X179245512Y-90303707D01*
X179363473Y-90625069D01*
X179515934Y-90951169D01*
X179684859Y-91255818D01*
X179923246Y-91623001D01*
X180182748Y-91954885D01*
X180462712Y-92250907D01*
X180762490Y-92510507D01*
X181081431Y-92733121D01*
X181418885Y-92918189D01*
X181774201Y-93065149D01*
X181782418Y-93068021D01*
X182057514Y-93148970D01*
X182352864Y-93209331D01*
X182654623Y-93247247D01*
X182948943Y-93260862D01*
X183164625Y-93253404D01*
X183252134Y-93247260D01*
X183321236Y-93243368D01*
X183362902Y-93242181D01*
X183371000Y-93243036D01*
X183361314Y-93262311D01*
X183334197Y-93313318D01*
X183292557Y-93390665D01*
X183239302Y-93488956D01*
X183177342Y-93602799D01*
X183148142Y-93656298D01*
X183080300Y-93782646D01*
X183017796Y-93903103D01*
X182964202Y-94010463D01*
X182923092Y-94097518D01*
X182898038Y-94157059D01*
X182894142Y-94168633D01*
X182863972Y-94341659D01*
X182873301Y-94518307D01*
X182920297Y-94693032D01*
X183003130Y-94860285D01*
X183119971Y-95014519D01*
X183198992Y-95092617D01*
X183283684Y-95162133D01*
X183372965Y-95221730D01*
X183470785Y-95272230D01*
X183581093Y-95314454D01*
X183707840Y-95349225D01*
X183854976Y-95377365D01*
X184026450Y-95399697D01*
X184226214Y-95417042D01*
X184458216Y-95430224D01*
X184726408Y-95440063D01*
X184888463Y-95444295D01*
X185070190Y-95448138D01*
X185214262Y-95449778D01*
X185325334Y-95448458D01*
X185408061Y-95443423D01*
X185467096Y-95433917D01*
X185507093Y-95419183D01*
X185532708Y-95398467D01*
X185548593Y-95371010D01*
X185559404Y-95336059D01*
X185559599Y-95335283D01*
X185559158Y-95271545D01*
X185534036Y-95207811D01*
X185492522Y-95160038D01*
X185460823Y-95145135D01*
X185425694Y-95141498D01*
X185355556Y-95137126D01*
X185257720Y-95132372D01*
X185139495Y-95127585D01*
X185008193Y-95123117D01*
X184990250Y-95122569D01*
X184751161Y-95113966D01*
X184523086Y-95103056D01*
X184312405Y-95090267D01*
X184125499Y-95076029D01*
X183968748Y-95060771D01*
X183857833Y-95046383D01*
X183684647Y-95002793D01*
X183531361Y-94930755D01*
X183402131Y-94834337D01*
X183301114Y-94717606D01*
X183232466Y-94584631D01*
X183200343Y-94439478D01*
X183198498Y-94401156D01*
X183199329Y-94349572D01*
X183205293Y-94302934D01*
X183219341Y-94252921D01*
X183244424Y-94191215D01*
X183283493Y-94109494D01*
X183339500Y-93999438D01*
X183344282Y-93990167D01*
X183445121Y-93800764D01*
X183568405Y-93579637D01*
X183712365Y-93329785D01*
X183875231Y-93054210D01*
X184055235Y-92755911D01*
X184250607Y-92437888D01*
X184417691Y-92169833D01*
X184598836Y-91881075D01*
X184759075Y-91625953D01*
X184899953Y-91402210D01*
X185023012Y-91207591D01*
X185129798Y-91039841D01*
X185221852Y-90896705D01*
X185300721Y-90775927D01*
X185367946Y-90675251D01*
X185425072Y-90592423D01*
X185473643Y-90525187D01*
X185515202Y-90471287D01*
X185551294Y-90428468D01*
X185583462Y-90394475D01*
X185613249Y-90367052D01*
X185642201Y-90343943D01*
X185671860Y-90322894D01*
X185690385Y-90310482D01*
X185806351Y-90249775D01*
X185910377Y-90228370D01*
X186000944Y-90246045D01*
X186076530Y-90302575D01*
X186124411Y-90374086D01*
X186149008Y-90429829D01*
X186160546Y-90483104D01*
X186161225Y-90550332D01*
X186156497Y-90613597D01*
X186129691Y-90798381D01*
X186080858Y-91013757D01*
X186011712Y-91255266D01*
X185923961Y-91518447D01*
X185819319Y-91798841D01*
X185699495Y-92091986D01*
X185566201Y-92393422D01*
X185421147Y-92698691D01*
X185266045Y-93003331D01*
X185174130Y-93174377D01*
X185121886Y-93271100D01*
X185078605Y-93353945D01*
X185047656Y-93416243D01*
X185032408Y-93451323D01*
X185031600Y-93456489D01*
X185052256Y-93450401D01*
X185105791Y-93429022D01*
X185186619Y-93394738D01*
X185289154Y-93349941D01*
X185407812Y-93297019D01*
X185468328Y-93269670D01*
X185769396Y-93136709D01*
X186040183Y-93025358D01*
X186285859Y-92934087D01*
X186511596Y-92861371D01*
X186722562Y-92805681D01*
X186923929Y-92765490D01*
X187120866Y-92739269D01*
X187308667Y-92725903D01*
X187522713Y-92724602D01*
X187709366Y-92742078D01*
X187880142Y-92780427D01*
X188046556Y-92841745D01*
X188112333Y-92872129D01*
X188294609Y-92983550D01*
X188457223Y-93128846D01*
X188598240Y-93303449D01*
X188715720Y-93502789D01*
X188807727Y-93722298D01*
X188872322Y-93957405D01*
X188907570Y-94203542D01*
X188911531Y-94456139D01*
X188885133Y-94694617D01*
X188820977Y-94955290D01*
X188720227Y-95220970D01*
X188586708Y-95484093D01*
X188424251Y-95737095D01*
X188240848Y-95967707D01*
X188165542Y-96057325D01*
X188119078Y-96125661D01*
X188098707Y-96179616D01*
X188101680Y-96226088D01*
X188121703Y-96266701D01*
X188181849Y-96330169D01*
X188251182Y-96354006D01*
X188323558Y-96337989D01*
X188381508Y-96296876D01*
X188455007Y-96224750D01*
X188539401Y-96127800D01*
X188630033Y-96012213D01*
X188722249Y-95884178D01*
X188811394Y-95749882D01*
X188892811Y-95615514D01*
X188958411Y-95494128D01*
X189090045Y-95190091D01*
X189181230Y-94883444D01*
X189231792Y-94576380D01*
X189241560Y-94271090D01*
X189210360Y-93969769D01*
X189138022Y-93674607D01*
X189108242Y-93587506D01*
X189049184Y-93425683D01*
X189189300Y-93365678D01*
X189264843Y-93331498D01*
X189364306Y-93283936D01*
X189474251Y-93229525D01*
X189572248Y-93179482D01*
X189992661Y-92943050D01*
X190386565Y-92683834D01*
X190755214Y-92400207D01*
X191099864Y-92090545D01*
X191421771Y-91753223D01*
X191722191Y-91386615D01*
X192002379Y-90989098D01*
X192263591Y-90559047D01*
X192507083Y-90094835D01*
X192734110Y-89594840D01*
X192945928Y-89057434D01*
X193100540Y-88613833D01*
X193142186Y-88487857D01*
X193179570Y-88374778D01*
X193210558Y-88281052D01*
X193233013Y-88213136D01*
X193244803Y-88177487D01*
X193245775Y-88174549D01*
X193265359Y-88174290D01*
X193312175Y-88200836D01*
X193382627Y-88251981D01*
X193419240Y-88280944D01*
X193630762Y-88436067D01*
X193854742Y-88571852D01*
X194081221Y-88683028D01*
X194300240Y-88764328D01*
X194369945Y-88783898D01*
X194447303Y-88804405D01*
X194507094Y-88821611D01*
X194538883Y-88832475D01*
X194541250Y-88833861D01*
X194540833Y-88856469D01*
X194534354Y-88913624D01*
X194522780Y-88998126D01*
X194507074Y-89102776D01*
X194495174Y-89177771D01*
X194357242Y-89934587D01*
X194193939Y-90657878D01*
X194005295Y-91347598D01*
X193791341Y-92003699D01*
X193552108Y-92626137D01*
X193287628Y-93214863D01*
X192997931Y-93769831D01*
X192683047Y-94290996D01*
X192343008Y-94778310D01*
X191977845Y-95231727D01*
X191587588Y-95651200D01*
X191172269Y-96036684D01*
X190731917Y-96388131D01*
X190266565Y-96705495D01*
X189776243Y-96988729D01*
X189260982Y-97237788D01*
X189096583Y-97307887D01*
X188621663Y-97487003D01*
X188127820Y-97638995D01*
X187610848Y-97764894D01*
X187066541Y-97865733D01*
X186524833Y-97938748D01*
X186435033Y-97946567D01*
X186311321Y-97954047D01*
X186160410Y-97961049D01*
X185989013Y-97967432D01*
X185803843Y-97973056D01*
X185611614Y-97977781D01*
X185419037Y-97981466D01*
X185232828Y-97983970D01*
X185059697Y-97985155D01*
X184906359Y-97984879D01*
X184779527Y-97983002D01*
X184685913Y-97979383D01*
X184662167Y-97977673D01*
X184231174Y-97934243D01*
X183833645Y-97880656D01*
X183461599Y-97815400D01*
X183107058Y-97736961D01*
X182762043Y-97643823D01*
X182539854Y-97574926D01*
X182002704Y-97378458D01*
X181486915Y-97145915D01*
X180993654Y-96878132D01*
X180524088Y-96575942D01*
X180079386Y-96240180D01*
X179660714Y-95871678D01*
X179269241Y-95471272D01*
X178906133Y-95039795D01*
X178804912Y-94907108D01*
X178477640Y-94434014D01*
X178188338Y-93943634D01*
X177937587Y-93437348D01*
X177725967Y-92916538D01*
X177554060Y-92382584D01*
X177422444Y-91836867D01*
X177356403Y-91460750D01*
X177346877Y-91370745D01*
X177339260Y-91245790D01*
X177333553Y-91093224D01*
X177329759Y-90920389D01*
X177327879Y-90734624D01*
X177327914Y-90543269D01*
X177329868Y-90353664D01*
X177333740Y-90173150D01*
X177339534Y-90009066D01*
X177347251Y-89868753D01*
X177356000Y-89767417D01*
X177429054Y-89241200D01*
X177528722Y-88746611D01*
X177655763Y-88281756D01*
X177810938Y-87844742D01*
X177995003Y-87433676D01*
X178208719Y-87046665D01*
X178452845Y-86681816D01*
X178728140Y-86337235D01*
X178734149Y-86330331D01*
X178893629Y-86163410D01*
X179082444Y-85992140D01*
X179289601Y-85825044D01*
X179504106Y-85670647D01*
X179714966Y-85537471D01*
X179855179Y-85461105D01*
X179947237Y-85417801D01*
X180052135Y-85373148D01*
X180160503Y-85330609D01*
X180262969Y-85293644D01*
X180350163Y-85265716D01*
X180412715Y-85250285D01*
X180431184Y-85248333D01*
X180474356Y-85259628D01*
G37*
X180474356Y-85259628D02*
X180481727Y-85293511D01*
X180453299Y-85349978D01*
X180389072Y-85429026D01*
X180385047Y-85433433D01*
X180179312Y-85681817D01*
X179982973Y-85966692D01*
X179798984Y-86282712D01*
X179630299Y-86624527D01*
X179479871Y-86986791D01*
X179394370Y-87227417D01*
X179276287Y-87617327D01*
X179187725Y-87991579D01*
X179126411Y-88362467D01*
X179090071Y-88742282D01*
X179081211Y-88920750D01*
X179079900Y-89295605D01*
X179105598Y-89646220D01*
X179160177Y-89979839D01*
X179245512Y-90303707D01*
X179363473Y-90625069D01*
X179515934Y-90951169D01*
X179684859Y-91255818D01*
X179923246Y-91623001D01*
X180182748Y-91954885D01*
X180462712Y-92250907D01*
X180762490Y-92510507D01*
X181081431Y-92733121D01*
X181418885Y-92918189D01*
X181774201Y-93065149D01*
X181782418Y-93068021D01*
X182057514Y-93148970D01*
X182352864Y-93209331D01*
X182654623Y-93247247D01*
X182948943Y-93260862D01*
X183164625Y-93253404D01*
X183252134Y-93247260D01*
X183321236Y-93243368D01*
X183362902Y-93242181D01*
X183371000Y-93243036D01*
X183361314Y-93262311D01*
X183334197Y-93313318D01*
X183292557Y-93390665D01*
X183239302Y-93488956D01*
X183177342Y-93602799D01*
X183148142Y-93656298D01*
X183080300Y-93782646D01*
X183017796Y-93903103D01*
X182964202Y-94010463D01*
X182923092Y-94097518D01*
X182898038Y-94157059D01*
X182894142Y-94168633D01*
X182863972Y-94341659D01*
X182873301Y-94518307D01*
X182920297Y-94693032D01*
X183003130Y-94860285D01*
X183119971Y-95014519D01*
X183198992Y-95092617D01*
X183283684Y-95162133D01*
X183372965Y-95221730D01*
X183470785Y-95272230D01*
X183581093Y-95314454D01*
X183707840Y-95349225D01*
X183854976Y-95377365D01*
X184026450Y-95399697D01*
X184226214Y-95417042D01*
X184458216Y-95430224D01*
X184726408Y-95440063D01*
X184888463Y-95444295D01*
X185070190Y-95448138D01*
X185214262Y-95449778D01*
X185325334Y-95448458D01*
X185408061Y-95443423D01*
X185467096Y-95433917D01*
X185507093Y-95419183D01*
X185532708Y-95398467D01*
X185548593Y-95371010D01*
X185559404Y-95336059D01*
X185559599Y-95335283D01*
X185559158Y-95271545D01*
X185534036Y-95207811D01*
X185492522Y-95160038D01*
X185460823Y-95145135D01*
X185425694Y-95141498D01*
X185355556Y-95137126D01*
X185257720Y-95132372D01*
X185139495Y-95127585D01*
X185008193Y-95123117D01*
X184990250Y-95122569D01*
X184751161Y-95113966D01*
X184523086Y-95103056D01*
X184312405Y-95090267D01*
X184125499Y-95076029D01*
X183968748Y-95060771D01*
X183857833Y-95046383D01*
X183684647Y-95002793D01*
X183531361Y-94930755D01*
X183402131Y-94834337D01*
X183301114Y-94717606D01*
X183232466Y-94584631D01*
X183200343Y-94439478D01*
X183198498Y-94401156D01*
X183199329Y-94349572D01*
X183205293Y-94302934D01*
X183219341Y-94252921D01*
X183244424Y-94191215D01*
X183283493Y-94109494D01*
X183339500Y-93999438D01*
X183344282Y-93990167D01*
X183445121Y-93800764D01*
X183568405Y-93579637D01*
X183712365Y-93329785D01*
X183875231Y-93054210D01*
X184055235Y-92755911D01*
X184250607Y-92437888D01*
X184417691Y-92169833D01*
X184598836Y-91881075D01*
X184759075Y-91625953D01*
X184899953Y-91402210D01*
X185023012Y-91207591D01*
X185129798Y-91039841D01*
X185221852Y-90896705D01*
X185300721Y-90775927D01*
X185367946Y-90675251D01*
X185425072Y-90592423D01*
X185473643Y-90525187D01*
X185515202Y-90471287D01*
X185551294Y-90428468D01*
X185583462Y-90394475D01*
X185613249Y-90367052D01*
X185642201Y-90343943D01*
X185671860Y-90322894D01*
X185690385Y-90310482D01*
X185806351Y-90249775D01*
X185910377Y-90228370D01*
X186000944Y-90246045D01*
X186076530Y-90302575D01*
X186124411Y-90374086D01*
X186149008Y-90429829D01*
X186160546Y-90483104D01*
X186161225Y-90550332D01*
X186156497Y-90613597D01*
X186129691Y-90798381D01*
X186080858Y-91013757D01*
X186011712Y-91255266D01*
X185923961Y-91518447D01*
X185819319Y-91798841D01*
X185699495Y-92091986D01*
X185566201Y-92393422D01*
X185421147Y-92698691D01*
X185266045Y-93003331D01*
X185174130Y-93174377D01*
X185121886Y-93271100D01*
X185078605Y-93353945D01*
X185047656Y-93416243D01*
X185032408Y-93451323D01*
X185031600Y-93456489D01*
X185052256Y-93450401D01*
X185105791Y-93429022D01*
X185186619Y-93394738D01*
X185289154Y-93349941D01*
X185407812Y-93297019D01*
X185468328Y-93269670D01*
X185769396Y-93136709D01*
X186040183Y-93025358D01*
X186285859Y-92934087D01*
X186511596Y-92861371D01*
X186722562Y-92805681D01*
X186923929Y-92765490D01*
X187120866Y-92739269D01*
X187308667Y-92725903D01*
X187522713Y-92724602D01*
X187709366Y-92742078D01*
X187880142Y-92780427D01*
X188046556Y-92841745D01*
X188112333Y-92872129D01*
X188294609Y-92983550D01*
X188457223Y-93128846D01*
X188598240Y-93303449D01*
X188715720Y-93502789D01*
X188807727Y-93722298D01*
X188872322Y-93957405D01*
X188907570Y-94203542D01*
X188911531Y-94456139D01*
X188885133Y-94694617D01*
X188820977Y-94955290D01*
X188720227Y-95220970D01*
X188586708Y-95484093D01*
X188424251Y-95737095D01*
X188240848Y-95967707D01*
X188165542Y-96057325D01*
X188119078Y-96125661D01*
X188098707Y-96179616D01*
X188101680Y-96226088D01*
X188121703Y-96266701D01*
X188181849Y-96330169D01*
X188251182Y-96354006D01*
X188323558Y-96337989D01*
X188381508Y-96296876D01*
X188455007Y-96224750D01*
X188539401Y-96127800D01*
X188630033Y-96012213D01*
X188722249Y-95884178D01*
X188811394Y-95749882D01*
X188892811Y-95615514D01*
X188958411Y-95494128D01*
X189090045Y-95190091D01*
X189181230Y-94883444D01*
X189231792Y-94576380D01*
X189241560Y-94271090D01*
X189210360Y-93969769D01*
X189138022Y-93674607D01*
X189108242Y-93587506D01*
X189049184Y-93425683D01*
X189189300Y-93365678D01*
X189264843Y-93331498D01*
X189364306Y-93283936D01*
X189474251Y-93229525D01*
X189572248Y-93179482D01*
X189992661Y-92943050D01*
X190386565Y-92683834D01*
X190755214Y-92400207D01*
X191099864Y-92090545D01*
X191421771Y-91753223D01*
X191722191Y-91386615D01*
X192002379Y-90989098D01*
X192263591Y-90559047D01*
X192507083Y-90094835D01*
X192734110Y-89594840D01*
X192945928Y-89057434D01*
X193100540Y-88613833D01*
X193142186Y-88487857D01*
X193179570Y-88374778D01*
X193210558Y-88281052D01*
X193233013Y-88213136D01*
X193244803Y-88177487D01*
X193245775Y-88174549D01*
X193265359Y-88174290D01*
X193312175Y-88200836D01*
X193382627Y-88251981D01*
X193419240Y-88280944D01*
X193630762Y-88436067D01*
X193854742Y-88571852D01*
X194081221Y-88683028D01*
X194300240Y-88764328D01*
X194369945Y-88783898D01*
X194447303Y-88804405D01*
X194507094Y-88821611D01*
X194538883Y-88832475D01*
X194541250Y-88833861D01*
X194540833Y-88856469D01*
X194534354Y-88913624D01*
X194522780Y-88998126D01*
X194507074Y-89102776D01*
X194495174Y-89177771D01*
X194357242Y-89934587D01*
X194193939Y-90657878D01*
X194005295Y-91347598D01*
X193791341Y-92003699D01*
X193552108Y-92626137D01*
X193287628Y-93214863D01*
X192997931Y-93769831D01*
X192683047Y-94290996D01*
X192343008Y-94778310D01*
X191977845Y-95231727D01*
X191587588Y-95651200D01*
X191172269Y-96036684D01*
X190731917Y-96388131D01*
X190266565Y-96705495D01*
X189776243Y-96988729D01*
X189260982Y-97237788D01*
X189096583Y-97307887D01*
X188621663Y-97487003D01*
X188127820Y-97638995D01*
X187610848Y-97764894D01*
X187066541Y-97865733D01*
X186524833Y-97938748D01*
X186435033Y-97946567D01*
X186311321Y-97954047D01*
X186160410Y-97961049D01*
X185989013Y-97967432D01*
X185803843Y-97973056D01*
X185611614Y-97977781D01*
X185419037Y-97981466D01*
X185232828Y-97983970D01*
X185059697Y-97985155D01*
X184906359Y-97984879D01*
X184779527Y-97983002D01*
X184685913Y-97979383D01*
X184662167Y-97977673D01*
X184231174Y-97934243D01*
X183833645Y-97880656D01*
X183461599Y-97815400D01*
X183107058Y-97736961D01*
X182762043Y-97643823D01*
X182539854Y-97574926D01*
X182002704Y-97378458D01*
X181486915Y-97145915D01*
X180993654Y-96878132D01*
X180524088Y-96575942D01*
X180079386Y-96240180D01*
X179660714Y-95871678D01*
X179269241Y-95471272D01*
X178906133Y-95039795D01*
X178804912Y-94907108D01*
X178477640Y-94434014D01*
X178188338Y-93943634D01*
X177937587Y-93437348D01*
X177725967Y-92916538D01*
X177554060Y-92382584D01*
X177422444Y-91836867D01*
X177356403Y-91460750D01*
X177346877Y-91370745D01*
X177339260Y-91245790D01*
X177333553Y-91093224D01*
X177329759Y-90920389D01*
X177327879Y-90734624D01*
X177327914Y-90543269D01*
X177329868Y-90353664D01*
X177333740Y-90173150D01*
X177339534Y-90009066D01*
X177347251Y-89868753D01*
X177356000Y-89767417D01*
X177429054Y-89241200D01*
X177528722Y-88746611D01*
X177655763Y-88281756D01*
X177810938Y-87844742D01*
X177995003Y-87433676D01*
X178208719Y-87046665D01*
X178452845Y-86681816D01*
X178728140Y-86337235D01*
X178734149Y-86330331D01*
X178893629Y-86163410D01*
X179082444Y-85992140D01*
X179289601Y-85825044D01*
X179504106Y-85670647D01*
X179714966Y-85537471D01*
X179855179Y-85461105D01*
X179947237Y-85417801D01*
X180052135Y-85373148D01*
X180160503Y-85330609D01*
X180262969Y-85293644D01*
X180350163Y-85265716D01*
X180412715Y-85250285D01*
X180431184Y-85248333D01*
X180474356Y-85259628D01*
M02*
