G04 #@! TF.GenerationSoftware,KiCad,Pcbnew,5.1.5+dfsg1-2build2*
G04 #@! TF.CreationDate,2021-03-02T22:15:09+01:00*
G04 #@! TF.ProjectId,front,66726f6e-742e-46b6-9963-61645f706362,rev?*
G04 #@! TF.SameCoordinates,Original*
G04 #@! TF.FileFunction,Profile,NP*
%FSLAX46Y46*%
G04 Gerber Fmt 4.6, Leading zero omitted, Abs format (unit mm)*
G04 Created by KiCad (PCBNEW 5.1.5+dfsg1-2build2) date 2021-03-02 22:15:09*
%MOMM*%
%LPD*%
G04 APERTURE LIST*
%ADD10C,0.050000*%
G04 APERTURE END LIST*
D10*
X103950001Y-71950000D02*
G75*
G02X104450000Y-71450001I499999J0D01*
G01*
X104450000Y-84450000D02*
G75*
G02X103950000Y-83950000I0J500000D01*
G01*
X104450000Y-84450000D02*
X126950000Y-84450000D01*
X104450000Y-71450001D02*
X126950000Y-71450000D01*
X103950000Y-83950000D02*
X103950001Y-71950000D01*
X172750000Y-70000000D02*
G75*
G02X172250000Y-69500000I0J500000D01*
G01*
X172250001Y-68400000D02*
G75*
G02X172750000Y-67900001I499999J0D01*
G01*
X186850000Y-67900001D02*
G75*
G02X187349999Y-68400000I0J-499999D01*
G01*
X187349999Y-69500000D02*
G75*
G02X186850000Y-69999999I-499999J0D01*
G01*
X148050000Y-71450001D02*
G75*
G02X148549999Y-71950000I0J-499999D01*
G01*
X148549999Y-83950000D02*
G75*
G02X148050000Y-84449999I-499999J0D01*
G01*
X167350000Y-71450001D02*
G75*
G02X167849999Y-71950000I0J-499999D01*
G01*
X167849999Y-84950000D02*
G75*
G02X167350000Y-85449999I-499999J0D01*
G01*
X151350001Y-71950000D02*
G75*
G02X151850000Y-71450001I499999J0D01*
G01*
X151850000Y-85450000D02*
G75*
G02X151350000Y-84950000I0J500000D01*
G01*
X172250001Y-68400000D02*
X172250000Y-69500000D01*
X186850000Y-67900001D02*
X172750000Y-67900001D01*
X187350000Y-69500000D02*
X187349999Y-68400000D01*
X172750000Y-70000000D02*
X186850000Y-69999999D01*
X160650000Y-69300000D02*
G75*
G03X160650000Y-69300000I-1100000J0D01*
G01*
X194100000Y-73900000D02*
G75*
G03X194100000Y-73900000I-2600000J0D01*
G01*
X181850000Y-75000000D02*
X175450000Y-75000000D01*
X175450000Y-71600000D02*
X181850000Y-71600000D01*
X174100000Y-72950000D02*
G75*
G02X175450000Y-71600000I1350000J0D01*
G01*
X175450000Y-75000000D02*
G75*
G02X174100000Y-73650000I0J1350000D01*
G01*
X174100000Y-72950000D02*
X174100000Y-73650000D01*
X183200000Y-73650000D02*
G75*
G02X181850000Y-75000000I-1350000J0D01*
G01*
X181850000Y-71600000D02*
G75*
G02X183200000Y-72950000I0J-1350000D01*
G01*
X183200000Y-73650000D02*
X183200000Y-72950000D01*
X151350001Y-71950000D02*
X151350000Y-84950000D01*
X167350000Y-71450001D02*
X151850000Y-71450000D01*
X167850000Y-84950000D02*
X167849999Y-71950000D01*
X151850000Y-85450000D02*
X167350000Y-85449999D01*
X126950000Y-84450000D02*
X148050000Y-84450000D01*
X148550000Y-83950000D02*
X148550000Y-71950000D01*
X126950000Y-71450001D02*
X148050000Y-71450001D01*
X200000000Y-98000000D02*
X200000001Y-59000000D01*
X197581139Y-96750000D02*
G75*
G03X197581139Y-96750000I-1581139J0D01*
G01*
X105581140Y-60250000D02*
G75*
G03X105581140Y-60250000I-1581140J0D01*
G01*
X198000000Y-57000000D02*
X102000000Y-57000000D01*
X102000000Y-57000000D02*
X100000000Y-59000000D01*
X198000000Y-56999999D02*
X200000001Y-59000000D01*
X102000000Y-100000000D02*
X100000000Y-98000000D01*
X102000000Y-100000000D02*
X198000000Y-100000000D01*
X100000000Y-59000000D02*
X100000000Y-98000000D01*
X197581139Y-60250000D02*
G75*
G03X197581139Y-60250000I-1581139J0D01*
G01*
X105581139Y-96750000D02*
G75*
G03X105581139Y-96750000I-1581139J0D01*
G01*
X200000000Y-98000000D02*
X198000000Y-100000000D01*
M02*
