G04 #@! TF.GenerationSoftware,KiCad,Pcbnew,5.1.5+dfsg1-2build2*
G04 #@! TF.CreationDate,2021-03-02T22:15:09+01:00*
G04 #@! TF.ProjectId,front,66726f6e-742e-46b6-9963-61645f706362,rev?*
G04 #@! TF.SameCoordinates,Original*
G04 #@! TF.FileFunction,Soldermask,Top*
G04 #@! TF.FilePolarity,Negative*
%FSLAX46Y46*%
G04 Gerber Fmt 4.6, Leading zero omitted, Abs format (unit mm)*
G04 Created by KiCad (PCBNEW 5.1.5+dfsg1-2build2) date 2021-03-02 22:15:09*
%MOMM*%
%LPD*%
G04 APERTURE LIST*
%ADD10C,0.010000*%
G04 APERTURE END LIST*
D10*
G36*
X191798457Y-77678816D02*
G01*
X192301966Y-77713505D01*
X192795026Y-77780681D01*
X193274802Y-77879384D01*
X193738456Y-78008653D01*
X194183155Y-78167526D01*
X194606062Y-78355043D01*
X195004342Y-78570243D01*
X195375159Y-78812165D01*
X195715677Y-79079848D01*
X195887683Y-79236423D01*
X196155691Y-79517771D01*
X196382607Y-79808272D01*
X196568880Y-80108915D01*
X196714958Y-80420693D01*
X196821290Y-80744598D01*
X196888324Y-81081622D01*
X196916508Y-81432755D01*
X196917542Y-81514780D01*
X196918306Y-81626053D01*
X196921710Y-81706502D01*
X196929613Y-81767627D01*
X196943874Y-81820931D01*
X196966352Y-81877915D01*
X196981861Y-81912721D01*
X197078311Y-82168286D01*
X197143326Y-82435663D01*
X197177845Y-82710102D01*
X197182810Y-82986852D01*
X197159162Y-83261164D01*
X197107844Y-83528288D01*
X197029796Y-83783475D01*
X196925960Y-84021973D01*
X196797278Y-84239034D01*
X196644690Y-84429908D01*
X196469138Y-84589844D01*
X196448138Y-84605585D01*
X196387696Y-84656865D01*
X196352252Y-84701576D01*
X196346167Y-84721200D01*
X196333352Y-84780731D01*
X196299275Y-84859456D01*
X196250483Y-84944654D01*
X196193526Y-85023603D01*
X196185673Y-85032966D01*
X196124217Y-85090805D01*
X196044560Y-85147976D01*
X195991080Y-85178251D01*
X195933080Y-85204944D01*
X195881742Y-85222198D01*
X195825082Y-85232012D01*
X195751119Y-85236385D01*
X195647869Y-85237316D01*
X195637083Y-85237300D01*
X195528775Y-85235960D01*
X195451652Y-85231301D01*
X195394599Y-85221628D01*
X195346499Y-85205242D01*
X195309000Y-85187208D01*
X195246190Y-85152134D01*
X195195297Y-85119675D01*
X195179851Y-85107847D01*
X195162476Y-85096779D01*
X195150865Y-85105073D01*
X195142570Y-85139548D01*
X195135142Y-85207023D01*
X195132226Y-85240507D01*
X195127856Y-85314146D01*
X195124061Y-85420020D01*
X195121078Y-85548032D01*
X195119146Y-85688086D01*
X195118500Y-85822722D01*
X195118500Y-86242557D01*
X195250792Y-86309259D01*
X195491877Y-86451477D01*
X195699817Y-86617894D01*
X195873439Y-86807296D01*
X196011573Y-87018470D01*
X196084086Y-87172521D01*
X196150035Y-87387728D01*
X196176390Y-87602756D01*
X196165092Y-87813391D01*
X196118082Y-88015418D01*
X196037303Y-88204621D01*
X195924697Y-88376786D01*
X195782205Y-88527698D01*
X195611770Y-88653143D01*
X195415333Y-88748905D01*
X195346816Y-88772744D01*
X195243455Y-88800959D01*
X195131474Y-88824693D01*
X195034814Y-88838882D01*
X195033344Y-88839020D01*
X194956278Y-88847047D01*
X194911446Y-88856524D01*
X194888896Y-88872450D01*
X194878677Y-88899826D01*
X194875237Y-88918461D01*
X194868418Y-88958808D01*
X194855847Y-89033546D01*
X194838759Y-89135310D01*
X194818391Y-89256739D01*
X194795979Y-89390469D01*
X194790330Y-89424195D01*
X194650278Y-90165885D01*
X194483571Y-90878373D01*
X194290465Y-91561096D01*
X194071219Y-92213493D01*
X193826090Y-92835003D01*
X193555336Y-93425065D01*
X193259215Y-93983115D01*
X192937984Y-94508593D01*
X192591901Y-95000938D01*
X192221224Y-95459588D01*
X191826345Y-95883845D01*
X191404391Y-96277126D01*
X190959764Y-96635590D01*
X190492072Y-96959412D01*
X190000923Y-97248768D01*
X189485925Y-97503833D01*
X188946686Y-97724782D01*
X188382815Y-97911791D01*
X187793920Y-98065036D01*
X187179608Y-98184690D01*
X186539487Y-98270931D01*
X186477344Y-98277390D01*
X186350446Y-98287763D01*
X186190774Y-98296931D01*
X186006122Y-98304767D01*
X185804283Y-98311148D01*
X185593052Y-98315947D01*
X185380221Y-98319041D01*
X185173586Y-98320303D01*
X184980939Y-98319608D01*
X184810075Y-98316832D01*
X184668787Y-98311850D01*
X184598667Y-98307537D01*
X183973249Y-98240242D01*
X183368627Y-98136309D01*
X182784950Y-97995783D01*
X182222366Y-97818710D01*
X181681023Y-97605136D01*
X181161071Y-97355107D01*
X180749280Y-97122005D01*
X180424764Y-96914508D01*
X180120767Y-96697090D01*
X179827511Y-96462014D01*
X179535216Y-96201541D01*
X179305685Y-95979833D01*
X178963791Y-95621536D01*
X178657274Y-95261141D01*
X178379716Y-94889807D01*
X178124701Y-94498694D01*
X177885812Y-94078959D01*
X177784864Y-93884333D01*
X177545209Y-93367828D01*
X177347664Y-92851047D01*
X177248869Y-92522425D01*
X186468203Y-92522425D01*
X186490210Y-92520702D01*
X186544941Y-92510999D01*
X186623892Y-92494943D01*
X186708869Y-92476353D01*
X187002002Y-92424213D01*
X187291655Y-92399499D01*
X187569587Y-92402354D01*
X187827556Y-92432921D01*
X187932417Y-92455137D01*
X188162375Y-92532179D01*
X188379631Y-92645613D01*
X188578383Y-92790748D01*
X188752830Y-92962897D01*
X188897173Y-93157370D01*
X188973742Y-93296958D01*
X189011472Y-93365600D01*
X189045595Y-93408397D01*
X189064873Y-93418667D01*
X189093404Y-93409498D01*
X189153208Y-93383957D01*
X189237892Y-93344994D01*
X189341061Y-93295557D01*
X189456322Y-93238594D01*
X189467765Y-93232850D01*
X189715315Y-93104450D01*
X189934771Y-92981331D01*
X190138383Y-92855960D01*
X190338403Y-92720803D01*
X190541331Y-92572658D01*
X190891182Y-92287645D01*
X191220108Y-91974534D01*
X191529030Y-91631896D01*
X191818868Y-91258304D01*
X192090543Y-90852328D01*
X192344974Y-90412542D01*
X192583083Y-89937517D01*
X192805788Y-89425826D01*
X193014010Y-88876040D01*
X193116059Y-88577078D01*
X193257230Y-88148740D01*
X193094812Y-87984412D01*
X192826364Y-87686510D01*
X192574180Y-87354214D01*
X192341502Y-86993412D01*
X192131570Y-86609988D01*
X191947623Y-86209830D01*
X191792903Y-85798823D01*
X191677479Y-85409669D01*
X191618205Y-85179421D01*
X191568739Y-85367335D01*
X191448416Y-85769999D01*
X191303315Y-86161385D01*
X191135661Y-86538204D01*
X190947681Y-86897165D01*
X190741599Y-87234977D01*
X190519642Y-87548351D01*
X190284035Y-87833996D01*
X190037004Y-88088621D01*
X189780774Y-88308937D01*
X189517572Y-88491654D01*
X189415091Y-88551146D01*
X189260245Y-88636130D01*
X189192402Y-88830413D01*
X189041376Y-89210607D01*
X188851941Y-89597879D01*
X188626468Y-89987952D01*
X188367330Y-90376553D01*
X188231786Y-90561167D01*
X188152170Y-90665321D01*
X188074517Y-90764306D01*
X187995614Y-90861739D01*
X187912251Y-90961235D01*
X187821215Y-91066411D01*
X187719294Y-91180883D01*
X187603277Y-91308268D01*
X187469951Y-91452181D01*
X187316105Y-91616238D01*
X187138526Y-91804057D01*
X186974737Y-91976457D01*
X186855824Y-92101801D01*
X186747025Y-92217203D01*
X186651592Y-92319158D01*
X186572777Y-92404162D01*
X186513832Y-92468709D01*
X186478007Y-92509295D01*
X186468203Y-92522425D01*
X177248869Y-92522425D01*
X177192270Y-92334160D01*
X177079070Y-91817335D01*
X177008107Y-91300740D01*
X176979422Y-90784544D01*
X176978753Y-90691215D01*
X176994732Y-90131714D01*
X177042007Y-89591609D01*
X177120000Y-89072184D01*
X177228133Y-88574726D01*
X177365827Y-88100518D01*
X177532504Y-87650846D01*
X177727587Y-87226996D01*
X177950498Y-86830252D01*
X178200657Y-86461900D01*
X178477488Y-86123225D01*
X178780412Y-85815511D01*
X179108852Y-85540045D01*
X179381790Y-85348771D01*
X179515723Y-85268173D01*
X179664041Y-85188804D01*
X179819398Y-85113727D01*
X179974445Y-85046003D01*
X180121834Y-84988694D01*
X180254219Y-84944864D01*
X180364251Y-84917573D01*
X180435428Y-84909666D01*
X180556619Y-84929660D01*
X180662809Y-84987491D01*
X180749282Y-85079929D01*
X180790871Y-85153083D01*
X180820064Y-85233678D01*
X180827764Y-85310175D01*
X180811763Y-85388684D01*
X180769858Y-85475315D01*
X180699842Y-85576177D01*
X180599510Y-85697380D01*
X180590803Y-85707345D01*
X180389554Y-85962132D01*
X180199690Y-86252328D01*
X180024074Y-86571878D01*
X179865565Y-86914724D01*
X179727024Y-87274809D01*
X179611314Y-87646077D01*
X179540796Y-87930206D01*
X179496043Y-88150054D01*
X179463161Y-88354591D01*
X179440237Y-88559632D01*
X179425358Y-88780996D01*
X179419284Y-88934979D01*
X179417727Y-89271200D01*
X179436417Y-89577841D01*
X179477354Y-89863524D01*
X179542541Y-90136868D01*
X179633980Y-90406494D01*
X179753672Y-90681023D01*
X179882904Y-90931583D01*
X180028731Y-91179402D01*
X180189800Y-91420685D01*
X180359954Y-91647349D01*
X180533034Y-91851315D01*
X180702885Y-92024499D01*
X180744388Y-92062275D01*
X180893748Y-92194693D01*
X180941198Y-92113472D01*
X181026090Y-91969914D01*
X181131610Y-91794428D01*
X181255491Y-91590691D01*
X181395470Y-91362385D01*
X181549282Y-91113188D01*
X181714661Y-90846782D01*
X181889342Y-90566846D01*
X182071061Y-90277061D01*
X182091371Y-90244759D01*
X182225239Y-90032231D01*
X182339205Y-89852209D01*
X182435658Y-89701208D01*
X182516992Y-89575747D01*
X182585595Y-89472344D01*
X182643860Y-89387515D01*
X182694178Y-89317779D01*
X182738939Y-89259652D01*
X182780535Y-89209653D01*
X182821357Y-89164298D01*
X182863000Y-89120916D01*
X182985922Y-89003623D01*
X183095023Y-88918541D01*
X183198244Y-88861571D01*
X183303527Y-88828611D01*
X183418811Y-88815562D01*
X183455667Y-88814917D01*
X183546702Y-88817448D01*
X183612320Y-88827559D01*
X183669266Y-88849026D01*
X183713181Y-88872976D01*
X183845809Y-88973224D01*
X183943522Y-89097301D01*
X184006077Y-89244744D01*
X184033229Y-89415092D01*
X184034295Y-89481667D01*
X184021588Y-89635004D01*
X183989480Y-89819801D01*
X183939632Y-90030795D01*
X183873702Y-90262722D01*
X183793348Y-90510318D01*
X183700230Y-90768319D01*
X183596006Y-91031461D01*
X183482336Y-91294481D01*
X183421369Y-91426648D01*
X183378752Y-91518393D01*
X183344344Y-91595147D01*
X183321378Y-91649498D01*
X183313086Y-91674031D01*
X183313245Y-91674634D01*
X183334244Y-91670191D01*
X183386108Y-91653422D01*
X183460205Y-91627229D01*
X183519753Y-91605190D01*
X183775931Y-91515479D01*
X184030279Y-91439046D01*
X184268315Y-91380127D01*
X184339207Y-91365560D01*
X184428871Y-91345907D01*
X184503859Y-91325239D01*
X184553595Y-91306682D01*
X184566480Y-91298373D01*
X184584347Y-91273398D01*
X184621403Y-91217653D01*
X184674350Y-91136237D01*
X184739892Y-91034249D01*
X184814732Y-90916788D01*
X184885721Y-90804583D01*
X185011515Y-90609082D01*
X185121818Y-90447185D01*
X185220288Y-90314741D01*
X185310584Y-90207602D01*
X185396365Y-90121617D01*
X185481290Y-90052637D01*
X185569019Y-89996510D01*
X185623570Y-89967748D01*
X185711505Y-89927943D01*
X185783277Y-89906232D01*
X185858320Y-89897799D01*
X185908658Y-89897078D01*
X186063822Y-89917217D01*
X186200103Y-89974331D01*
X186314735Y-90066251D01*
X186404951Y-90190807D01*
X186464145Y-90332810D01*
X186485968Y-90420427D01*
X186496446Y-90508876D01*
X186495217Y-90606933D01*
X186481920Y-90723376D01*
X186456193Y-90866979D01*
X186438682Y-90951124D01*
X186421714Y-91034900D01*
X186410149Y-91101560D01*
X186405573Y-91141428D01*
X186406391Y-91148279D01*
X186425065Y-91138958D01*
X186464245Y-91100198D01*
X186519950Y-91037097D01*
X186588200Y-90954752D01*
X186665016Y-90858259D01*
X186746418Y-90752715D01*
X186828427Y-90643216D01*
X186907062Y-90534859D01*
X186978344Y-90432741D01*
X187038293Y-90341957D01*
X187047755Y-90326921D01*
X187120860Y-90201918D01*
X187203012Y-90048418D01*
X187288639Y-89877648D01*
X187372167Y-89700840D01*
X187448021Y-89529224D01*
X187471162Y-89473837D01*
X187506207Y-89385766D01*
X187545933Y-89281504D01*
X187587628Y-89168705D01*
X187628581Y-89055023D01*
X187666080Y-88948112D01*
X187697414Y-88855626D01*
X187719870Y-88785219D01*
X187730736Y-88744546D01*
X187731333Y-88739480D01*
X187714830Y-88722192D01*
X187671133Y-88689022D01*
X187608966Y-88646499D01*
X187594879Y-88637314D01*
X187422743Y-88501300D01*
X187279348Y-88336364D01*
X187168314Y-88147659D01*
X187093263Y-87940338D01*
X187086790Y-87914214D01*
X187056804Y-87697771D01*
X187067012Y-87481376D01*
X187115411Y-87268475D01*
X187199997Y-87062515D01*
X187318769Y-86866942D01*
X187469724Y-86685203D01*
X187650858Y-86520746D01*
X187860169Y-86377016D01*
X188033212Y-86285470D01*
X188212049Y-86201664D01*
X188225691Y-86071143D01*
X188230462Y-86004590D01*
X188234159Y-85911064D01*
X188236809Y-85797122D01*
X188238441Y-85669322D01*
X188239083Y-85534220D01*
X188238765Y-85398374D01*
X188237514Y-85268340D01*
X188235360Y-85150676D01*
X188232330Y-85051939D01*
X188228453Y-84978686D01*
X188223758Y-84937474D01*
X188220734Y-84930833D01*
X188200722Y-84948318D01*
X188177337Y-84990780D01*
X188175765Y-84994497D01*
X188125670Y-85076247D01*
X188046782Y-85160438D01*
X187950559Y-85236388D01*
X187861622Y-85287463D01*
X187804590Y-85312301D01*
X187752650Y-85328527D01*
X187694256Y-85337915D01*
X187617863Y-85342240D01*
X187511926Y-85343276D01*
X187498500Y-85343266D01*
X187354485Y-85338978D01*
X187241532Y-85324258D01*
X187148956Y-85295682D01*
X187066069Y-85249827D01*
X186982185Y-85183269D01*
X186972802Y-85174866D01*
X186913344Y-85108956D01*
X186855224Y-85024094D01*
X186805320Y-84932837D01*
X186770509Y-84847738D01*
X186757667Y-84782164D01*
X186746398Y-84735992D01*
X186707338Y-84692070D01*
X186672562Y-84665946D01*
X186582877Y-84593185D01*
X186482761Y-84494841D01*
X186382426Y-84382292D01*
X186292083Y-84266912D01*
X186228431Y-84171187D01*
X186103800Y-83929875D01*
X186013350Y-83680462D01*
X185955320Y-83416111D01*
X185927947Y-83129985D01*
X185925161Y-82994083D01*
X185929469Y-82796170D01*
X185943653Y-82626640D01*
X185969670Y-82472292D01*
X186009482Y-82319921D01*
X186038430Y-82230833D01*
X186040471Y-82224204D01*
X187077257Y-82224204D01*
X187077810Y-82474015D01*
X187078755Y-82760899D01*
X187079802Y-83059241D01*
X187085750Y-84796565D01*
X187146691Y-84876453D01*
X187206447Y-84940636D01*
X187275452Y-84982449D01*
X187363725Y-85005746D01*
X187481289Y-85014378D01*
X187506201Y-85014671D01*
X187604924Y-85012162D01*
X187675490Y-85001836D01*
X187731731Y-84981256D01*
X187749618Y-84971734D01*
X187811057Y-84928600D01*
X187862613Y-84879120D01*
X187868917Y-84871192D01*
X187876427Y-84860211D01*
X187883005Y-84846896D01*
X187888722Y-84828494D01*
X187893650Y-84802256D01*
X187897861Y-84765428D01*
X187901426Y-84715260D01*
X187904418Y-84649000D01*
X187906908Y-84563897D01*
X187908969Y-84457199D01*
X187910671Y-84326155D01*
X187912088Y-84168013D01*
X187913291Y-83980022D01*
X187914351Y-83759431D01*
X187915342Y-83503487D01*
X187915434Y-83476183D01*
X188791460Y-83476183D01*
X188804674Y-83660836D01*
X188832492Y-83854909D01*
X188873968Y-84048683D01*
X188910766Y-84179417D01*
X188934994Y-84252793D01*
X188970887Y-84356328D01*
X189015093Y-84480601D01*
X189064257Y-84616191D01*
X189115027Y-84753677D01*
X189118330Y-84762530D01*
X189169801Y-84903455D01*
X189220086Y-85046720D01*
X189265668Y-85181896D01*
X189303032Y-85298553D01*
X189328663Y-85386263D01*
X189328844Y-85386946D01*
X189353219Y-85478009D01*
X189374182Y-85555170D01*
X189388969Y-85608313D01*
X189394054Y-85625474D01*
X189414798Y-85628951D01*
X189463027Y-85606630D01*
X189534829Y-85561112D01*
X189626295Y-85494996D01*
X189733512Y-85410882D01*
X189802269Y-85354123D01*
X189961031Y-85205301D01*
X190106747Y-85038805D01*
X190232869Y-84863639D01*
X190332849Y-84688801D01*
X190395041Y-84539250D01*
X190410065Y-84485413D01*
X190429880Y-84402803D01*
X190452615Y-84300600D01*
X190476402Y-84187988D01*
X190499373Y-84074149D01*
X190519658Y-83968265D01*
X190535388Y-83879519D01*
X190544696Y-83817092D01*
X190546420Y-83795470D01*
X190528541Y-83777517D01*
X190483142Y-83752293D01*
X190451826Y-83738383D01*
X190311830Y-83664249D01*
X190196711Y-83569567D01*
X190130333Y-83486318D01*
X190073087Y-83374744D01*
X190028440Y-83247130D01*
X190001973Y-83121740D01*
X189997157Y-83050406D01*
X189998147Y-82951750D01*
X190036936Y-83050952D01*
X190070779Y-83128235D01*
X190109150Y-83203124D01*
X190121563Y-83224322D01*
X190175172Y-83295416D01*
X190248380Y-83371630D01*
X190332667Y-83446226D01*
X190419514Y-83512469D01*
X190500399Y-83563621D01*
X190566803Y-83592945D01*
X190593318Y-83597333D01*
X190617960Y-83580059D01*
X190651339Y-83535818D01*
X190672457Y-83499687D01*
X190771438Y-83347505D01*
X190887389Y-83228978D01*
X191016815Y-83145967D01*
X191156221Y-83100332D01*
X191302112Y-83093934D01*
X191400443Y-83112161D01*
X191456821Y-83126635D01*
X191485557Y-83124851D01*
X191499988Y-83101177D01*
X191507396Y-83073385D01*
X191731833Y-83073385D01*
X191735647Y-83116855D01*
X191755363Y-83128569D01*
X191790042Y-83122303D01*
X191950507Y-83095716D01*
X192088491Y-83101259D01*
X192194034Y-83132194D01*
X192293805Y-83191672D01*
X192395430Y-83281009D01*
X192488367Y-83389587D01*
X192557735Y-83498478D01*
X192592045Y-83554146D01*
X192623320Y-83590001D01*
X192637515Y-83597333D01*
X192688337Y-83583713D01*
X192761644Y-83546198D01*
X192849003Y-83489810D01*
X192941980Y-83419570D01*
X192957360Y-83406928D01*
X193031093Y-83339972D01*
X193087534Y-83272444D01*
X193138329Y-83188989D01*
X193170330Y-83126133D01*
X193210041Y-83046624D01*
X193235374Y-83001866D01*
X193249350Y-82988016D01*
X193254991Y-83001232D01*
X193255633Y-83017652D01*
X193244755Y-83137775D01*
X193215020Y-83269605D01*
X193171745Y-83390100D01*
X193167613Y-83399081D01*
X193082171Y-83531899D01*
X192961712Y-83644402D01*
X192819826Y-83728418D01*
X192753220Y-83760276D01*
X192704866Y-83784719D01*
X192684467Y-83796825D01*
X192684333Y-83797124D01*
X192688222Y-83818562D01*
X192699011Y-83874747D01*
X192715382Y-83958896D01*
X192736015Y-84064230D01*
X192755881Y-84165155D01*
X192790697Y-84331678D01*
X192823165Y-84464083D01*
X192855519Y-84570335D01*
X192889992Y-84658400D01*
X192900733Y-84681734D01*
X192986224Y-84835244D01*
X193097414Y-84996449D01*
X193223638Y-85151364D01*
X193354237Y-85286001D01*
X193377513Y-85307116D01*
X193442233Y-85361874D01*
X193520142Y-85423857D01*
X193603733Y-85487579D01*
X193685502Y-85547552D01*
X193757944Y-85598288D01*
X193813553Y-85634300D01*
X193844824Y-85650098D01*
X193846977Y-85650385D01*
X193856997Y-85631237D01*
X193873935Y-85579914D01*
X193894966Y-85505437D01*
X193907348Y-85457499D01*
X193928998Y-85380885D01*
X193962819Y-85273397D01*
X194005900Y-85143718D01*
X194055330Y-85000528D01*
X194108196Y-84852509D01*
X194132725Y-84785571D01*
X194185586Y-84640849D01*
X194236054Y-84499511D01*
X194281344Y-84369607D01*
X194318666Y-84259186D01*
X194345234Y-84176298D01*
X194353622Y-84147667D01*
X194406751Y-83924827D01*
X194442211Y-83709081D01*
X194455400Y-83554815D01*
X195249109Y-83554815D01*
X195249582Y-83837557D01*
X195250771Y-84078373D01*
X195252677Y-84277398D01*
X195255301Y-84434764D01*
X195258644Y-84550607D01*
X195262708Y-84625059D01*
X195266737Y-84655930D01*
X195300666Y-84736787D01*
X195352960Y-84813165D01*
X195412636Y-84870681D01*
X195444857Y-84889159D01*
X195487038Y-84898040D01*
X195557165Y-84904843D01*
X195640855Y-84908223D01*
X195649828Y-84908325D01*
X195740426Y-84906761D01*
X195802660Y-84898402D01*
X195850308Y-84880483D01*
X195880511Y-84862042D01*
X195938695Y-84809619D01*
X195986490Y-84746065D01*
X195989474Y-84740663D01*
X195996486Y-84725845D01*
X196002610Y-84707663D01*
X196007906Y-84683323D01*
X196012433Y-84650030D01*
X196016252Y-84604988D01*
X196019423Y-84545403D01*
X196022005Y-84468479D01*
X196024058Y-84371421D01*
X196025643Y-84251433D01*
X196026819Y-84105722D01*
X196027646Y-83931490D01*
X196028185Y-83725944D01*
X196028494Y-83486288D01*
X196028635Y-83209727D01*
X196028667Y-82912946D01*
X196028703Y-82590960D01*
X196028686Y-82308575D01*
X196028427Y-82063057D01*
X196027736Y-81851674D01*
X196026423Y-81671693D01*
X196024299Y-81520382D01*
X196021174Y-81395008D01*
X196016860Y-81292837D01*
X196011167Y-81211138D01*
X196003904Y-81147177D01*
X195994884Y-81098221D01*
X195983916Y-81061539D01*
X195970811Y-81034397D01*
X195955379Y-81014062D01*
X195937431Y-80997802D01*
X195916778Y-80982885D01*
X195893765Y-80966958D01*
X195847070Y-80940639D01*
X195789199Y-80924386D01*
X195707540Y-80915295D01*
X195658250Y-80912707D01*
X195569020Y-80910561D01*
X195508761Y-80914654D01*
X195464294Y-80927293D01*
X195422438Y-80950785D01*
X195415978Y-80955112D01*
X195355676Y-81007597D01*
X195304373Y-81070768D01*
X195299561Y-81078572D01*
X195291704Y-81092760D01*
X195284842Y-81108683D01*
X195278899Y-81129178D01*
X195273794Y-81157084D01*
X195269451Y-81195240D01*
X195265791Y-81246483D01*
X195262734Y-81313653D01*
X195260204Y-81399587D01*
X195258121Y-81507125D01*
X195256408Y-81639104D01*
X195254986Y-81798364D01*
X195253776Y-81987742D01*
X195252700Y-82210078D01*
X195251680Y-82468209D01*
X195250638Y-82764974D01*
X195250306Y-82863017D01*
X195249351Y-83230013D01*
X195249109Y-83554815D01*
X194455400Y-83554815D01*
X194459430Y-83507682D01*
X194457838Y-83327883D01*
X194436867Y-83176938D01*
X194431586Y-83155615D01*
X194358507Y-82961419D01*
X194249029Y-82783517D01*
X194107668Y-82627334D01*
X193938939Y-82498299D01*
X193837308Y-82441457D01*
X193670491Y-82359083D01*
X193330870Y-82362422D01*
X193188455Y-82365020D01*
X193069490Y-82370707D01*
X192959571Y-82381011D01*
X192844298Y-82397458D01*
X192709268Y-82421576D01*
X192632299Y-82436505D01*
X192273348Y-82507250D01*
X192246636Y-82599677D01*
X192189006Y-82725503D01*
X192096619Y-82834949D01*
X191975674Y-82922339D01*
X191832372Y-82981999D01*
X191827430Y-82983403D01*
X191768721Y-83002762D01*
X191740611Y-83024216D01*
X191732167Y-83058057D01*
X191731833Y-83073385D01*
X191507396Y-83073385D01*
X191509313Y-83066196D01*
X191513786Y-83035205D01*
X191502761Y-83013236D01*
X191468129Y-82992991D01*
X191401785Y-82967176D01*
X191397592Y-82965646D01*
X191247061Y-82895823D01*
X191132405Y-82807603D01*
X191049755Y-82697168D01*
X190998357Y-82571633D01*
X190988333Y-82544010D01*
X190972125Y-82523879D01*
X190941971Y-82507850D01*
X190890112Y-82492534D01*
X190808789Y-82474541D01*
X190747384Y-82462012D01*
X190480796Y-82412075D01*
X190248914Y-82377278D01*
X190047121Y-82357091D01*
X189870796Y-82350981D01*
X189796840Y-82352757D01*
X189691311Y-82358804D01*
X189613093Y-82368193D01*
X189547163Y-82384369D01*
X189478499Y-82410775D01*
X189413445Y-82440659D01*
X189249240Y-82539593D01*
X189100611Y-82669747D01*
X188974174Y-82823047D01*
X188876543Y-82991417D01*
X188814336Y-83166782D01*
X188812638Y-83174000D01*
X188793798Y-83310665D01*
X188791460Y-83476183D01*
X187915434Y-83476183D01*
X187916333Y-83209440D01*
X187916892Y-83034775D01*
X187922534Y-81255133D01*
X187874559Y-81184638D01*
X187822288Y-81115892D01*
X187769715Y-81069998D01*
X187706534Y-81042572D01*
X187622437Y-81029230D01*
X187507119Y-81025589D01*
X187500592Y-81025583D01*
X187403394Y-81026447D01*
X187337437Y-81030551D01*
X187291641Y-81040168D01*
X187254924Y-81057566D01*
X187218284Y-81083427D01*
X187193169Y-81102229D01*
X187171138Y-81119703D01*
X187151998Y-81138591D01*
X187135556Y-81161637D01*
X187121620Y-81191583D01*
X187109998Y-81231173D01*
X187100498Y-81283149D01*
X187092928Y-81350254D01*
X187087094Y-81435232D01*
X187082806Y-81540825D01*
X187079870Y-81669775D01*
X187078095Y-81824827D01*
X187077288Y-82008722D01*
X187077257Y-82224204D01*
X186040471Y-82224204D01*
X186053155Y-82183030D01*
X186064040Y-82132621D01*
X186071643Y-82072346D01*
X186076522Y-81994946D01*
X186079234Y-81893162D01*
X186080337Y-81759736D01*
X186080458Y-81683728D01*
X186083356Y-81453887D01*
X186092620Y-81256678D01*
X186109323Y-81082728D01*
X186134539Y-80922668D01*
X186169341Y-80767127D01*
X186169932Y-80764967D01*
X187057254Y-80764967D01*
X187061567Y-80777863D01*
X187085747Y-80773252D01*
X187137374Y-80751157D01*
X187173017Y-80734858D01*
X187265338Y-80706470D01*
X187384526Y-80689467D01*
X187516625Y-80684031D01*
X187647677Y-80690347D01*
X187763726Y-80708597D01*
X187822927Y-80726333D01*
X187925104Y-80765750D01*
X187958602Y-80717924D01*
X188054610Y-80601061D01*
X188163674Y-80512152D01*
X188260411Y-80457014D01*
X188428603Y-80391095D01*
X188590999Y-80365630D01*
X188752123Y-80380016D01*
X188783495Y-80387340D01*
X188908913Y-80419471D01*
X189055665Y-80280504D01*
X189366996Y-80011865D01*
X189691793Y-79783129D01*
X190031155Y-79593711D01*
X190386176Y-79443029D01*
X190757954Y-79330500D01*
X190903132Y-79297769D01*
X191040614Y-79275744D01*
X191208099Y-79258570D01*
X191393488Y-79246682D01*
X191584680Y-79240517D01*
X191769577Y-79240511D01*
X191936080Y-79247100D01*
X192042245Y-79256710D01*
X192416171Y-79323410D01*
X192779912Y-79430185D01*
X193129809Y-79575280D01*
X193462201Y-79756943D01*
X193773429Y-79973420D01*
X194059834Y-80222958D01*
X194060405Y-80223514D01*
X194240560Y-80398937D01*
X194335571Y-80377082D01*
X194469217Y-80364485D01*
X194620210Y-80381573D01*
X194771869Y-80425131D01*
X194863984Y-80469869D01*
X194955043Y-80537462D01*
X195022077Y-80600293D01*
X195152375Y-80730591D01*
X195244068Y-80672632D01*
X195378451Y-80611232D01*
X195538106Y-80579041D01*
X195716491Y-80577340D01*
X195726640Y-80578150D01*
X195879697Y-80591059D01*
X195826038Y-80469654D01*
X195726011Y-80275074D01*
X195595965Y-80071828D01*
X195443468Y-79870726D01*
X195276089Y-79682578D01*
X195272022Y-79678383D01*
X195155880Y-79558850D01*
X195089224Y-79598178D01*
X194976467Y-79647775D01*
X194839275Y-79682130D01*
X194693807Y-79698015D01*
X194597034Y-79696516D01*
X194538847Y-79690982D01*
X194484603Y-79682260D01*
X194427813Y-79668071D01*
X194361986Y-79646139D01*
X194280634Y-79614186D01*
X194177269Y-79569935D01*
X194045399Y-79511108D01*
X193964917Y-79474687D01*
X193544955Y-79306232D01*
X193105911Y-79173518D01*
X192646714Y-79076347D01*
X192166294Y-79014523D01*
X191663582Y-78987850D01*
X191319083Y-78989405D01*
X190837264Y-79017664D01*
X190380049Y-79077255D01*
X189942372Y-79169313D01*
X189519168Y-79294976D01*
X189105370Y-79455378D01*
X188969583Y-79516330D01*
X188817885Y-79584802D01*
X188695364Y-79635077D01*
X188594217Y-79669563D01*
X188506642Y-79690670D01*
X188424838Y-79700807D01*
X188366167Y-79702667D01*
X188242298Y-79692860D01*
X188113023Y-79666313D01*
X187995520Y-79627332D01*
X187924447Y-79591908D01*
X187850546Y-79546234D01*
X187682822Y-79724992D01*
X187546725Y-79883192D01*
X187415524Y-80060259D01*
X187295055Y-80246655D01*
X187191152Y-80432845D01*
X187109649Y-80609288D01*
X187065225Y-80734542D01*
X187057254Y-80764967D01*
X186169932Y-80764967D01*
X186197071Y-80665866D01*
X186308919Y-80355606D01*
X186460816Y-80052753D01*
X186650813Y-79759404D01*
X186876958Y-79477654D01*
X187137301Y-79209598D01*
X187429894Y-78957332D01*
X187752785Y-78722953D01*
X188104026Y-78508555D01*
X188302833Y-78402819D01*
X188759388Y-78192923D01*
X189228349Y-78019545D01*
X189712504Y-77882009D01*
X190214638Y-77779637D01*
X190737537Y-77711753D01*
X191283989Y-77677678D01*
X191287333Y-77677575D01*
X191798457Y-77678816D01*
G37*
X191798457Y-77678816D02*
X192301966Y-77713505D01*
X192795026Y-77780681D01*
X193274802Y-77879384D01*
X193738456Y-78008653D01*
X194183155Y-78167526D01*
X194606062Y-78355043D01*
X195004342Y-78570243D01*
X195375159Y-78812165D01*
X195715677Y-79079848D01*
X195887683Y-79236423D01*
X196155691Y-79517771D01*
X196382607Y-79808272D01*
X196568880Y-80108915D01*
X196714958Y-80420693D01*
X196821290Y-80744598D01*
X196888324Y-81081622D01*
X196916508Y-81432755D01*
X196917542Y-81514780D01*
X196918306Y-81626053D01*
X196921710Y-81706502D01*
X196929613Y-81767627D01*
X196943874Y-81820931D01*
X196966352Y-81877915D01*
X196981861Y-81912721D01*
X197078311Y-82168286D01*
X197143326Y-82435663D01*
X197177845Y-82710102D01*
X197182810Y-82986852D01*
X197159162Y-83261164D01*
X197107844Y-83528288D01*
X197029796Y-83783475D01*
X196925960Y-84021973D01*
X196797278Y-84239034D01*
X196644690Y-84429908D01*
X196469138Y-84589844D01*
X196448138Y-84605585D01*
X196387696Y-84656865D01*
X196352252Y-84701576D01*
X196346167Y-84721200D01*
X196333352Y-84780731D01*
X196299275Y-84859456D01*
X196250483Y-84944654D01*
X196193526Y-85023603D01*
X196185673Y-85032966D01*
X196124217Y-85090805D01*
X196044560Y-85147976D01*
X195991080Y-85178251D01*
X195933080Y-85204944D01*
X195881742Y-85222198D01*
X195825082Y-85232012D01*
X195751119Y-85236385D01*
X195647869Y-85237316D01*
X195637083Y-85237300D01*
X195528775Y-85235960D01*
X195451652Y-85231301D01*
X195394599Y-85221628D01*
X195346499Y-85205242D01*
X195309000Y-85187208D01*
X195246190Y-85152134D01*
X195195297Y-85119675D01*
X195179851Y-85107847D01*
X195162476Y-85096779D01*
X195150865Y-85105073D01*
X195142570Y-85139548D01*
X195135142Y-85207023D01*
X195132226Y-85240507D01*
X195127856Y-85314146D01*
X195124061Y-85420020D01*
X195121078Y-85548032D01*
X195119146Y-85688086D01*
X195118500Y-85822722D01*
X195118500Y-86242557D01*
X195250792Y-86309259D01*
X195491877Y-86451477D01*
X195699817Y-86617894D01*
X195873439Y-86807296D01*
X196011573Y-87018470D01*
X196084086Y-87172521D01*
X196150035Y-87387728D01*
X196176390Y-87602756D01*
X196165092Y-87813391D01*
X196118082Y-88015418D01*
X196037303Y-88204621D01*
X195924697Y-88376786D01*
X195782205Y-88527698D01*
X195611770Y-88653143D01*
X195415333Y-88748905D01*
X195346816Y-88772744D01*
X195243455Y-88800959D01*
X195131474Y-88824693D01*
X195034814Y-88838882D01*
X195033344Y-88839020D01*
X194956278Y-88847047D01*
X194911446Y-88856524D01*
X194888896Y-88872450D01*
X194878677Y-88899826D01*
X194875237Y-88918461D01*
X194868418Y-88958808D01*
X194855847Y-89033546D01*
X194838759Y-89135310D01*
X194818391Y-89256739D01*
X194795979Y-89390469D01*
X194790330Y-89424195D01*
X194650278Y-90165885D01*
X194483571Y-90878373D01*
X194290465Y-91561096D01*
X194071219Y-92213493D01*
X193826090Y-92835003D01*
X193555336Y-93425065D01*
X193259215Y-93983115D01*
X192937984Y-94508593D01*
X192591901Y-95000938D01*
X192221224Y-95459588D01*
X191826345Y-95883845D01*
X191404391Y-96277126D01*
X190959764Y-96635590D01*
X190492072Y-96959412D01*
X190000923Y-97248768D01*
X189485925Y-97503833D01*
X188946686Y-97724782D01*
X188382815Y-97911791D01*
X187793920Y-98065036D01*
X187179608Y-98184690D01*
X186539487Y-98270931D01*
X186477344Y-98277390D01*
X186350446Y-98287763D01*
X186190774Y-98296931D01*
X186006122Y-98304767D01*
X185804283Y-98311148D01*
X185593052Y-98315947D01*
X185380221Y-98319041D01*
X185173586Y-98320303D01*
X184980939Y-98319608D01*
X184810075Y-98316832D01*
X184668787Y-98311850D01*
X184598667Y-98307537D01*
X183973249Y-98240242D01*
X183368627Y-98136309D01*
X182784950Y-97995783D01*
X182222366Y-97818710D01*
X181681023Y-97605136D01*
X181161071Y-97355107D01*
X180749280Y-97122005D01*
X180424764Y-96914508D01*
X180120767Y-96697090D01*
X179827511Y-96462014D01*
X179535216Y-96201541D01*
X179305685Y-95979833D01*
X178963791Y-95621536D01*
X178657274Y-95261141D01*
X178379716Y-94889807D01*
X178124701Y-94498694D01*
X177885812Y-94078959D01*
X177784864Y-93884333D01*
X177545209Y-93367828D01*
X177347664Y-92851047D01*
X177248869Y-92522425D01*
X186468203Y-92522425D01*
X186490210Y-92520702D01*
X186544941Y-92510999D01*
X186623892Y-92494943D01*
X186708869Y-92476353D01*
X187002002Y-92424213D01*
X187291655Y-92399499D01*
X187569587Y-92402354D01*
X187827556Y-92432921D01*
X187932417Y-92455137D01*
X188162375Y-92532179D01*
X188379631Y-92645613D01*
X188578383Y-92790748D01*
X188752830Y-92962897D01*
X188897173Y-93157370D01*
X188973742Y-93296958D01*
X189011472Y-93365600D01*
X189045595Y-93408397D01*
X189064873Y-93418667D01*
X189093404Y-93409498D01*
X189153208Y-93383957D01*
X189237892Y-93344994D01*
X189341061Y-93295557D01*
X189456322Y-93238594D01*
X189467765Y-93232850D01*
X189715315Y-93104450D01*
X189934771Y-92981331D01*
X190138383Y-92855960D01*
X190338403Y-92720803D01*
X190541331Y-92572658D01*
X190891182Y-92287645D01*
X191220108Y-91974534D01*
X191529030Y-91631896D01*
X191818868Y-91258304D01*
X192090543Y-90852328D01*
X192344974Y-90412542D01*
X192583083Y-89937517D01*
X192805788Y-89425826D01*
X193014010Y-88876040D01*
X193116059Y-88577078D01*
X193257230Y-88148740D01*
X193094812Y-87984412D01*
X192826364Y-87686510D01*
X192574180Y-87354214D01*
X192341502Y-86993412D01*
X192131570Y-86609988D01*
X191947623Y-86209830D01*
X191792903Y-85798823D01*
X191677479Y-85409669D01*
X191618205Y-85179421D01*
X191568739Y-85367335D01*
X191448416Y-85769999D01*
X191303315Y-86161385D01*
X191135661Y-86538204D01*
X190947681Y-86897165D01*
X190741599Y-87234977D01*
X190519642Y-87548351D01*
X190284035Y-87833996D01*
X190037004Y-88088621D01*
X189780774Y-88308937D01*
X189517572Y-88491654D01*
X189415091Y-88551146D01*
X189260245Y-88636130D01*
X189192402Y-88830413D01*
X189041376Y-89210607D01*
X188851941Y-89597879D01*
X188626468Y-89987952D01*
X188367330Y-90376553D01*
X188231786Y-90561167D01*
X188152170Y-90665321D01*
X188074517Y-90764306D01*
X187995614Y-90861739D01*
X187912251Y-90961235D01*
X187821215Y-91066411D01*
X187719294Y-91180883D01*
X187603277Y-91308268D01*
X187469951Y-91452181D01*
X187316105Y-91616238D01*
X187138526Y-91804057D01*
X186974737Y-91976457D01*
X186855824Y-92101801D01*
X186747025Y-92217203D01*
X186651592Y-92319158D01*
X186572777Y-92404162D01*
X186513832Y-92468709D01*
X186478007Y-92509295D01*
X186468203Y-92522425D01*
X177248869Y-92522425D01*
X177192270Y-92334160D01*
X177079070Y-91817335D01*
X177008107Y-91300740D01*
X176979422Y-90784544D01*
X176978753Y-90691215D01*
X176994732Y-90131714D01*
X177042007Y-89591609D01*
X177120000Y-89072184D01*
X177228133Y-88574726D01*
X177365827Y-88100518D01*
X177532504Y-87650846D01*
X177727587Y-87226996D01*
X177950498Y-86830252D01*
X178200657Y-86461900D01*
X178477488Y-86123225D01*
X178780412Y-85815511D01*
X179108852Y-85540045D01*
X179381790Y-85348771D01*
X179515723Y-85268173D01*
X179664041Y-85188804D01*
X179819398Y-85113727D01*
X179974445Y-85046003D01*
X180121834Y-84988694D01*
X180254219Y-84944864D01*
X180364251Y-84917573D01*
X180435428Y-84909666D01*
X180556619Y-84929660D01*
X180662809Y-84987491D01*
X180749282Y-85079929D01*
X180790871Y-85153083D01*
X180820064Y-85233678D01*
X180827764Y-85310175D01*
X180811763Y-85388684D01*
X180769858Y-85475315D01*
X180699842Y-85576177D01*
X180599510Y-85697380D01*
X180590803Y-85707345D01*
X180389554Y-85962132D01*
X180199690Y-86252328D01*
X180024074Y-86571878D01*
X179865565Y-86914724D01*
X179727024Y-87274809D01*
X179611314Y-87646077D01*
X179540796Y-87930206D01*
X179496043Y-88150054D01*
X179463161Y-88354591D01*
X179440237Y-88559632D01*
X179425358Y-88780996D01*
X179419284Y-88934979D01*
X179417727Y-89271200D01*
X179436417Y-89577841D01*
X179477354Y-89863524D01*
X179542541Y-90136868D01*
X179633980Y-90406494D01*
X179753672Y-90681023D01*
X179882904Y-90931583D01*
X180028731Y-91179402D01*
X180189800Y-91420685D01*
X180359954Y-91647349D01*
X180533034Y-91851315D01*
X180702885Y-92024499D01*
X180744388Y-92062275D01*
X180893748Y-92194693D01*
X180941198Y-92113472D01*
X181026090Y-91969914D01*
X181131610Y-91794428D01*
X181255491Y-91590691D01*
X181395470Y-91362385D01*
X181549282Y-91113188D01*
X181714661Y-90846782D01*
X181889342Y-90566846D01*
X182071061Y-90277061D01*
X182091371Y-90244759D01*
X182225239Y-90032231D01*
X182339205Y-89852209D01*
X182435658Y-89701208D01*
X182516992Y-89575747D01*
X182585595Y-89472344D01*
X182643860Y-89387515D01*
X182694178Y-89317779D01*
X182738939Y-89259652D01*
X182780535Y-89209653D01*
X182821357Y-89164298D01*
X182863000Y-89120916D01*
X182985922Y-89003623D01*
X183095023Y-88918541D01*
X183198244Y-88861571D01*
X183303527Y-88828611D01*
X183418811Y-88815562D01*
X183455667Y-88814917D01*
X183546702Y-88817448D01*
X183612320Y-88827559D01*
X183669266Y-88849026D01*
X183713181Y-88872976D01*
X183845809Y-88973224D01*
X183943522Y-89097301D01*
X184006077Y-89244744D01*
X184033229Y-89415092D01*
X184034295Y-89481667D01*
X184021588Y-89635004D01*
X183989480Y-89819801D01*
X183939632Y-90030795D01*
X183873702Y-90262722D01*
X183793348Y-90510318D01*
X183700230Y-90768319D01*
X183596006Y-91031461D01*
X183482336Y-91294481D01*
X183421369Y-91426648D01*
X183378752Y-91518393D01*
X183344344Y-91595147D01*
X183321378Y-91649498D01*
X183313086Y-91674031D01*
X183313245Y-91674634D01*
X183334244Y-91670191D01*
X183386108Y-91653422D01*
X183460205Y-91627229D01*
X183519753Y-91605190D01*
X183775931Y-91515479D01*
X184030279Y-91439046D01*
X184268315Y-91380127D01*
X184339207Y-91365560D01*
X184428871Y-91345907D01*
X184503859Y-91325239D01*
X184553595Y-91306682D01*
X184566480Y-91298373D01*
X184584347Y-91273398D01*
X184621403Y-91217653D01*
X184674350Y-91136237D01*
X184739892Y-91034249D01*
X184814732Y-90916788D01*
X184885721Y-90804583D01*
X185011515Y-90609082D01*
X185121818Y-90447185D01*
X185220288Y-90314741D01*
X185310584Y-90207602D01*
X185396365Y-90121617D01*
X185481290Y-90052637D01*
X185569019Y-89996510D01*
X185623570Y-89967748D01*
X185711505Y-89927943D01*
X185783277Y-89906232D01*
X185858320Y-89897799D01*
X185908658Y-89897078D01*
X186063822Y-89917217D01*
X186200103Y-89974331D01*
X186314735Y-90066251D01*
X186404951Y-90190807D01*
X186464145Y-90332810D01*
X186485968Y-90420427D01*
X186496446Y-90508876D01*
X186495217Y-90606933D01*
X186481920Y-90723376D01*
X186456193Y-90866979D01*
X186438682Y-90951124D01*
X186421714Y-91034900D01*
X186410149Y-91101560D01*
X186405573Y-91141428D01*
X186406391Y-91148279D01*
X186425065Y-91138958D01*
X186464245Y-91100198D01*
X186519950Y-91037097D01*
X186588200Y-90954752D01*
X186665016Y-90858259D01*
X186746418Y-90752715D01*
X186828427Y-90643216D01*
X186907062Y-90534859D01*
X186978344Y-90432741D01*
X187038293Y-90341957D01*
X187047755Y-90326921D01*
X187120860Y-90201918D01*
X187203012Y-90048418D01*
X187288639Y-89877648D01*
X187372167Y-89700840D01*
X187448021Y-89529224D01*
X187471162Y-89473837D01*
X187506207Y-89385766D01*
X187545933Y-89281504D01*
X187587628Y-89168705D01*
X187628581Y-89055023D01*
X187666080Y-88948112D01*
X187697414Y-88855626D01*
X187719870Y-88785219D01*
X187730736Y-88744546D01*
X187731333Y-88739480D01*
X187714830Y-88722192D01*
X187671133Y-88689022D01*
X187608966Y-88646499D01*
X187594879Y-88637314D01*
X187422743Y-88501300D01*
X187279348Y-88336364D01*
X187168314Y-88147659D01*
X187093263Y-87940338D01*
X187086790Y-87914214D01*
X187056804Y-87697771D01*
X187067012Y-87481376D01*
X187115411Y-87268475D01*
X187199997Y-87062515D01*
X187318769Y-86866942D01*
X187469724Y-86685203D01*
X187650858Y-86520746D01*
X187860169Y-86377016D01*
X188033212Y-86285470D01*
X188212049Y-86201664D01*
X188225691Y-86071143D01*
X188230462Y-86004590D01*
X188234159Y-85911064D01*
X188236809Y-85797122D01*
X188238441Y-85669322D01*
X188239083Y-85534220D01*
X188238765Y-85398374D01*
X188237514Y-85268340D01*
X188235360Y-85150676D01*
X188232330Y-85051939D01*
X188228453Y-84978686D01*
X188223758Y-84937474D01*
X188220734Y-84930833D01*
X188200722Y-84948318D01*
X188177337Y-84990780D01*
X188175765Y-84994497D01*
X188125670Y-85076247D01*
X188046782Y-85160438D01*
X187950559Y-85236388D01*
X187861622Y-85287463D01*
X187804590Y-85312301D01*
X187752650Y-85328527D01*
X187694256Y-85337915D01*
X187617863Y-85342240D01*
X187511926Y-85343276D01*
X187498500Y-85343266D01*
X187354485Y-85338978D01*
X187241532Y-85324258D01*
X187148956Y-85295682D01*
X187066069Y-85249827D01*
X186982185Y-85183269D01*
X186972802Y-85174866D01*
X186913344Y-85108956D01*
X186855224Y-85024094D01*
X186805320Y-84932837D01*
X186770509Y-84847738D01*
X186757667Y-84782164D01*
X186746398Y-84735992D01*
X186707338Y-84692070D01*
X186672562Y-84665946D01*
X186582877Y-84593185D01*
X186482761Y-84494841D01*
X186382426Y-84382292D01*
X186292083Y-84266912D01*
X186228431Y-84171187D01*
X186103800Y-83929875D01*
X186013350Y-83680462D01*
X185955320Y-83416111D01*
X185927947Y-83129985D01*
X185925161Y-82994083D01*
X185929469Y-82796170D01*
X185943653Y-82626640D01*
X185969670Y-82472292D01*
X186009482Y-82319921D01*
X186038430Y-82230833D01*
X186040471Y-82224204D01*
X187077257Y-82224204D01*
X187077810Y-82474015D01*
X187078755Y-82760899D01*
X187079802Y-83059241D01*
X187085750Y-84796565D01*
X187146691Y-84876453D01*
X187206447Y-84940636D01*
X187275452Y-84982449D01*
X187363725Y-85005746D01*
X187481289Y-85014378D01*
X187506201Y-85014671D01*
X187604924Y-85012162D01*
X187675490Y-85001836D01*
X187731731Y-84981256D01*
X187749618Y-84971734D01*
X187811057Y-84928600D01*
X187862613Y-84879120D01*
X187868917Y-84871192D01*
X187876427Y-84860211D01*
X187883005Y-84846896D01*
X187888722Y-84828494D01*
X187893650Y-84802256D01*
X187897861Y-84765428D01*
X187901426Y-84715260D01*
X187904418Y-84649000D01*
X187906908Y-84563897D01*
X187908969Y-84457199D01*
X187910671Y-84326155D01*
X187912088Y-84168013D01*
X187913291Y-83980022D01*
X187914351Y-83759431D01*
X187915342Y-83503487D01*
X187915434Y-83476183D01*
X188791460Y-83476183D01*
X188804674Y-83660836D01*
X188832492Y-83854909D01*
X188873968Y-84048683D01*
X188910766Y-84179417D01*
X188934994Y-84252793D01*
X188970887Y-84356328D01*
X189015093Y-84480601D01*
X189064257Y-84616191D01*
X189115027Y-84753677D01*
X189118330Y-84762530D01*
X189169801Y-84903455D01*
X189220086Y-85046720D01*
X189265668Y-85181896D01*
X189303032Y-85298553D01*
X189328663Y-85386263D01*
X189328844Y-85386946D01*
X189353219Y-85478009D01*
X189374182Y-85555170D01*
X189388969Y-85608313D01*
X189394054Y-85625474D01*
X189414798Y-85628951D01*
X189463027Y-85606630D01*
X189534829Y-85561112D01*
X189626295Y-85494996D01*
X189733512Y-85410882D01*
X189802269Y-85354123D01*
X189961031Y-85205301D01*
X190106747Y-85038805D01*
X190232869Y-84863639D01*
X190332849Y-84688801D01*
X190395041Y-84539250D01*
X190410065Y-84485413D01*
X190429880Y-84402803D01*
X190452615Y-84300600D01*
X190476402Y-84187988D01*
X190499373Y-84074149D01*
X190519658Y-83968265D01*
X190535388Y-83879519D01*
X190544696Y-83817092D01*
X190546420Y-83795470D01*
X190528541Y-83777517D01*
X190483142Y-83752293D01*
X190451826Y-83738383D01*
X190311830Y-83664249D01*
X190196711Y-83569567D01*
X190130333Y-83486318D01*
X190073087Y-83374744D01*
X190028440Y-83247130D01*
X190001973Y-83121740D01*
X189997157Y-83050406D01*
X189998147Y-82951750D01*
X190036936Y-83050952D01*
X190070779Y-83128235D01*
X190109150Y-83203124D01*
X190121563Y-83224322D01*
X190175172Y-83295416D01*
X190248380Y-83371630D01*
X190332667Y-83446226D01*
X190419514Y-83512469D01*
X190500399Y-83563621D01*
X190566803Y-83592945D01*
X190593318Y-83597333D01*
X190617960Y-83580059D01*
X190651339Y-83535818D01*
X190672457Y-83499687D01*
X190771438Y-83347505D01*
X190887389Y-83228978D01*
X191016815Y-83145967D01*
X191156221Y-83100332D01*
X191302112Y-83093934D01*
X191400443Y-83112161D01*
X191456821Y-83126635D01*
X191485557Y-83124851D01*
X191499988Y-83101177D01*
X191507396Y-83073385D01*
X191731833Y-83073385D01*
X191735647Y-83116855D01*
X191755363Y-83128569D01*
X191790042Y-83122303D01*
X191950507Y-83095716D01*
X192088491Y-83101259D01*
X192194034Y-83132194D01*
X192293805Y-83191672D01*
X192395430Y-83281009D01*
X192488367Y-83389587D01*
X192557735Y-83498478D01*
X192592045Y-83554146D01*
X192623320Y-83590001D01*
X192637515Y-83597333D01*
X192688337Y-83583713D01*
X192761644Y-83546198D01*
X192849003Y-83489810D01*
X192941980Y-83419570D01*
X192957360Y-83406928D01*
X193031093Y-83339972D01*
X193087534Y-83272444D01*
X193138329Y-83188989D01*
X193170330Y-83126133D01*
X193210041Y-83046624D01*
X193235374Y-83001866D01*
X193249350Y-82988016D01*
X193254991Y-83001232D01*
X193255633Y-83017652D01*
X193244755Y-83137775D01*
X193215020Y-83269605D01*
X193171745Y-83390100D01*
X193167613Y-83399081D01*
X193082171Y-83531899D01*
X192961712Y-83644402D01*
X192819826Y-83728418D01*
X192753220Y-83760276D01*
X192704866Y-83784719D01*
X192684467Y-83796825D01*
X192684333Y-83797124D01*
X192688222Y-83818562D01*
X192699011Y-83874747D01*
X192715382Y-83958896D01*
X192736015Y-84064230D01*
X192755881Y-84165155D01*
X192790697Y-84331678D01*
X192823165Y-84464083D01*
X192855519Y-84570335D01*
X192889992Y-84658400D01*
X192900733Y-84681734D01*
X192986224Y-84835244D01*
X193097414Y-84996449D01*
X193223638Y-85151364D01*
X193354237Y-85286001D01*
X193377513Y-85307116D01*
X193442233Y-85361874D01*
X193520142Y-85423857D01*
X193603733Y-85487579D01*
X193685502Y-85547552D01*
X193757944Y-85598288D01*
X193813553Y-85634300D01*
X193844824Y-85650098D01*
X193846977Y-85650385D01*
X193856997Y-85631237D01*
X193873935Y-85579914D01*
X193894966Y-85505437D01*
X193907348Y-85457499D01*
X193928998Y-85380885D01*
X193962819Y-85273397D01*
X194005900Y-85143718D01*
X194055330Y-85000528D01*
X194108196Y-84852509D01*
X194132725Y-84785571D01*
X194185586Y-84640849D01*
X194236054Y-84499511D01*
X194281344Y-84369607D01*
X194318666Y-84259186D01*
X194345234Y-84176298D01*
X194353622Y-84147667D01*
X194406751Y-83924827D01*
X194442211Y-83709081D01*
X194455400Y-83554815D01*
X195249109Y-83554815D01*
X195249582Y-83837557D01*
X195250771Y-84078373D01*
X195252677Y-84277398D01*
X195255301Y-84434764D01*
X195258644Y-84550607D01*
X195262708Y-84625059D01*
X195266737Y-84655930D01*
X195300666Y-84736787D01*
X195352960Y-84813165D01*
X195412636Y-84870681D01*
X195444857Y-84889159D01*
X195487038Y-84898040D01*
X195557165Y-84904843D01*
X195640855Y-84908223D01*
X195649828Y-84908325D01*
X195740426Y-84906761D01*
X195802660Y-84898402D01*
X195850308Y-84880483D01*
X195880511Y-84862042D01*
X195938695Y-84809619D01*
X195986490Y-84746065D01*
X195989474Y-84740663D01*
X195996486Y-84725845D01*
X196002610Y-84707663D01*
X196007906Y-84683323D01*
X196012433Y-84650030D01*
X196016252Y-84604988D01*
X196019423Y-84545403D01*
X196022005Y-84468479D01*
X196024058Y-84371421D01*
X196025643Y-84251433D01*
X196026819Y-84105722D01*
X196027646Y-83931490D01*
X196028185Y-83725944D01*
X196028494Y-83486288D01*
X196028635Y-83209727D01*
X196028667Y-82912946D01*
X196028703Y-82590960D01*
X196028686Y-82308575D01*
X196028427Y-82063057D01*
X196027736Y-81851674D01*
X196026423Y-81671693D01*
X196024299Y-81520382D01*
X196021174Y-81395008D01*
X196016860Y-81292837D01*
X196011167Y-81211138D01*
X196003904Y-81147177D01*
X195994884Y-81098221D01*
X195983916Y-81061539D01*
X195970811Y-81034397D01*
X195955379Y-81014062D01*
X195937431Y-80997802D01*
X195916778Y-80982885D01*
X195893765Y-80966958D01*
X195847070Y-80940639D01*
X195789199Y-80924386D01*
X195707540Y-80915295D01*
X195658250Y-80912707D01*
X195569020Y-80910561D01*
X195508761Y-80914654D01*
X195464294Y-80927293D01*
X195422438Y-80950785D01*
X195415978Y-80955112D01*
X195355676Y-81007597D01*
X195304373Y-81070768D01*
X195299561Y-81078572D01*
X195291704Y-81092760D01*
X195284842Y-81108683D01*
X195278899Y-81129178D01*
X195273794Y-81157084D01*
X195269451Y-81195240D01*
X195265791Y-81246483D01*
X195262734Y-81313653D01*
X195260204Y-81399587D01*
X195258121Y-81507125D01*
X195256408Y-81639104D01*
X195254986Y-81798364D01*
X195253776Y-81987742D01*
X195252700Y-82210078D01*
X195251680Y-82468209D01*
X195250638Y-82764974D01*
X195250306Y-82863017D01*
X195249351Y-83230013D01*
X195249109Y-83554815D01*
X194455400Y-83554815D01*
X194459430Y-83507682D01*
X194457838Y-83327883D01*
X194436867Y-83176938D01*
X194431586Y-83155615D01*
X194358507Y-82961419D01*
X194249029Y-82783517D01*
X194107668Y-82627334D01*
X193938939Y-82498299D01*
X193837308Y-82441457D01*
X193670491Y-82359083D01*
X193330870Y-82362422D01*
X193188455Y-82365020D01*
X193069490Y-82370707D01*
X192959571Y-82381011D01*
X192844298Y-82397458D01*
X192709268Y-82421576D01*
X192632299Y-82436505D01*
X192273348Y-82507250D01*
X192246636Y-82599677D01*
X192189006Y-82725503D01*
X192096619Y-82834949D01*
X191975674Y-82922339D01*
X191832372Y-82981999D01*
X191827430Y-82983403D01*
X191768721Y-83002762D01*
X191740611Y-83024216D01*
X191732167Y-83058057D01*
X191731833Y-83073385D01*
X191507396Y-83073385D01*
X191509313Y-83066196D01*
X191513786Y-83035205D01*
X191502761Y-83013236D01*
X191468129Y-82992991D01*
X191401785Y-82967176D01*
X191397592Y-82965646D01*
X191247061Y-82895823D01*
X191132405Y-82807603D01*
X191049755Y-82697168D01*
X190998357Y-82571633D01*
X190988333Y-82544010D01*
X190972125Y-82523879D01*
X190941971Y-82507850D01*
X190890112Y-82492534D01*
X190808789Y-82474541D01*
X190747384Y-82462012D01*
X190480796Y-82412075D01*
X190248914Y-82377278D01*
X190047121Y-82357091D01*
X189870796Y-82350981D01*
X189796840Y-82352757D01*
X189691311Y-82358804D01*
X189613093Y-82368193D01*
X189547163Y-82384369D01*
X189478499Y-82410775D01*
X189413445Y-82440659D01*
X189249240Y-82539593D01*
X189100611Y-82669747D01*
X188974174Y-82823047D01*
X188876543Y-82991417D01*
X188814336Y-83166782D01*
X188812638Y-83174000D01*
X188793798Y-83310665D01*
X188791460Y-83476183D01*
X187915434Y-83476183D01*
X187916333Y-83209440D01*
X187916892Y-83034775D01*
X187922534Y-81255133D01*
X187874559Y-81184638D01*
X187822288Y-81115892D01*
X187769715Y-81069998D01*
X187706534Y-81042572D01*
X187622437Y-81029230D01*
X187507119Y-81025589D01*
X187500592Y-81025583D01*
X187403394Y-81026447D01*
X187337437Y-81030551D01*
X187291641Y-81040168D01*
X187254924Y-81057566D01*
X187218284Y-81083427D01*
X187193169Y-81102229D01*
X187171138Y-81119703D01*
X187151998Y-81138591D01*
X187135556Y-81161637D01*
X187121620Y-81191583D01*
X187109998Y-81231173D01*
X187100498Y-81283149D01*
X187092928Y-81350254D01*
X187087094Y-81435232D01*
X187082806Y-81540825D01*
X187079870Y-81669775D01*
X187078095Y-81824827D01*
X187077288Y-82008722D01*
X187077257Y-82224204D01*
X186040471Y-82224204D01*
X186053155Y-82183030D01*
X186064040Y-82132621D01*
X186071643Y-82072346D01*
X186076522Y-81994946D01*
X186079234Y-81893162D01*
X186080337Y-81759736D01*
X186080458Y-81683728D01*
X186083356Y-81453887D01*
X186092620Y-81256678D01*
X186109323Y-81082728D01*
X186134539Y-80922668D01*
X186169341Y-80767127D01*
X186169932Y-80764967D01*
X187057254Y-80764967D01*
X187061567Y-80777863D01*
X187085747Y-80773252D01*
X187137374Y-80751157D01*
X187173017Y-80734858D01*
X187265338Y-80706470D01*
X187384526Y-80689467D01*
X187516625Y-80684031D01*
X187647677Y-80690347D01*
X187763726Y-80708597D01*
X187822927Y-80726333D01*
X187925104Y-80765750D01*
X187958602Y-80717924D01*
X188054610Y-80601061D01*
X188163674Y-80512152D01*
X188260411Y-80457014D01*
X188428603Y-80391095D01*
X188590999Y-80365630D01*
X188752123Y-80380016D01*
X188783495Y-80387340D01*
X188908913Y-80419471D01*
X189055665Y-80280504D01*
X189366996Y-80011865D01*
X189691793Y-79783129D01*
X190031155Y-79593711D01*
X190386176Y-79443029D01*
X190757954Y-79330500D01*
X190903132Y-79297769D01*
X191040614Y-79275744D01*
X191208099Y-79258570D01*
X191393488Y-79246682D01*
X191584680Y-79240517D01*
X191769577Y-79240511D01*
X191936080Y-79247100D01*
X192042245Y-79256710D01*
X192416171Y-79323410D01*
X192779912Y-79430185D01*
X193129809Y-79575280D01*
X193462201Y-79756943D01*
X193773429Y-79973420D01*
X194059834Y-80222958D01*
X194060405Y-80223514D01*
X194240560Y-80398937D01*
X194335571Y-80377082D01*
X194469217Y-80364485D01*
X194620210Y-80381573D01*
X194771869Y-80425131D01*
X194863984Y-80469869D01*
X194955043Y-80537462D01*
X195022077Y-80600293D01*
X195152375Y-80730591D01*
X195244068Y-80672632D01*
X195378451Y-80611232D01*
X195538106Y-80579041D01*
X195716491Y-80577340D01*
X195726640Y-80578150D01*
X195879697Y-80591059D01*
X195826038Y-80469654D01*
X195726011Y-80275074D01*
X195595965Y-80071828D01*
X195443468Y-79870726D01*
X195276089Y-79682578D01*
X195272022Y-79678383D01*
X195155880Y-79558850D01*
X195089224Y-79598178D01*
X194976467Y-79647775D01*
X194839275Y-79682130D01*
X194693807Y-79698015D01*
X194597034Y-79696516D01*
X194538847Y-79690982D01*
X194484603Y-79682260D01*
X194427813Y-79668071D01*
X194361986Y-79646139D01*
X194280634Y-79614186D01*
X194177269Y-79569935D01*
X194045399Y-79511108D01*
X193964917Y-79474687D01*
X193544955Y-79306232D01*
X193105911Y-79173518D01*
X192646714Y-79076347D01*
X192166294Y-79014523D01*
X191663582Y-78987850D01*
X191319083Y-78989405D01*
X190837264Y-79017664D01*
X190380049Y-79077255D01*
X189942372Y-79169313D01*
X189519168Y-79294976D01*
X189105370Y-79455378D01*
X188969583Y-79516330D01*
X188817885Y-79584802D01*
X188695364Y-79635077D01*
X188594217Y-79669563D01*
X188506642Y-79690670D01*
X188424838Y-79700807D01*
X188366167Y-79702667D01*
X188242298Y-79692860D01*
X188113023Y-79666313D01*
X187995520Y-79627332D01*
X187924447Y-79591908D01*
X187850546Y-79546234D01*
X187682822Y-79724992D01*
X187546725Y-79883192D01*
X187415524Y-80060259D01*
X187295055Y-80246655D01*
X187191152Y-80432845D01*
X187109649Y-80609288D01*
X187065225Y-80734542D01*
X187057254Y-80764967D01*
X186169932Y-80764967D01*
X186197071Y-80665866D01*
X186308919Y-80355606D01*
X186460816Y-80052753D01*
X186650813Y-79759404D01*
X186876958Y-79477654D01*
X187137301Y-79209598D01*
X187429894Y-78957332D01*
X187752785Y-78722953D01*
X188104026Y-78508555D01*
X188302833Y-78402819D01*
X188759388Y-78192923D01*
X189228349Y-78019545D01*
X189712504Y-77882009D01*
X190214638Y-77779637D01*
X190737537Y-77711753D01*
X191283989Y-77677678D01*
X191287333Y-77677575D01*
X191798457Y-77678816D01*
M02*
