G04 #@! TF.GenerationSoftware,KiCad,Pcbnew,5.1.5+dfsg1-2build2*
G04 #@! TF.CreationDate,2021-03-02T22:15:09+01:00*
G04 #@! TF.ProjectId,front,66726f6e-742e-46b6-9963-61645f706362,rev?*
G04 #@! TF.SameCoordinates,Original*
G04 #@! TF.FileFunction,Legend,Top*
G04 #@! TF.FilePolarity,Positive*
%FSLAX46Y46*%
G04 Gerber Fmt 4.6, Leading zero omitted, Abs format (unit mm)*
G04 Created by KiCad (PCBNEW 5.1.5+dfsg1-2build2) date 2021-03-02 22:15:09*
%MOMM*%
%LPD*%
G04 APERTURE LIST*
%ADD10C,0.200000*%
%ADD11C,0.400000*%
%ADD12C,0.180000*%
%ADD13C,0.010000*%
G04 APERTURE END LIST*
D10*
X130000000Y-70000000D02*
X129500000Y-70000000D01*
X134500000Y-71300000D02*
X134500000Y-70000000D01*
X144500000Y-70000000D02*
X144000000Y-70000000D01*
X134500000Y-70000000D02*
X134000000Y-70000000D01*
X139500000Y-71300000D02*
X139500000Y-70000000D01*
X140000000Y-70000000D02*
X139500000Y-70000000D01*
X130480952Y-69397619D02*
X131161904Y-69397619D01*
X130795238Y-69816666D01*
X130952380Y-69816666D01*
X131057142Y-69869047D01*
X131109523Y-69921428D01*
X131161904Y-70026190D01*
X131161904Y-70288095D01*
X131109523Y-70392857D01*
X131057142Y-70445238D01*
X130952380Y-70497619D01*
X130638095Y-70497619D01*
X130533333Y-70445238D01*
X130480952Y-70392857D01*
X131842857Y-69397619D02*
X131947619Y-69397619D01*
X132052380Y-69450000D01*
X132104761Y-69502380D01*
X132157142Y-69607142D01*
X132209523Y-69816666D01*
X132209523Y-70078571D01*
X132157142Y-70288095D01*
X132104761Y-70392857D01*
X132052380Y-70445238D01*
X131947619Y-70497619D01*
X131842857Y-70497619D01*
X131738095Y-70445238D01*
X131685714Y-70392857D01*
X131633333Y-70288095D01*
X131580952Y-70078571D01*
X131580952Y-69816666D01*
X131633333Y-69607142D01*
X131685714Y-69502380D01*
X131738095Y-69450000D01*
X131842857Y-69397619D01*
X132576190Y-69397619D02*
X132838095Y-70497619D01*
X133047619Y-69711904D01*
X133257142Y-70497619D01*
X133519047Y-69397619D01*
X144500000Y-71300000D02*
X144500000Y-70000000D01*
X140480952Y-69397619D02*
X141161904Y-69397619D01*
X140795238Y-69816666D01*
X140952380Y-69816666D01*
X141057142Y-69869047D01*
X141109523Y-69921428D01*
X141161904Y-70026190D01*
X141161904Y-70288095D01*
X141109523Y-70392857D01*
X141057142Y-70445238D01*
X140952380Y-70497619D01*
X140638095Y-70497619D01*
X140533333Y-70445238D01*
X140480952Y-70392857D01*
X141842857Y-69397619D02*
X141947619Y-69397619D01*
X142052380Y-69450000D01*
X142104761Y-69502380D01*
X142157142Y-69607142D01*
X142209523Y-69816666D01*
X142209523Y-70078571D01*
X142157142Y-70288095D01*
X142104761Y-70392857D01*
X142052380Y-70445238D01*
X141947619Y-70497619D01*
X141842857Y-70497619D01*
X141738095Y-70445238D01*
X141685714Y-70392857D01*
X141633333Y-70288095D01*
X141580952Y-70078571D01*
X141580952Y-69816666D01*
X141633333Y-69607142D01*
X141685714Y-69502380D01*
X141738095Y-69450000D01*
X141842857Y-69397619D01*
X142576190Y-69397619D02*
X142838095Y-70497619D01*
X143047619Y-69711904D01*
X143257142Y-70497619D01*
X143519047Y-69397619D01*
X129500000Y-71300000D02*
X129500000Y-70000000D01*
X112000000Y-70000000D02*
X111500000Y-70000000D01*
X112000000Y-71300000D02*
X112000000Y-70000000D01*
X117500000Y-70000000D02*
X117000000Y-70000000D01*
X117000000Y-71300000D02*
X117000000Y-70000000D01*
X107500000Y-70000000D02*
X107000000Y-70000000D01*
X112300000Y-68400000D02*
X107000000Y-68400000D01*
X107000000Y-71300000D02*
X107000000Y-68400000D01*
X122000000Y-70000000D02*
X121500000Y-70000000D01*
X122000000Y-68400000D02*
X116700000Y-68400000D01*
X122000000Y-71300000D02*
X122000000Y-68400000D01*
X113607142Y-67847619D02*
X113397619Y-67847619D01*
X113292857Y-67900000D01*
X113240476Y-67952380D01*
X113135714Y-68109523D01*
X113083333Y-68319047D01*
X113083333Y-68738095D01*
X113135714Y-68842857D01*
X113188095Y-68895238D01*
X113292857Y-68947619D01*
X113502380Y-68947619D01*
X113607142Y-68895238D01*
X113659523Y-68842857D01*
X113711904Y-68738095D01*
X113711904Y-68476190D01*
X113659523Y-68371428D01*
X113607142Y-68319047D01*
X113502380Y-68266666D01*
X113292857Y-68266666D01*
X113188095Y-68319047D01*
X113135714Y-68371428D01*
X113083333Y-68476190D01*
X114392857Y-67847619D02*
X114497619Y-67847619D01*
X114602380Y-67900000D01*
X114654761Y-67952380D01*
X114707142Y-68057142D01*
X114759523Y-68266666D01*
X114759523Y-68528571D01*
X114707142Y-68738095D01*
X114654761Y-68842857D01*
X114602380Y-68895238D01*
X114497619Y-68947619D01*
X114392857Y-68947619D01*
X114288095Y-68895238D01*
X114235714Y-68842857D01*
X114183333Y-68738095D01*
X114130952Y-68528571D01*
X114130952Y-68266666D01*
X114183333Y-68057142D01*
X114235714Y-67952380D01*
X114288095Y-67900000D01*
X114392857Y-67847619D01*
X115126190Y-67847619D02*
X115388095Y-68947619D01*
X115597619Y-68161904D01*
X115807142Y-68947619D01*
X116069047Y-67847619D01*
X107980952Y-69397619D02*
X108661904Y-69397619D01*
X108295238Y-69816666D01*
X108452380Y-69816666D01*
X108557142Y-69869047D01*
X108609523Y-69921428D01*
X108661904Y-70026190D01*
X108661904Y-70288095D01*
X108609523Y-70392857D01*
X108557142Y-70445238D01*
X108452380Y-70497619D01*
X108138095Y-70497619D01*
X108033333Y-70445238D01*
X107980952Y-70392857D01*
X109342857Y-69397619D02*
X109447619Y-69397619D01*
X109552380Y-69450000D01*
X109604761Y-69502380D01*
X109657142Y-69607142D01*
X109709523Y-69816666D01*
X109709523Y-70078571D01*
X109657142Y-70288095D01*
X109604761Y-70392857D01*
X109552380Y-70445238D01*
X109447619Y-70497619D01*
X109342857Y-70497619D01*
X109238095Y-70445238D01*
X109185714Y-70392857D01*
X109133333Y-70288095D01*
X109080952Y-70078571D01*
X109080952Y-69816666D01*
X109133333Y-69607142D01*
X109185714Y-69502380D01*
X109238095Y-69450000D01*
X109342857Y-69397619D01*
X110076190Y-69397619D02*
X110338095Y-70497619D01*
X110547619Y-69711904D01*
X110757142Y-70497619D01*
X111019047Y-69397619D01*
X117980952Y-69397619D02*
X118661904Y-69397619D01*
X118295238Y-69816666D01*
X118452380Y-69816666D01*
X118557142Y-69869047D01*
X118609523Y-69921428D01*
X118661904Y-70026190D01*
X118661904Y-70288095D01*
X118609523Y-70392857D01*
X118557142Y-70445238D01*
X118452380Y-70497619D01*
X118138095Y-70497619D01*
X118033333Y-70445238D01*
X117980952Y-70392857D01*
X119342857Y-69397619D02*
X119447619Y-69397619D01*
X119552380Y-69450000D01*
X119604761Y-69502380D01*
X119657142Y-69607142D01*
X119709523Y-69816666D01*
X119709523Y-70078571D01*
X119657142Y-70288095D01*
X119604761Y-70392857D01*
X119552380Y-70445238D01*
X119447619Y-70497619D01*
X119342857Y-70497619D01*
X119238095Y-70445238D01*
X119185714Y-70392857D01*
X119133333Y-70288095D01*
X119080952Y-70078571D01*
X119080952Y-69816666D01*
X119133333Y-69607142D01*
X119185714Y-69502380D01*
X119238095Y-69450000D01*
X119342857Y-69397619D01*
X120076190Y-69397619D02*
X120338095Y-70497619D01*
X120547619Y-69711904D01*
X120757142Y-70497619D01*
X121019047Y-69397619D01*
D11*
X109785714Y-64504761D02*
X110261904Y-66504761D01*
X110642857Y-65076190D01*
X111023809Y-66504761D01*
X111500000Y-64504761D01*
X112547619Y-66504761D02*
X112357142Y-66409523D01*
X112261904Y-66314285D01*
X112166666Y-66123809D01*
X112166666Y-65552380D01*
X112261904Y-65361904D01*
X112357142Y-65266666D01*
X112547619Y-65171428D01*
X112833333Y-65171428D01*
X113023809Y-65266666D01*
X113119047Y-65361904D01*
X113214285Y-65552380D01*
X113214285Y-66123809D01*
X113119047Y-66314285D01*
X113023809Y-66409523D01*
X112833333Y-66504761D01*
X112547619Y-66504761D01*
X114357142Y-66504761D02*
X114166666Y-66409523D01*
X114071428Y-66314285D01*
X113976190Y-66123809D01*
X113976190Y-65552380D01*
X114071428Y-65361904D01*
X114166666Y-65266666D01*
X114357142Y-65171428D01*
X114642857Y-65171428D01*
X114833333Y-65266666D01*
X114928571Y-65361904D01*
X115023809Y-65552380D01*
X115023809Y-66123809D01*
X114928571Y-66314285D01*
X114833333Y-66409523D01*
X114642857Y-66504761D01*
X114357142Y-66504761D01*
X115595238Y-65171428D02*
X116357142Y-65171428D01*
X115880952Y-66504761D02*
X115880952Y-64790476D01*
X115976190Y-64600000D01*
X116166666Y-64504761D01*
X116357142Y-64504761D01*
X117785714Y-66409523D02*
X117595238Y-66504761D01*
X117214285Y-66504761D01*
X117023809Y-66409523D01*
X116928571Y-66219047D01*
X116928571Y-65457142D01*
X117023809Y-65266666D01*
X117214285Y-65171428D01*
X117595238Y-65171428D01*
X117785714Y-65266666D01*
X117880952Y-65457142D01*
X117880952Y-65647619D01*
X116928571Y-65838095D01*
X118738095Y-66504761D02*
X118738095Y-65171428D01*
X118738095Y-65552380D02*
X118833333Y-65361904D01*
X118928571Y-65266666D01*
X119119047Y-65171428D01*
X119309523Y-65171428D01*
X134047619Y-66504761D02*
X134047619Y-64504761D01*
X134714285Y-65933333D01*
X135380952Y-64504761D01*
X135380952Y-66504761D01*
X137190476Y-66504761D02*
X137190476Y-65457142D01*
X137095238Y-65266666D01*
X136904761Y-65171428D01*
X136523809Y-65171428D01*
X136333333Y-65266666D01*
X137190476Y-66409523D02*
X137000000Y-66504761D01*
X136523809Y-66504761D01*
X136333333Y-66409523D01*
X136238095Y-66219047D01*
X136238095Y-66028571D01*
X136333333Y-65838095D01*
X136523809Y-65742857D01*
X137000000Y-65742857D01*
X137190476Y-65647619D01*
X138142857Y-66504761D02*
X138142857Y-65171428D01*
X138142857Y-64504761D02*
X138047619Y-64600000D01*
X138142857Y-64695238D01*
X138238095Y-64600000D01*
X138142857Y-64504761D01*
X138142857Y-64695238D01*
X139095238Y-65171428D02*
X139095238Y-66504761D01*
X139095238Y-65361904D02*
X139190476Y-65266666D01*
X139380952Y-65171428D01*
X139666666Y-65171428D01*
X139857142Y-65266666D01*
X139952380Y-65457142D01*
X139952380Y-66504761D01*
D10*
X106388095Y-86107142D02*
X106573809Y-86169047D01*
X106635714Y-86230952D01*
X106697619Y-86354761D01*
X106697619Y-86540476D01*
X106635714Y-86664285D01*
X106573809Y-86726190D01*
X106450000Y-86788095D01*
X105954761Y-86788095D01*
X105954761Y-85488095D01*
X106388095Y-85488095D01*
X106511904Y-85550000D01*
X106573809Y-85611904D01*
X106635714Y-85735714D01*
X106635714Y-85859523D01*
X106573809Y-85983333D01*
X106511904Y-86045238D01*
X106388095Y-86107142D01*
X105954761Y-86107142D01*
X107254761Y-86292857D02*
X108245238Y-86292857D01*
X111388095Y-86107142D02*
X111573809Y-86169047D01*
X111635714Y-86230952D01*
X111697619Y-86354761D01*
X111697619Y-86540476D01*
X111635714Y-86664285D01*
X111573809Y-86726190D01*
X111450000Y-86788095D01*
X110954761Y-86788095D01*
X110954761Y-85488095D01*
X111388095Y-85488095D01*
X111511904Y-85550000D01*
X111573809Y-85611904D01*
X111635714Y-85735714D01*
X111635714Y-85859523D01*
X111573809Y-85983333D01*
X111511904Y-86045238D01*
X111388095Y-86107142D01*
X110954761Y-86107142D01*
X112254761Y-86292857D02*
X113245238Y-86292857D01*
X112750000Y-86788095D02*
X112750000Y-85797619D01*
X115985714Y-86416666D02*
X116604761Y-86416666D01*
X115861904Y-86788095D02*
X116295238Y-85488095D01*
X116728571Y-86788095D01*
X117161904Y-86292857D02*
X118152380Y-86292857D01*
X120985714Y-86416666D02*
X121604761Y-86416666D01*
X120861904Y-86788095D02*
X121295238Y-85488095D01*
X121728571Y-86788095D01*
X122161904Y-86292857D02*
X123152380Y-86292857D01*
X122657142Y-86788095D02*
X122657142Y-85797619D01*
X128888095Y-86107142D02*
X129073809Y-86169047D01*
X129135714Y-86230952D01*
X129197619Y-86354761D01*
X129197619Y-86540476D01*
X129135714Y-86664285D01*
X129073809Y-86726190D01*
X128950000Y-86788095D01*
X128454761Y-86788095D01*
X128454761Y-85488095D01*
X128888095Y-85488095D01*
X129011904Y-85550000D01*
X129073809Y-85611904D01*
X129135714Y-85735714D01*
X129135714Y-85859523D01*
X129073809Y-85983333D01*
X129011904Y-86045238D01*
X128888095Y-86107142D01*
X128454761Y-86107142D01*
X129754761Y-86292857D02*
X130745238Y-86292857D01*
X133888095Y-86107142D02*
X134073809Y-86169047D01*
X134135714Y-86230952D01*
X134197619Y-86354761D01*
X134197619Y-86540476D01*
X134135714Y-86664285D01*
X134073809Y-86726190D01*
X133950000Y-86788095D01*
X133454761Y-86788095D01*
X133454761Y-85488095D01*
X133888095Y-85488095D01*
X134011904Y-85550000D01*
X134073809Y-85611904D01*
X134135714Y-85735714D01*
X134135714Y-85859523D01*
X134073809Y-85983333D01*
X134011904Y-86045238D01*
X133888095Y-86107142D01*
X133454761Y-86107142D01*
X134754761Y-86292857D02*
X135745238Y-86292857D01*
X135250000Y-86788095D02*
X135250000Y-85797619D01*
X138485714Y-86416666D02*
X139104761Y-86416666D01*
X138361904Y-86788095D02*
X138795238Y-85488095D01*
X139228571Y-86788095D01*
X139661904Y-86292857D02*
X140652380Y-86292857D01*
X143485714Y-86416666D02*
X144104761Y-86416666D01*
X143361904Y-86788095D02*
X143795238Y-85488095D01*
X144228571Y-86788095D01*
X144661904Y-86292857D02*
X145652380Y-86292857D01*
X145157142Y-86788095D02*
X145157142Y-85797619D01*
D11*
X153885714Y-87957142D02*
X154552380Y-87957142D01*
X154838095Y-89004761D02*
X153885714Y-89004761D01*
X153885714Y-87004761D01*
X154838095Y-87004761D01*
X155409523Y-87671428D02*
X156171428Y-87671428D01*
X155695238Y-87004761D02*
X155695238Y-88719047D01*
X155790476Y-88909523D01*
X155980952Y-89004761D01*
X156171428Y-89004761D01*
X156838095Y-89004761D02*
X156838095Y-87004761D01*
X157695238Y-89004761D02*
X157695238Y-87957142D01*
X157600000Y-87766666D01*
X157409523Y-87671428D01*
X157123809Y-87671428D01*
X156933333Y-87766666D01*
X156838095Y-87861904D01*
X159409523Y-88909523D02*
X159219047Y-89004761D01*
X158838095Y-89004761D01*
X158647619Y-88909523D01*
X158552380Y-88719047D01*
X158552380Y-87957142D01*
X158647619Y-87766666D01*
X158838095Y-87671428D01*
X159219047Y-87671428D01*
X159409523Y-87766666D01*
X159504761Y-87957142D01*
X159504761Y-88147619D01*
X158552380Y-88338095D01*
X160361904Y-89004761D02*
X160361904Y-87671428D01*
X160361904Y-88052380D02*
X160457142Y-87861904D01*
X160552380Y-87766666D01*
X160742857Y-87671428D01*
X160933333Y-87671428D01*
X161600000Y-87671428D02*
X161600000Y-89004761D01*
X161600000Y-87861904D02*
X161695238Y-87766666D01*
X161885714Y-87671428D01*
X162171428Y-87671428D01*
X162361904Y-87766666D01*
X162457142Y-87957142D01*
X162457142Y-89004761D01*
X164171428Y-88909523D02*
X163980952Y-89004761D01*
X163600000Y-89004761D01*
X163409523Y-88909523D01*
X163314285Y-88719047D01*
X163314285Y-87957142D01*
X163409523Y-87766666D01*
X163600000Y-87671428D01*
X163980952Y-87671428D01*
X164171428Y-87766666D01*
X164266666Y-87957142D01*
X164266666Y-88147619D01*
X163314285Y-88338095D01*
X164838095Y-87671428D02*
X165600000Y-87671428D01*
X165123809Y-87004761D02*
X165123809Y-88719047D01*
X165219047Y-88909523D01*
X165409523Y-89004761D01*
X165600000Y-89004761D01*
X108945714Y-91457142D02*
X109517142Y-91457142D01*
X109802857Y-91600000D01*
X110088571Y-91885714D01*
X110231428Y-92457142D01*
X110231428Y-93457142D01*
X110088571Y-94028571D01*
X109802857Y-94314285D01*
X109517142Y-94457142D01*
X108945714Y-94457142D01*
X108660000Y-94314285D01*
X108374285Y-94028571D01*
X108231428Y-93457142D01*
X108231428Y-92457142D01*
X108374285Y-91885714D01*
X108660000Y-91600000D01*
X108945714Y-91457142D01*
X111088571Y-92457142D02*
X112231428Y-92457142D01*
X111517142Y-91457142D02*
X111517142Y-94028571D01*
X111660000Y-94314285D01*
X111945714Y-94457142D01*
X112231428Y-94457142D01*
X112802857Y-92457142D02*
X113945714Y-92457142D01*
X113231428Y-91457142D02*
X113231428Y-94028571D01*
X113374285Y-94314285D01*
X113660000Y-94457142D01*
X113945714Y-94457142D01*
X116088571Y-94314285D02*
X115802857Y-94457142D01*
X115231428Y-94457142D01*
X114945714Y-94314285D01*
X114802857Y-94028571D01*
X114802857Y-92885714D01*
X114945714Y-92600000D01*
X115231428Y-92457142D01*
X115802857Y-92457142D01*
X116088571Y-92600000D01*
X116231428Y-92885714D01*
X116231428Y-93171428D01*
X114802857Y-93457142D01*
X117517142Y-94457142D02*
X117517142Y-92457142D01*
X117517142Y-93028571D02*
X117660000Y-92742857D01*
X117802857Y-92600000D01*
X118088571Y-92457142D01*
X118374285Y-92457142D01*
X121088571Y-94171428D02*
X120945714Y-94314285D01*
X120517142Y-94457142D01*
X120231428Y-94457142D01*
X119802857Y-94314285D01*
X119517142Y-94028571D01*
X119374285Y-93742857D01*
X119231428Y-93171428D01*
X119231428Y-92742857D01*
X119374285Y-92171428D01*
X119517142Y-91885714D01*
X119802857Y-91600000D01*
X120231428Y-91457142D01*
X120517142Y-91457142D01*
X120945714Y-91600000D01*
X121088571Y-91742857D01*
X123660000Y-94457142D02*
X123660000Y-92885714D01*
X123517142Y-92600000D01*
X123231428Y-92457142D01*
X122660000Y-92457142D01*
X122374285Y-92600000D01*
X123660000Y-94314285D02*
X123374285Y-94457142D01*
X122660000Y-94457142D01*
X122374285Y-94314285D01*
X122231428Y-94028571D01*
X122231428Y-93742857D01*
X122374285Y-93457142D01*
X122660000Y-93314285D01*
X123374285Y-93314285D01*
X123660000Y-93171428D01*
X124945714Y-94314285D02*
X125231428Y-94457142D01*
X125802857Y-94457142D01*
X126088571Y-94314285D01*
X126231428Y-94028571D01*
X126231428Y-93885714D01*
X126088571Y-93600000D01*
X125802857Y-93457142D01*
X125374285Y-93457142D01*
X125088571Y-93314285D01*
X124945714Y-93028571D01*
X124945714Y-92885714D01*
X125088571Y-92600000D01*
X125374285Y-92457142D01*
X125802857Y-92457142D01*
X126088571Y-92600000D01*
X127088571Y-92457142D02*
X128231428Y-92457142D01*
X127517142Y-91457142D02*
X127517142Y-94028571D01*
X127660000Y-94314285D01*
X127945714Y-94457142D01*
X128231428Y-94457142D01*
X131374285Y-93600000D02*
X132802857Y-93600000D01*
X131088571Y-94457142D02*
X132088571Y-91457142D01*
X133088571Y-94457142D01*
X134088571Y-94457142D02*
X134088571Y-92457142D01*
X134088571Y-92742857D02*
X134231428Y-92600000D01*
X134517142Y-92457142D01*
X134945714Y-92457142D01*
X135231428Y-92600000D01*
X135374285Y-92885714D01*
X135374285Y-94457142D01*
X135374285Y-92885714D02*
X135517142Y-92600000D01*
X135802857Y-92457142D01*
X136231428Y-92457142D01*
X136517142Y-92600000D01*
X136660000Y-92885714D01*
X136660000Y-94457142D01*
X138088571Y-92457142D02*
X138088571Y-95457142D01*
X138088571Y-92600000D02*
X138374285Y-92457142D01*
X138945714Y-92457142D01*
X139231428Y-92600000D01*
X139374285Y-92742857D01*
X139517142Y-93028571D01*
X139517142Y-93885714D01*
X139374285Y-94171428D01*
X139231428Y-94314285D01*
X138945714Y-94457142D01*
X138374285Y-94457142D01*
X138088571Y-94314285D01*
D12*
X108255095Y-96362380D02*
X108255095Y-95362380D01*
X108255095Y-95838571D02*
X108826523Y-95838571D01*
X108826523Y-96362380D02*
X108826523Y-95362380D01*
X109731285Y-96362380D02*
X109731285Y-95838571D01*
X109683666Y-95743333D01*
X109588428Y-95695714D01*
X109397952Y-95695714D01*
X109302714Y-95743333D01*
X109731285Y-96314761D02*
X109636047Y-96362380D01*
X109397952Y-96362380D01*
X109302714Y-96314761D01*
X109255095Y-96219523D01*
X109255095Y-96124285D01*
X109302714Y-96029047D01*
X109397952Y-95981428D01*
X109636047Y-95981428D01*
X109731285Y-95933809D01*
X110207476Y-96362380D02*
X110207476Y-95695714D01*
X110207476Y-95886190D02*
X110255095Y-95790952D01*
X110302714Y-95743333D01*
X110397952Y-95695714D01*
X110493190Y-95695714D01*
X111255095Y-96362380D02*
X111255095Y-95362380D01*
X111255095Y-96314761D02*
X111159857Y-96362380D01*
X110969380Y-96362380D01*
X110874142Y-96314761D01*
X110826523Y-96267142D01*
X110778904Y-96171904D01*
X110778904Y-95886190D01*
X110826523Y-95790952D01*
X110874142Y-95743333D01*
X110969380Y-95695714D01*
X111159857Y-95695714D01*
X111255095Y-95743333D01*
X111636047Y-95695714D02*
X111826523Y-96362380D01*
X112017000Y-95886190D01*
X112207476Y-96362380D01*
X112397952Y-95695714D01*
X113207476Y-96362380D02*
X113207476Y-95838571D01*
X113159857Y-95743333D01*
X113064619Y-95695714D01*
X112874142Y-95695714D01*
X112778904Y-95743333D01*
X113207476Y-96314761D02*
X113112238Y-96362380D01*
X112874142Y-96362380D01*
X112778904Y-96314761D01*
X112731285Y-96219523D01*
X112731285Y-96124285D01*
X112778904Y-96029047D01*
X112874142Y-95981428D01*
X113112238Y-95981428D01*
X113207476Y-95933809D01*
X113683666Y-96362380D02*
X113683666Y-95695714D01*
X113683666Y-95886190D02*
X113731285Y-95790952D01*
X113778904Y-95743333D01*
X113874142Y-95695714D01*
X113969380Y-95695714D01*
X114683666Y-96314761D02*
X114588428Y-96362380D01*
X114397952Y-96362380D01*
X114302714Y-96314761D01*
X114255095Y-96219523D01*
X114255095Y-95838571D01*
X114302714Y-95743333D01*
X114397952Y-95695714D01*
X114588428Y-95695714D01*
X114683666Y-95743333D01*
X114731285Y-95838571D01*
X114731285Y-95933809D01*
X114255095Y-96029047D01*
X115159857Y-96267142D02*
X115207476Y-96314761D01*
X115159857Y-96362380D01*
X115112238Y-96314761D01*
X115159857Y-96267142D01*
X115159857Y-96362380D01*
X115159857Y-95743333D02*
X115207476Y-95790952D01*
X115159857Y-95838571D01*
X115112238Y-95790952D01*
X115159857Y-95743333D01*
X115159857Y-95838571D01*
X117017000Y-95886190D02*
X116969380Y-95838571D01*
X116874142Y-95790952D01*
X116778904Y-95790952D01*
X116683666Y-95838571D01*
X116636047Y-95886190D01*
X116588428Y-95981428D01*
X116588428Y-96076666D01*
X116636047Y-96171904D01*
X116683666Y-96219523D01*
X116778904Y-96267142D01*
X116874142Y-96267142D01*
X116969380Y-96219523D01*
X117017000Y-96171904D01*
X117017000Y-95790952D02*
X117017000Y-96171904D01*
X117064619Y-96219523D01*
X117112238Y-96219523D01*
X117207476Y-96171904D01*
X117255095Y-96076666D01*
X117255095Y-95838571D01*
X117159857Y-95695714D01*
X117017000Y-95600476D01*
X116826523Y-95552857D01*
X116636047Y-95600476D01*
X116493190Y-95695714D01*
X116397952Y-95838571D01*
X116350333Y-96029047D01*
X116397952Y-96219523D01*
X116493190Y-96362380D01*
X116636047Y-96457619D01*
X116826523Y-96505238D01*
X117017000Y-96457619D01*
X117159857Y-96362380D01*
X117969380Y-95362380D02*
X117969380Y-96076666D01*
X117921761Y-96219523D01*
X117826523Y-96314761D01*
X117683666Y-96362380D01*
X117588428Y-96362380D01*
X118874142Y-96362380D02*
X118874142Y-95838571D01*
X118826523Y-95743333D01*
X118731285Y-95695714D01*
X118540809Y-95695714D01*
X118445571Y-95743333D01*
X118874142Y-96314761D02*
X118778904Y-96362380D01*
X118540809Y-96362380D01*
X118445571Y-96314761D01*
X118397952Y-96219523D01*
X118397952Y-96124285D01*
X118445571Y-96029047D01*
X118540809Y-95981428D01*
X118778904Y-95981428D01*
X118874142Y-95933809D01*
X119350333Y-95695714D02*
X119350333Y-96362380D01*
X119350333Y-95790952D02*
X119397952Y-95743333D01*
X119493190Y-95695714D01*
X119636047Y-95695714D01*
X119731285Y-95743333D01*
X119778904Y-95838571D01*
X119778904Y-96362380D01*
X120255095Y-96362380D02*
X120255095Y-95362380D01*
X120255095Y-95838571D02*
X120826523Y-95838571D01*
X120826523Y-96362380D02*
X120826523Y-95362380D01*
X121683666Y-96314761D02*
X121588428Y-96362380D01*
X121397952Y-96362380D01*
X121302714Y-96314761D01*
X121255095Y-96219523D01*
X121255095Y-95838571D01*
X121302714Y-95743333D01*
X121397952Y-95695714D01*
X121588428Y-95695714D01*
X121683666Y-95743333D01*
X121731285Y-95838571D01*
X121731285Y-95933809D01*
X121255095Y-96029047D01*
X122159857Y-95695714D02*
X122159857Y-96362380D01*
X122159857Y-95790952D02*
X122207476Y-95743333D01*
X122302714Y-95695714D01*
X122445571Y-95695714D01*
X122540809Y-95743333D01*
X122588428Y-95838571D01*
X122588428Y-96362380D01*
X123064619Y-96362380D02*
X123064619Y-95695714D01*
X123064619Y-95886190D02*
X123112238Y-95790952D01*
X123159857Y-95743333D01*
X123255095Y-95695714D01*
X123350333Y-95695714D01*
X123683666Y-96362380D02*
X123683666Y-95695714D01*
X123683666Y-95362380D02*
X123636047Y-95410000D01*
X123683666Y-95457619D01*
X123731285Y-95410000D01*
X123683666Y-95362380D01*
X123683666Y-95457619D01*
X124159857Y-96362380D02*
X124159857Y-95362380D01*
X124255095Y-95981428D02*
X124540809Y-96362380D01*
X124540809Y-95695714D02*
X124159857Y-96076666D01*
X124969380Y-96362380D02*
X124969380Y-95362380D01*
X124969380Y-95838571D02*
X125540809Y-95838571D01*
X125540809Y-96362380D02*
X125540809Y-95362380D01*
X126064619Y-96314761D02*
X126064619Y-96362380D01*
X126017000Y-96457619D01*
X125969380Y-96505238D01*
X127874142Y-95886190D02*
X127826523Y-95838571D01*
X127731285Y-95790952D01*
X127636047Y-95790952D01*
X127540809Y-95838571D01*
X127493190Y-95886190D01*
X127445571Y-95981428D01*
X127445571Y-96076666D01*
X127493190Y-96171904D01*
X127540809Y-96219523D01*
X127636047Y-96267142D01*
X127731285Y-96267142D01*
X127826523Y-96219523D01*
X127874142Y-96171904D01*
X127874142Y-95790952D02*
X127874142Y-96171904D01*
X127921761Y-96219523D01*
X127969380Y-96219523D01*
X128064619Y-96171904D01*
X128112238Y-96076666D01*
X128112238Y-95838571D01*
X128017000Y-95695714D01*
X127874142Y-95600476D01*
X127683666Y-95552857D01*
X127493190Y-95600476D01*
X127350333Y-95695714D01*
X127255095Y-95838571D01*
X127207476Y-96029047D01*
X127255095Y-96219523D01*
X127350333Y-96362380D01*
X127493190Y-96457619D01*
X127683666Y-96505238D01*
X127874142Y-96457619D01*
X128017000Y-96362380D01*
X128874142Y-95838571D02*
X128540809Y-95838571D01*
X128540809Y-96362380D02*
X128540809Y-95362380D01*
X129017000Y-95362380D01*
X129826523Y-96362380D02*
X129826523Y-95838571D01*
X129778904Y-95743333D01*
X129683666Y-95695714D01*
X129493190Y-95695714D01*
X129397952Y-95743333D01*
X129826523Y-96314761D02*
X129731285Y-96362380D01*
X129493190Y-96362380D01*
X129397952Y-96314761D01*
X129350333Y-96219523D01*
X129350333Y-96124285D01*
X129397952Y-96029047D01*
X129493190Y-95981428D01*
X129731285Y-95981428D01*
X129826523Y-95933809D01*
X130731285Y-95695714D02*
X130731285Y-96362380D01*
X130302714Y-95695714D02*
X130302714Y-96219523D01*
X130350333Y-96314761D01*
X130445571Y-96362380D01*
X130588428Y-96362380D01*
X130683666Y-96314761D01*
X130731285Y-96267142D01*
X131064619Y-95695714D02*
X131445571Y-95695714D01*
X131207476Y-95362380D02*
X131207476Y-96219523D01*
X131255095Y-96314761D01*
X131350333Y-96362380D01*
X131445571Y-96362380D01*
X131778904Y-96362380D02*
X131778904Y-95362380D01*
X132207476Y-96362380D02*
X132207476Y-95838571D01*
X132159857Y-95743333D01*
X132064619Y-95695714D01*
X131921761Y-95695714D01*
X131826523Y-95743333D01*
X131778904Y-95790952D01*
X132683666Y-96362380D02*
X132683666Y-95362380D01*
X133255095Y-96362380D01*
X133255095Y-95362380D01*
X133731285Y-96362380D02*
X133731285Y-95695714D01*
X133731285Y-95362380D02*
X133683666Y-95410000D01*
X133731285Y-95457619D01*
X133778904Y-95410000D01*
X133731285Y-95362380D01*
X133731285Y-95457619D01*
X134207476Y-96362380D02*
X134207476Y-95362380D01*
X134302714Y-95981428D02*
X134588428Y-96362380D01*
X134588428Y-95695714D02*
X134207476Y-96076666D01*
X135159857Y-96362380D02*
X135064619Y-96314761D01*
X135017000Y-96219523D01*
X135017000Y-95362380D01*
X135969380Y-96362380D02*
X135969380Y-95838571D01*
X135921761Y-95743333D01*
X135826523Y-95695714D01*
X135636047Y-95695714D01*
X135540809Y-95743333D01*
X135969380Y-96314761D02*
X135874142Y-96362380D01*
X135636047Y-96362380D01*
X135540809Y-96314761D01*
X135493190Y-96219523D01*
X135493190Y-96124285D01*
X135540809Y-96029047D01*
X135636047Y-95981428D01*
X135874142Y-95981428D01*
X135969380Y-95933809D01*
X136397952Y-96314761D02*
X136493190Y-96362380D01*
X136683666Y-96362380D01*
X136778904Y-96314761D01*
X136826523Y-96219523D01*
X136826523Y-96171904D01*
X136778904Y-96076666D01*
X136683666Y-96029047D01*
X136540809Y-96029047D01*
X136445571Y-95981428D01*
X136397952Y-95886190D01*
X136397952Y-95838571D01*
X136445571Y-95743333D01*
X136540809Y-95695714D01*
X136683666Y-95695714D01*
X136778904Y-95743333D01*
X141778904Y-95457619D02*
X141826523Y-95410000D01*
X141921761Y-95362380D01*
X142159857Y-95362380D01*
X142255095Y-95410000D01*
X142302714Y-95457619D01*
X142350333Y-95552857D01*
X142350333Y-95648095D01*
X142302714Y-95790952D01*
X141731285Y-96362380D01*
X142350333Y-96362380D01*
X142969380Y-95362380D02*
X143064619Y-95362380D01*
X143159857Y-95410000D01*
X143207476Y-95457619D01*
X143255095Y-95552857D01*
X143302714Y-95743333D01*
X143302714Y-95981428D01*
X143255095Y-96171904D01*
X143207476Y-96267142D01*
X143159857Y-96314761D01*
X143064619Y-96362380D01*
X142969380Y-96362380D01*
X142874142Y-96314761D01*
X142826523Y-96267142D01*
X142778904Y-96171904D01*
X142731285Y-95981428D01*
X142731285Y-95743333D01*
X142778904Y-95552857D01*
X142826523Y-95457619D01*
X142874142Y-95410000D01*
X142969380Y-95362380D01*
X143683666Y-95457619D02*
X143731285Y-95410000D01*
X143826523Y-95362380D01*
X144064619Y-95362380D01*
X144159857Y-95410000D01*
X144207476Y-95457619D01*
X144255095Y-95552857D01*
X144255095Y-95648095D01*
X144207476Y-95790952D01*
X143636047Y-96362380D01*
X144255095Y-96362380D01*
X145207476Y-96362380D02*
X144636047Y-96362380D01*
X144921761Y-96362380D02*
X144921761Y-95362380D01*
X144826523Y-95505238D01*
X144731285Y-95600476D01*
X144636047Y-95648095D01*
X108207476Y-97994761D02*
X108350333Y-98042380D01*
X108588428Y-98042380D01*
X108683666Y-97994761D01*
X108731285Y-97947142D01*
X108778904Y-97851904D01*
X108778904Y-97756666D01*
X108731285Y-97661428D01*
X108683666Y-97613809D01*
X108588428Y-97566190D01*
X108397952Y-97518571D01*
X108302714Y-97470952D01*
X108255095Y-97423333D01*
X108207476Y-97328095D01*
X108207476Y-97232857D01*
X108255095Y-97137619D01*
X108302714Y-97090000D01*
X108397952Y-97042380D01*
X108636047Y-97042380D01*
X108778904Y-97090000D01*
X109350333Y-98042380D02*
X109255095Y-97994761D01*
X109207476Y-97947142D01*
X109159857Y-97851904D01*
X109159857Y-97566190D01*
X109207476Y-97470952D01*
X109255095Y-97423333D01*
X109350333Y-97375714D01*
X109493190Y-97375714D01*
X109588428Y-97423333D01*
X109636047Y-97470952D01*
X109683666Y-97566190D01*
X109683666Y-97851904D01*
X109636047Y-97947142D01*
X109588428Y-97994761D01*
X109493190Y-98042380D01*
X109350333Y-98042380D01*
X109969380Y-97375714D02*
X110350333Y-97375714D01*
X110112238Y-98042380D02*
X110112238Y-97185238D01*
X110159857Y-97090000D01*
X110255095Y-97042380D01*
X110350333Y-97042380D01*
X110540809Y-97375714D02*
X110921761Y-97375714D01*
X110683666Y-97042380D02*
X110683666Y-97899523D01*
X110731285Y-97994761D01*
X110826523Y-98042380D01*
X110921761Y-98042380D01*
X111159857Y-97375714D02*
X111350333Y-98042380D01*
X111540809Y-97566190D01*
X111731285Y-98042380D01*
X111921761Y-97375714D01*
X112731285Y-98042380D02*
X112731285Y-97518571D01*
X112683666Y-97423333D01*
X112588428Y-97375714D01*
X112397952Y-97375714D01*
X112302714Y-97423333D01*
X112731285Y-97994761D02*
X112636047Y-98042380D01*
X112397952Y-98042380D01*
X112302714Y-97994761D01*
X112255095Y-97899523D01*
X112255095Y-97804285D01*
X112302714Y-97709047D01*
X112397952Y-97661428D01*
X112636047Y-97661428D01*
X112731285Y-97613809D01*
X113207476Y-98042380D02*
X113207476Y-97375714D01*
X113207476Y-97566190D02*
X113255095Y-97470952D01*
X113302714Y-97423333D01*
X113397952Y-97375714D01*
X113493190Y-97375714D01*
X114207476Y-97994761D02*
X114112238Y-98042380D01*
X113921761Y-98042380D01*
X113826523Y-97994761D01*
X113778904Y-97899523D01*
X113778904Y-97518571D01*
X113826523Y-97423333D01*
X113921761Y-97375714D01*
X114112238Y-97375714D01*
X114207476Y-97423333D01*
X114255095Y-97518571D01*
X114255095Y-97613809D01*
X113778904Y-97709047D01*
X114683666Y-97947142D02*
X114731285Y-97994761D01*
X114683666Y-98042380D01*
X114636047Y-97994761D01*
X114683666Y-97947142D01*
X114683666Y-98042380D01*
X114683666Y-97423333D02*
X114731285Y-97470952D01*
X114683666Y-97518571D01*
X114636047Y-97470952D01*
X114683666Y-97423333D01*
X114683666Y-97518571D01*
X116540809Y-97566190D02*
X116493190Y-97518571D01*
X116397952Y-97470952D01*
X116302714Y-97470952D01*
X116207476Y-97518571D01*
X116159857Y-97566190D01*
X116112238Y-97661428D01*
X116112238Y-97756666D01*
X116159857Y-97851904D01*
X116207476Y-97899523D01*
X116302714Y-97947142D01*
X116397952Y-97947142D01*
X116493190Y-97899523D01*
X116540809Y-97851904D01*
X116540809Y-97470952D02*
X116540809Y-97851904D01*
X116588428Y-97899523D01*
X116636047Y-97899523D01*
X116731285Y-97851904D01*
X116778904Y-97756666D01*
X116778904Y-97518571D01*
X116683666Y-97375714D01*
X116540809Y-97280476D01*
X116350333Y-97232857D01*
X116159857Y-97280476D01*
X116017000Y-97375714D01*
X115921761Y-97518571D01*
X115874142Y-97709047D01*
X115921761Y-97899523D01*
X116017000Y-98042380D01*
X116159857Y-98137619D01*
X116350333Y-98185238D01*
X116540809Y-98137619D01*
X116683666Y-98042380D01*
X117207476Y-98042380D02*
X117207476Y-97042380D01*
X117540809Y-97756666D01*
X117874142Y-97042380D01*
X117874142Y-98042380D01*
X118778904Y-98042380D02*
X118778904Y-97518571D01*
X118731285Y-97423333D01*
X118636047Y-97375714D01*
X118445571Y-97375714D01*
X118350333Y-97423333D01*
X118778904Y-97994761D02*
X118683666Y-98042380D01*
X118445571Y-98042380D01*
X118350333Y-97994761D01*
X118302714Y-97899523D01*
X118302714Y-97804285D01*
X118350333Y-97709047D01*
X118445571Y-97661428D01*
X118683666Y-97661428D01*
X118778904Y-97613809D01*
X119255095Y-97375714D02*
X119255095Y-98042380D01*
X119255095Y-97470952D02*
X119302714Y-97423333D01*
X119397952Y-97375714D01*
X119540809Y-97375714D01*
X119636047Y-97423333D01*
X119683666Y-97518571D01*
X119683666Y-98042380D01*
X120588428Y-98042380D02*
X120588428Y-97518571D01*
X120540809Y-97423333D01*
X120445571Y-97375714D01*
X120255095Y-97375714D01*
X120159857Y-97423333D01*
X120588428Y-97994761D02*
X120493190Y-98042380D01*
X120255095Y-98042380D01*
X120159857Y-97994761D01*
X120112238Y-97899523D01*
X120112238Y-97804285D01*
X120159857Y-97709047D01*
X120255095Y-97661428D01*
X120493190Y-97661428D01*
X120588428Y-97613809D01*
X120969380Y-97375714D02*
X121159857Y-98042380D01*
X121350333Y-97566190D01*
X121540809Y-98042380D01*
X121731285Y-97375714D01*
X122017000Y-97375714D02*
X122255095Y-98042380D01*
X122493190Y-97375714D02*
X122255095Y-98042380D01*
X122159857Y-98280476D01*
X122112238Y-98328095D01*
X122017000Y-98375714D01*
X122874142Y-98042380D02*
X122874142Y-97375714D01*
X122874142Y-97566190D02*
X122921761Y-97470952D01*
X122969380Y-97423333D01*
X123064619Y-97375714D01*
X123159857Y-97375714D01*
X123493190Y-98042380D02*
X123493190Y-97375714D01*
X123493190Y-97470952D02*
X123540809Y-97423333D01*
X123636047Y-97375714D01*
X123778904Y-97375714D01*
X123874142Y-97423333D01*
X123921761Y-97518571D01*
X123921761Y-98042380D01*
X123921761Y-97518571D02*
X123969380Y-97423333D01*
X124064619Y-97375714D01*
X124207476Y-97375714D01*
X124302714Y-97423333D01*
X124350333Y-97518571D01*
X124350333Y-98042380D01*
X124874142Y-97994761D02*
X124874142Y-98042380D01*
X124826523Y-98137619D01*
X124778904Y-98185238D01*
X126683666Y-97566190D02*
X126636047Y-97518571D01*
X126540809Y-97470952D01*
X126445571Y-97470952D01*
X126350333Y-97518571D01*
X126302714Y-97566190D01*
X126255095Y-97661428D01*
X126255095Y-97756666D01*
X126302714Y-97851904D01*
X126350333Y-97899523D01*
X126445571Y-97947142D01*
X126540809Y-97947142D01*
X126636047Y-97899523D01*
X126683666Y-97851904D01*
X126683666Y-97470952D02*
X126683666Y-97851904D01*
X126731285Y-97899523D01*
X126778904Y-97899523D01*
X126874142Y-97851904D01*
X126921761Y-97756666D01*
X126921761Y-97518571D01*
X126826523Y-97375714D01*
X126683666Y-97280476D01*
X126493190Y-97232857D01*
X126302714Y-97280476D01*
X126159857Y-97375714D01*
X126064619Y-97518571D01*
X126017000Y-97709047D01*
X126064619Y-97899523D01*
X126159857Y-98042380D01*
X126302714Y-98137619D01*
X126493190Y-98185238D01*
X126683666Y-98137619D01*
X126826523Y-98042380D01*
X127207476Y-97042380D02*
X127778904Y-97042380D01*
X127493190Y-98042380D02*
X127493190Y-97042380D01*
X128255095Y-98042380D02*
X128159857Y-97994761D01*
X128112238Y-97947142D01*
X128064619Y-97851904D01*
X128064619Y-97566190D01*
X128112238Y-97470952D01*
X128159857Y-97423333D01*
X128255095Y-97375714D01*
X128397952Y-97375714D01*
X128493190Y-97423333D01*
X128540809Y-97470952D01*
X128588428Y-97566190D01*
X128588428Y-97851904D01*
X128540809Y-97947142D01*
X128493190Y-97994761D01*
X128397952Y-98042380D01*
X128255095Y-98042380D01*
X129017000Y-98042380D02*
X129017000Y-97042380D01*
X129017000Y-97423333D02*
X129112238Y-97375714D01*
X129302714Y-97375714D01*
X129397952Y-97423333D01*
X129445571Y-97470952D01*
X129493190Y-97566190D01*
X129493190Y-97851904D01*
X129445571Y-97947142D01*
X129397952Y-97994761D01*
X129302714Y-98042380D01*
X129112238Y-98042380D01*
X129017000Y-97994761D01*
X130064619Y-98042380D02*
X129969380Y-97994761D01*
X129921761Y-97899523D01*
X129921761Y-97042380D01*
X130826523Y-97994761D02*
X130731285Y-98042380D01*
X130540809Y-98042380D01*
X130445571Y-97994761D01*
X130397952Y-97899523D01*
X130397952Y-97518571D01*
X130445571Y-97423333D01*
X130540809Y-97375714D01*
X130731285Y-97375714D01*
X130826523Y-97423333D01*
X130874142Y-97518571D01*
X130874142Y-97613809D01*
X130397952Y-97709047D01*
X131064619Y-98137619D02*
X131826523Y-98137619D01*
X132064619Y-98042380D02*
X132064619Y-97042380D01*
X132397952Y-97756666D01*
X132731285Y-97042380D01*
X132731285Y-98042380D01*
X133207476Y-98042380D02*
X133207476Y-97375714D01*
X133207476Y-97042380D02*
X133159857Y-97090000D01*
X133207476Y-97137619D01*
X133255095Y-97090000D01*
X133207476Y-97042380D01*
X133207476Y-97137619D01*
X133683666Y-97375714D02*
X133683666Y-98042380D01*
X133683666Y-97470952D02*
X133731285Y-97423333D01*
X133826523Y-97375714D01*
X133969380Y-97375714D01*
X134064619Y-97423333D01*
X134112238Y-97518571D01*
X134112238Y-98042380D01*
X134969380Y-97994761D02*
X134874142Y-98042380D01*
X134683666Y-98042380D01*
X134588428Y-97994761D01*
X134540809Y-97899523D01*
X134540809Y-97518571D01*
X134588428Y-97423333D01*
X134683666Y-97375714D01*
X134874142Y-97375714D01*
X134969380Y-97423333D01*
X135017000Y-97518571D01*
X135017000Y-97613809D01*
X134540809Y-97709047D01*
X135445571Y-98042380D02*
X135445571Y-97375714D01*
X135445571Y-97566190D02*
X135493190Y-97470952D01*
X135540809Y-97423333D01*
X135636047Y-97375714D01*
X135731285Y-97375714D01*
X140445571Y-98042380D02*
X140112238Y-97566190D01*
X139874142Y-98042380D02*
X139874142Y-97042380D01*
X140255095Y-97042380D01*
X140350333Y-97090000D01*
X140397952Y-97137619D01*
X140445571Y-97232857D01*
X140445571Y-97375714D01*
X140397952Y-97470952D01*
X140350333Y-97518571D01*
X140255095Y-97566190D01*
X139874142Y-97566190D01*
X141255095Y-97994761D02*
X141159857Y-98042380D01*
X140969380Y-98042380D01*
X140874142Y-97994761D01*
X140826523Y-97899523D01*
X140826523Y-97518571D01*
X140874142Y-97423333D01*
X140969380Y-97375714D01*
X141159857Y-97375714D01*
X141255095Y-97423333D01*
X141302714Y-97518571D01*
X141302714Y-97613809D01*
X140826523Y-97709047D01*
X141636047Y-97375714D02*
X141874142Y-98042380D01*
X142112238Y-97375714D01*
X143778904Y-98042380D02*
X143207476Y-98042380D01*
X143493190Y-98042380D02*
X143493190Y-97042380D01*
X143397952Y-97185238D01*
X143302714Y-97280476D01*
X143207476Y-97328095D01*
X144207476Y-97947142D02*
X144255095Y-97994761D01*
X144207476Y-98042380D01*
X144159857Y-97994761D01*
X144207476Y-97947142D01*
X144207476Y-98042380D01*
X144874142Y-97042380D02*
X144969380Y-97042380D01*
X145064619Y-97090000D01*
X145112238Y-97137619D01*
X145159857Y-97232857D01*
X145207476Y-97423333D01*
X145207476Y-97661428D01*
X145159857Y-97851904D01*
X145112238Y-97947142D01*
X145064619Y-97994761D01*
X144969380Y-98042380D01*
X144874142Y-98042380D01*
X144778904Y-97994761D01*
X144731285Y-97947142D01*
X144683666Y-97851904D01*
X144636047Y-97661428D01*
X144636047Y-97423333D01*
X144683666Y-97232857D01*
X144731285Y-97137619D01*
X144778904Y-97090000D01*
X144874142Y-97042380D01*
D10*
X174928571Y-81142857D02*
X174242857Y-81142857D01*
X174585714Y-81142857D02*
X174585714Y-79942857D01*
X174471428Y-80114285D01*
X174357142Y-80228571D01*
X174242857Y-80285714D01*
X175671428Y-79942857D02*
X175785714Y-79942857D01*
X175900000Y-80000000D01*
X175957142Y-80057142D01*
X176014285Y-80171428D01*
X176071428Y-80400000D01*
X176071428Y-80685714D01*
X176014285Y-80914285D01*
X175957142Y-81028571D01*
X175900000Y-81085714D01*
X175785714Y-81142857D01*
X175671428Y-81142857D01*
X175557142Y-81085714D01*
X175500000Y-81028571D01*
X175442857Y-80914285D01*
X175385714Y-80685714D01*
X175385714Y-80400000D01*
X175442857Y-80171428D01*
X175500000Y-80057142D01*
X175557142Y-80000000D01*
X175671428Y-79942857D01*
X176814285Y-79942857D02*
X176928571Y-79942857D01*
X177042857Y-80000000D01*
X177100000Y-80057142D01*
X177157142Y-80171428D01*
X177214285Y-80400000D01*
X177214285Y-80685714D01*
X177157142Y-80914285D01*
X177100000Y-81028571D01*
X177042857Y-81085714D01*
X176928571Y-81142857D01*
X176814285Y-81142857D01*
X176700000Y-81085714D01*
X176642857Y-81028571D01*
X176585714Y-80914285D01*
X176528571Y-80685714D01*
X176528571Y-80400000D01*
X176585714Y-80171428D01*
X176642857Y-80057142D01*
X176700000Y-80000000D01*
X176814285Y-79942857D01*
X177614285Y-79942857D02*
X177900000Y-81142857D01*
X178128571Y-80285714D01*
X178357142Y-81142857D01*
X178642857Y-79942857D01*
X180014285Y-81142857D02*
X180014285Y-80342857D01*
X180014285Y-80457142D02*
X180071428Y-80400000D01*
X180185714Y-80342857D01*
X180357142Y-80342857D01*
X180471428Y-80400000D01*
X180528571Y-80514285D01*
X180528571Y-81142857D01*
X180528571Y-80514285D02*
X180585714Y-80400000D01*
X180700000Y-80342857D01*
X180871428Y-80342857D01*
X180985714Y-80400000D01*
X181042857Y-80514285D01*
X181042857Y-81142857D01*
X182128571Y-81142857D02*
X182128571Y-80514285D01*
X182071428Y-80400000D01*
X181957142Y-80342857D01*
X181728571Y-80342857D01*
X181614285Y-80400000D01*
X182128571Y-81085714D02*
X182014285Y-81142857D01*
X181728571Y-81142857D01*
X181614285Y-81085714D01*
X181557142Y-80971428D01*
X181557142Y-80857142D01*
X181614285Y-80742857D01*
X181728571Y-80685714D01*
X182014285Y-80685714D01*
X182128571Y-80628571D01*
X182585714Y-81142857D02*
X183214285Y-80342857D01*
X182585714Y-80342857D02*
X183214285Y-81142857D01*
D11*
X173414285Y-76604761D02*
X173414285Y-78223809D01*
X173509523Y-78414285D01*
X173604761Y-78509523D01*
X173795238Y-78604761D01*
X174176190Y-78604761D01*
X174366666Y-78509523D01*
X174461904Y-78414285D01*
X174557142Y-78223809D01*
X174557142Y-76604761D01*
X175414285Y-78509523D02*
X175700000Y-78604761D01*
X176176190Y-78604761D01*
X176366666Y-78509523D01*
X176461904Y-78414285D01*
X176557142Y-78223809D01*
X176557142Y-78033333D01*
X176461904Y-77842857D01*
X176366666Y-77747619D01*
X176176190Y-77652380D01*
X175795238Y-77557142D01*
X175604761Y-77461904D01*
X175509523Y-77366666D01*
X175414285Y-77176190D01*
X175414285Y-76985714D01*
X175509523Y-76795238D01*
X175604761Y-76700000D01*
X175795238Y-76604761D01*
X176271428Y-76604761D01*
X176557142Y-76700000D01*
X178080952Y-77557142D02*
X178366666Y-77652380D01*
X178461904Y-77747619D01*
X178557142Y-77938095D01*
X178557142Y-78223809D01*
X178461904Y-78414285D01*
X178366666Y-78509523D01*
X178176190Y-78604761D01*
X177414285Y-78604761D01*
X177414285Y-76604761D01*
X178080952Y-76604761D01*
X178271428Y-76700000D01*
X178366666Y-76795238D01*
X178461904Y-76985714D01*
X178461904Y-77176190D01*
X178366666Y-77366666D01*
X178271428Y-77461904D01*
X178080952Y-77557142D01*
X177414285Y-77557142D01*
X180938095Y-78604761D02*
X180938095Y-76604761D01*
X181700000Y-76604761D01*
X181890476Y-76700000D01*
X181985714Y-76795238D01*
X182080952Y-76985714D01*
X182080952Y-77271428D01*
X181985714Y-77461904D01*
X181890476Y-77557142D01*
X181700000Y-77652380D01*
X180938095Y-77652380D01*
X182938095Y-78604761D02*
X182938095Y-76604761D01*
X183414285Y-76604761D01*
X183700000Y-76700000D01*
X183890476Y-76890476D01*
X183985714Y-77080952D01*
X184080952Y-77461904D01*
X184080952Y-77747619D01*
X183985714Y-78128571D01*
X183890476Y-78319047D01*
X183700000Y-78509523D01*
X183414285Y-78604761D01*
X182938095Y-78604761D01*
X156457142Y-66314285D02*
X156361904Y-66409523D01*
X156076190Y-66504761D01*
X155885714Y-66504761D01*
X155600000Y-66409523D01*
X155409523Y-66219047D01*
X155314285Y-66028571D01*
X155219047Y-65647619D01*
X155219047Y-65361904D01*
X155314285Y-64980952D01*
X155409523Y-64790476D01*
X155600000Y-64600000D01*
X155885714Y-64504761D01*
X156076190Y-64504761D01*
X156361904Y-64600000D01*
X156457142Y-64695238D01*
X157600000Y-66504761D02*
X157409523Y-66409523D01*
X157314285Y-66314285D01*
X157219047Y-66123809D01*
X157219047Y-65552380D01*
X157314285Y-65361904D01*
X157409523Y-65266666D01*
X157600000Y-65171428D01*
X157885714Y-65171428D01*
X158076190Y-65266666D01*
X158171428Y-65361904D01*
X158266666Y-65552380D01*
X158266666Y-66123809D01*
X158171428Y-66314285D01*
X158076190Y-66409523D01*
X157885714Y-66504761D01*
X157600000Y-66504761D01*
X159123809Y-65171428D02*
X159123809Y-66504761D01*
X159123809Y-65361904D02*
X159219047Y-65266666D01*
X159409523Y-65171428D01*
X159695238Y-65171428D01*
X159885714Y-65266666D01*
X159980952Y-65457142D01*
X159980952Y-66504761D01*
X160647619Y-65171428D02*
X161409523Y-65171428D01*
X160933333Y-66504761D02*
X160933333Y-64790476D01*
X161028571Y-64600000D01*
X161219047Y-64504761D01*
X161409523Y-64504761D01*
X162076190Y-66504761D02*
X162076190Y-65171428D01*
X162076190Y-64504761D02*
X161980952Y-64600000D01*
X162076190Y-64695238D01*
X162171428Y-64600000D01*
X162076190Y-64504761D01*
X162076190Y-64695238D01*
X163885714Y-65171428D02*
X163885714Y-66790476D01*
X163790476Y-66980952D01*
X163695238Y-67076190D01*
X163504761Y-67171428D01*
X163219047Y-67171428D01*
X163028571Y-67076190D01*
X163885714Y-66409523D02*
X163695238Y-66504761D01*
X163314285Y-66504761D01*
X163123809Y-66409523D01*
X163028571Y-66314285D01*
X162933333Y-66123809D01*
X162933333Y-65552380D01*
X163028571Y-65361904D01*
X163123809Y-65266666D01*
X163314285Y-65171428D01*
X163695238Y-65171428D01*
X163885714Y-65266666D01*
X173547619Y-65457142D02*
X173833333Y-65552380D01*
X173928571Y-65647619D01*
X174023809Y-65838095D01*
X174023809Y-66123809D01*
X173928571Y-66314285D01*
X173833333Y-66409523D01*
X173642857Y-66504761D01*
X172880952Y-66504761D01*
X172880952Y-64504761D01*
X173547619Y-64504761D01*
X173738095Y-64600000D01*
X173833333Y-64695238D01*
X173928571Y-64885714D01*
X173928571Y-65076190D01*
X173833333Y-65266666D01*
X173738095Y-65361904D01*
X173547619Y-65457142D01*
X172880952Y-65457142D01*
X175166666Y-66504761D02*
X174976190Y-66409523D01*
X174880952Y-66314285D01*
X174785714Y-66123809D01*
X174785714Y-65552380D01*
X174880952Y-65361904D01*
X174976190Y-65266666D01*
X175166666Y-65171428D01*
X175452380Y-65171428D01*
X175642857Y-65266666D01*
X175738095Y-65361904D01*
X175833333Y-65552380D01*
X175833333Y-66123809D01*
X175738095Y-66314285D01*
X175642857Y-66409523D01*
X175452380Y-66504761D01*
X175166666Y-66504761D01*
X176976190Y-66504761D02*
X176785714Y-66409523D01*
X176690476Y-66314285D01*
X176595238Y-66123809D01*
X176595238Y-65552380D01*
X176690476Y-65361904D01*
X176785714Y-65266666D01*
X176976190Y-65171428D01*
X177261904Y-65171428D01*
X177452380Y-65266666D01*
X177547619Y-65361904D01*
X177642857Y-65552380D01*
X177642857Y-66123809D01*
X177547619Y-66314285D01*
X177452380Y-66409523D01*
X177261904Y-66504761D01*
X176976190Y-66504761D01*
X178214285Y-65171428D02*
X178976190Y-65171428D01*
X178500000Y-64504761D02*
X178500000Y-66219047D01*
X178595238Y-66409523D01*
X178785714Y-66504761D01*
X178976190Y-66504761D01*
X181071428Y-66409523D02*
X181357142Y-66504761D01*
X181833333Y-66504761D01*
X182023809Y-66409523D01*
X182119047Y-66314285D01*
X182214285Y-66123809D01*
X182214285Y-65933333D01*
X182119047Y-65742857D01*
X182023809Y-65647619D01*
X181833333Y-65552380D01*
X181452380Y-65457142D01*
X181261904Y-65361904D01*
X181166666Y-65266666D01*
X181071428Y-65076190D01*
X181071428Y-64885714D01*
X181166666Y-64695238D01*
X181261904Y-64600000D01*
X181452380Y-64504761D01*
X181928571Y-64504761D01*
X182214285Y-64600000D01*
X183071428Y-66504761D02*
X183071428Y-64504761D01*
X183547619Y-64504761D01*
X183833333Y-64600000D01*
X184023809Y-64790476D01*
X184119047Y-64980952D01*
X184214285Y-65361904D01*
X184214285Y-65647619D01*
X184119047Y-66028571D01*
X184023809Y-66219047D01*
X183833333Y-66409523D01*
X183547619Y-66504761D01*
X183071428Y-66504761D01*
X189880952Y-66504761D02*
X188928571Y-66504761D01*
X188928571Y-64504761D01*
X190547619Y-66504761D02*
X190547619Y-65171428D01*
X190547619Y-64504761D02*
X190452380Y-64600000D01*
X190547619Y-64695238D01*
X190642857Y-64600000D01*
X190547619Y-64504761D01*
X190547619Y-64695238D01*
X191500000Y-65171428D02*
X191500000Y-66504761D01*
X191500000Y-65361904D02*
X191595238Y-65266666D01*
X191785714Y-65171428D01*
X192071428Y-65171428D01*
X192261904Y-65266666D01*
X192357142Y-65457142D01*
X192357142Y-66504761D01*
X194071428Y-66409523D02*
X193880952Y-66504761D01*
X193500000Y-66504761D01*
X193309523Y-66409523D01*
X193214285Y-66219047D01*
X193214285Y-65457142D01*
X193309523Y-65266666D01*
X193500000Y-65171428D01*
X193880952Y-65171428D01*
X194071428Y-65266666D01*
X194166666Y-65457142D01*
X194166666Y-65647619D01*
X193214285Y-65838095D01*
X190595238Y-69904761D02*
X190595238Y-67904761D01*
X191547619Y-68571428D02*
X191547619Y-69904761D01*
X191547619Y-68761904D02*
X191642857Y-68666666D01*
X191833333Y-68571428D01*
X192119047Y-68571428D01*
X192309523Y-68666666D01*
X192404761Y-68857142D01*
X192404761Y-69904761D01*
D13*
G36*
X163533335Y-93016406D02*
G01*
X163238985Y-93016695D01*
X163137010Y-93017120D01*
X163056355Y-93018408D01*
X162991888Y-93020914D01*
X162938476Y-93024996D01*
X162890988Y-93031008D01*
X162844289Y-93039308D01*
X162810389Y-93046436D01*
X162580549Y-93109754D01*
X162361232Y-93196012D01*
X162154201Y-93304009D01*
X161961220Y-93432544D01*
X161784049Y-93580418D01*
X161624453Y-93746430D01*
X161484193Y-93929379D01*
X161459554Y-93966449D01*
X161407756Y-94053402D01*
X161354855Y-94154820D01*
X161303836Y-94263866D01*
X161257682Y-94373702D01*
X161219375Y-94477488D01*
X161191898Y-94568388D01*
X161185804Y-94593984D01*
X161176439Y-94636979D01*
X162938021Y-94636979D01*
X162938021Y-95576250D01*
X161176439Y-95576250D01*
X161185804Y-95619244D01*
X161210864Y-95710611D01*
X161248352Y-95816469D01*
X161295185Y-95929878D01*
X161348282Y-96043892D01*
X161404560Y-96151569D01*
X161460936Y-96245967D01*
X161470392Y-96260319D01*
X161614134Y-96451791D01*
X161775333Y-96623630D01*
X161952990Y-96775163D01*
X162146109Y-96905719D01*
X162353691Y-97014624D01*
X162574738Y-97101206D01*
X162808255Y-97164794D01*
X162813956Y-97166021D01*
X162866538Y-97176622D01*
X162914958Y-97184513D01*
X162964609Y-97190078D01*
X163020881Y-97193702D01*
X163089168Y-97195769D01*
X163174859Y-97196664D01*
X163245599Y-97196799D01*
X163533333Y-97196776D01*
X163533333Y-98129479D01*
X163245599Y-98127762D01*
X163153624Y-98126709D01*
X163063891Y-98124766D01*
X162982158Y-98122126D01*
X162914179Y-98118981D01*
X162865711Y-98115526D01*
X162858646Y-98114789D01*
X162633237Y-98078594D01*
X162401386Y-98021376D01*
X162169425Y-97945284D01*
X161943685Y-97852465D01*
X161730499Y-97745068D01*
X161674697Y-97713135D01*
X161511156Y-97607667D01*
X161345214Y-97483545D01*
X161183427Y-97346431D01*
X161032350Y-97201982D01*
X160898540Y-97055859D01*
X160861993Y-97011607D01*
X160700673Y-96790012D01*
X160559348Y-96552378D01*
X160439025Y-96301089D01*
X160340711Y-96038532D01*
X160265412Y-95767092D01*
X160214135Y-95489155D01*
X160211590Y-95470416D01*
X160204641Y-95398751D01*
X160199708Y-95308046D01*
X160196792Y-95204923D01*
X160195895Y-95096009D01*
X160197019Y-94987925D01*
X160200166Y-94887298D01*
X160205338Y-94800752D01*
X160211383Y-94742812D01*
X160263339Y-94457894D01*
X160338569Y-94182354D01*
X160436391Y-93917809D01*
X160556121Y-93665877D01*
X160697076Y-93428177D01*
X160858573Y-93206325D01*
X160861993Y-93202079D01*
X161042280Y-92999121D01*
X161241422Y-92812656D01*
X161456973Y-92644214D01*
X161686485Y-92495325D01*
X161927509Y-92367517D01*
X162177600Y-92262322D01*
X162434309Y-92181267D01*
X162534619Y-92156769D01*
X162658530Y-92130938D01*
X162773700Y-92111592D01*
X162887520Y-92097981D01*
X163007385Y-92089356D01*
X163140687Y-92084968D01*
X163252213Y-92084008D01*
X163533333Y-92083750D01*
X163533335Y-93016406D01*
G37*
X163533335Y-93016406D02*
X163238985Y-93016695D01*
X163137010Y-93017120D01*
X163056355Y-93018408D01*
X162991888Y-93020914D01*
X162938476Y-93024996D01*
X162890988Y-93031008D01*
X162844289Y-93039308D01*
X162810389Y-93046436D01*
X162580549Y-93109754D01*
X162361232Y-93196012D01*
X162154201Y-93304009D01*
X161961220Y-93432544D01*
X161784049Y-93580418D01*
X161624453Y-93746430D01*
X161484193Y-93929379D01*
X161459554Y-93966449D01*
X161407756Y-94053402D01*
X161354855Y-94154820D01*
X161303836Y-94263866D01*
X161257682Y-94373702D01*
X161219375Y-94477488D01*
X161191898Y-94568388D01*
X161185804Y-94593984D01*
X161176439Y-94636979D01*
X162938021Y-94636979D01*
X162938021Y-95576250D01*
X161176439Y-95576250D01*
X161185804Y-95619244D01*
X161210864Y-95710611D01*
X161248352Y-95816469D01*
X161295185Y-95929878D01*
X161348282Y-96043892D01*
X161404560Y-96151569D01*
X161460936Y-96245967D01*
X161470392Y-96260319D01*
X161614134Y-96451791D01*
X161775333Y-96623630D01*
X161952990Y-96775163D01*
X162146109Y-96905719D01*
X162353691Y-97014624D01*
X162574738Y-97101206D01*
X162808255Y-97164794D01*
X162813956Y-97166021D01*
X162866538Y-97176622D01*
X162914958Y-97184513D01*
X162964609Y-97190078D01*
X163020881Y-97193702D01*
X163089168Y-97195769D01*
X163174859Y-97196664D01*
X163245599Y-97196799D01*
X163533333Y-97196776D01*
X163533333Y-98129479D01*
X163245599Y-98127762D01*
X163153624Y-98126709D01*
X163063891Y-98124766D01*
X162982158Y-98122126D01*
X162914179Y-98118981D01*
X162865711Y-98115526D01*
X162858646Y-98114789D01*
X162633237Y-98078594D01*
X162401386Y-98021376D01*
X162169425Y-97945284D01*
X161943685Y-97852465D01*
X161730499Y-97745068D01*
X161674697Y-97713135D01*
X161511156Y-97607667D01*
X161345214Y-97483545D01*
X161183427Y-97346431D01*
X161032350Y-97201982D01*
X160898540Y-97055859D01*
X160861993Y-97011607D01*
X160700673Y-96790012D01*
X160559348Y-96552378D01*
X160439025Y-96301089D01*
X160340711Y-96038532D01*
X160265412Y-95767092D01*
X160214135Y-95489155D01*
X160211590Y-95470416D01*
X160204641Y-95398751D01*
X160199708Y-95308046D01*
X160196792Y-95204923D01*
X160195895Y-95096009D01*
X160197019Y-94987925D01*
X160200166Y-94887298D01*
X160205338Y-94800752D01*
X160211383Y-94742812D01*
X160263339Y-94457894D01*
X160338569Y-94182354D01*
X160436391Y-93917809D01*
X160556121Y-93665877D01*
X160697076Y-93428177D01*
X160858573Y-93206325D01*
X160861993Y-93202079D01*
X161042280Y-92999121D01*
X161241422Y-92812656D01*
X161456973Y-92644214D01*
X161686485Y-92495325D01*
X161927509Y-92367517D01*
X162177600Y-92262322D01*
X162434309Y-92181267D01*
X162534619Y-92156769D01*
X162658530Y-92130938D01*
X162773700Y-92111592D01*
X162887520Y-92097981D01*
X163007385Y-92089356D01*
X163140687Y-92084968D01*
X163252213Y-92084008D01*
X163533333Y-92083750D01*
X163533335Y-93016406D01*
G36*
X158239187Y-92084315D02*
G01*
X158303670Y-92085975D01*
X158350303Y-92088945D01*
X158370651Y-92092088D01*
X158400417Y-92100065D01*
X158400417Y-93020530D01*
X158190881Y-93013259D01*
X157981047Y-93013523D01*
X157786859Y-93030382D01*
X157602420Y-93065075D01*
X157421832Y-93118839D01*
X157239197Y-93192911D01*
X157163489Y-93228879D01*
X156982938Y-93327977D01*
X156820298Y-93439326D01*
X156667901Y-93568408D01*
X156608622Y-93625705D01*
X156451985Y-93800861D01*
X156316473Y-93991520D01*
X156202766Y-94196394D01*
X156111544Y-94414193D01*
X156043485Y-94643629D01*
X156023326Y-94736197D01*
X156011177Y-94820244D01*
X156003066Y-94923234D01*
X155998985Y-95037965D01*
X155998926Y-95157234D01*
X156002884Y-95273837D01*
X156010851Y-95380571D01*
X156022819Y-95470233D01*
X156024057Y-95477031D01*
X156079911Y-95705759D01*
X156159299Y-95923965D01*
X156260931Y-96130177D01*
X156383522Y-96322928D01*
X156525781Y-96500748D01*
X156686421Y-96662168D01*
X156864155Y-96805719D01*
X157057693Y-96929931D01*
X157265748Y-97033336D01*
X157449237Y-97102535D01*
X157552377Y-97134118D01*
X157647107Y-97158129D01*
X157739870Y-97175463D01*
X157837106Y-97187016D01*
X157945258Y-97193680D01*
X158070767Y-97196352D01*
X158125911Y-97196504D01*
X158400417Y-97196186D01*
X158400417Y-98113164D01*
X158370651Y-98121141D01*
X158345251Y-98124138D01*
X158298256Y-98126203D01*
X158234510Y-98127382D01*
X158158858Y-98127723D01*
X158076146Y-98127274D01*
X157991217Y-98126083D01*
X157908917Y-98124197D01*
X157834091Y-98121663D01*
X157771583Y-98118531D01*
X157726238Y-98114847D01*
X157725729Y-98114789D01*
X157612729Y-98098341D01*
X157485128Y-98073706D01*
X157352662Y-98043083D01*
X157225066Y-98008667D01*
X157143984Y-97983536D01*
X156879447Y-97882498D01*
X156628723Y-97759513D01*
X156392805Y-97615777D01*
X156172680Y-97452487D01*
X155969340Y-97270838D01*
X155783773Y-97072026D01*
X155616970Y-96857247D01*
X155469921Y-96627698D01*
X155343615Y-96384573D01*
X155239042Y-96129070D01*
X155157192Y-95862383D01*
X155099055Y-95585709D01*
X155085838Y-95496875D01*
X155077382Y-95412107D01*
X155071563Y-95308118D01*
X155068382Y-95192009D01*
X155067839Y-95070887D01*
X155069934Y-94951854D01*
X155074666Y-94842014D01*
X155082037Y-94748472D01*
X155085838Y-94716354D01*
X155136759Y-94433706D01*
X155212205Y-94160614D01*
X155311919Y-93897714D01*
X155435646Y-93645637D01*
X155583128Y-93405017D01*
X155661952Y-93294218D01*
X155840230Y-93076723D01*
X156036233Y-92878344D01*
X156248598Y-92699882D01*
X156475959Y-92542133D01*
X156716953Y-92405897D01*
X156970213Y-92291971D01*
X157234377Y-92201153D01*
X157508079Y-92134241D01*
X157698880Y-92102813D01*
X157751354Y-92097490D01*
X157820218Y-92092930D01*
X157900581Y-92089212D01*
X157987550Y-92086413D01*
X158076236Y-92084612D01*
X158161745Y-92083887D01*
X158239187Y-92084315D01*
G37*
X158239187Y-92084315D02*
X158303670Y-92085975D01*
X158350303Y-92088945D01*
X158370651Y-92092088D01*
X158400417Y-92100065D01*
X158400417Y-93020530D01*
X158190881Y-93013259D01*
X157981047Y-93013523D01*
X157786859Y-93030382D01*
X157602420Y-93065075D01*
X157421832Y-93118839D01*
X157239197Y-93192911D01*
X157163489Y-93228879D01*
X156982938Y-93327977D01*
X156820298Y-93439326D01*
X156667901Y-93568408D01*
X156608622Y-93625705D01*
X156451985Y-93800861D01*
X156316473Y-93991520D01*
X156202766Y-94196394D01*
X156111544Y-94414193D01*
X156043485Y-94643629D01*
X156023326Y-94736197D01*
X156011177Y-94820244D01*
X156003066Y-94923234D01*
X155998985Y-95037965D01*
X155998926Y-95157234D01*
X156002884Y-95273837D01*
X156010851Y-95380571D01*
X156022819Y-95470233D01*
X156024057Y-95477031D01*
X156079911Y-95705759D01*
X156159299Y-95923965D01*
X156260931Y-96130177D01*
X156383522Y-96322928D01*
X156525781Y-96500748D01*
X156686421Y-96662168D01*
X156864155Y-96805719D01*
X157057693Y-96929931D01*
X157265748Y-97033336D01*
X157449237Y-97102535D01*
X157552377Y-97134118D01*
X157647107Y-97158129D01*
X157739870Y-97175463D01*
X157837106Y-97187016D01*
X157945258Y-97193680D01*
X158070767Y-97196352D01*
X158125911Y-97196504D01*
X158400417Y-97196186D01*
X158400417Y-98113164D01*
X158370651Y-98121141D01*
X158345251Y-98124138D01*
X158298256Y-98126203D01*
X158234510Y-98127382D01*
X158158858Y-98127723D01*
X158076146Y-98127274D01*
X157991217Y-98126083D01*
X157908917Y-98124197D01*
X157834091Y-98121663D01*
X157771583Y-98118531D01*
X157726238Y-98114847D01*
X157725729Y-98114789D01*
X157612729Y-98098341D01*
X157485128Y-98073706D01*
X157352662Y-98043083D01*
X157225066Y-98008667D01*
X157143984Y-97983536D01*
X156879447Y-97882498D01*
X156628723Y-97759513D01*
X156392805Y-97615777D01*
X156172680Y-97452487D01*
X155969340Y-97270838D01*
X155783773Y-97072026D01*
X155616970Y-96857247D01*
X155469921Y-96627698D01*
X155343615Y-96384573D01*
X155239042Y-96129070D01*
X155157192Y-95862383D01*
X155099055Y-95585709D01*
X155085838Y-95496875D01*
X155077382Y-95412107D01*
X155071563Y-95308118D01*
X155068382Y-95192009D01*
X155067839Y-95070887D01*
X155069934Y-94951854D01*
X155074666Y-94842014D01*
X155082037Y-94748472D01*
X155085838Y-94716354D01*
X155136759Y-94433706D01*
X155212205Y-94160614D01*
X155311919Y-93897714D01*
X155435646Y-93645637D01*
X155583128Y-93405017D01*
X155661952Y-93294218D01*
X155840230Y-93076723D01*
X156036233Y-92878344D01*
X156248598Y-92699882D01*
X156475959Y-92542133D01*
X156716953Y-92405897D01*
X156970213Y-92291971D01*
X157234377Y-92201153D01*
X157508079Y-92134241D01*
X157698880Y-92102813D01*
X157751354Y-92097490D01*
X157820218Y-92092930D01*
X157900581Y-92089212D01*
X157987550Y-92086413D01*
X158076236Y-92084612D01*
X158161745Y-92083887D01*
X158239187Y-92084315D01*
G36*
X195777545Y-80923237D02*
G01*
X195880994Y-80966272D01*
X195957150Y-81039507D01*
X195986331Y-81089079D01*
X195993912Y-81105735D01*
X196000528Y-81124192D01*
X196006246Y-81147278D01*
X196011130Y-81177823D01*
X196015244Y-81218657D01*
X196018653Y-81272610D01*
X196021424Y-81342511D01*
X196023619Y-81431189D01*
X196025304Y-81541475D01*
X196026544Y-81676197D01*
X196027404Y-81838186D01*
X196027949Y-82030270D01*
X196028242Y-82255281D01*
X196028351Y-82516046D01*
X196028338Y-82815397D01*
X196028318Y-82921391D01*
X196027970Y-84666250D01*
X195980693Y-84748713D01*
X195919621Y-84827595D01*
X195839581Y-84878426D01*
X195733693Y-84904429D01*
X195637413Y-84909587D01*
X195538586Y-84905109D01*
X195467640Y-84890029D01*
X195419931Y-84867448D01*
X195360089Y-84818707D01*
X195310334Y-84758738D01*
X195308885Y-84756402D01*
X195301426Y-84743208D01*
X195294904Y-84727860D01*
X195289257Y-84707586D01*
X195284422Y-84679616D01*
X195280335Y-84641182D01*
X195276934Y-84589512D01*
X195274155Y-84521838D01*
X195271936Y-84435388D01*
X195270213Y-84327394D01*
X195268923Y-84195085D01*
X195268002Y-84035691D01*
X195267389Y-83846443D01*
X195267019Y-83624571D01*
X195266829Y-83367304D01*
X195266757Y-83071873D01*
X195266746Y-82907255D01*
X195266667Y-81127094D01*
X195314292Y-81057322D01*
X195388767Y-80978144D01*
X195485430Y-80929781D01*
X195609396Y-80909940D01*
X195644454Y-80909167D01*
X195777545Y-80923237D01*
G37*
X195777545Y-80923237D02*
X195880994Y-80966272D01*
X195957150Y-81039507D01*
X195986331Y-81089079D01*
X195993912Y-81105735D01*
X196000528Y-81124192D01*
X196006246Y-81147278D01*
X196011130Y-81177823D01*
X196015244Y-81218657D01*
X196018653Y-81272610D01*
X196021424Y-81342511D01*
X196023619Y-81431189D01*
X196025304Y-81541475D01*
X196026544Y-81676197D01*
X196027404Y-81838186D01*
X196027949Y-82030270D01*
X196028242Y-82255281D01*
X196028351Y-82516046D01*
X196028338Y-82815397D01*
X196028318Y-82921391D01*
X196027970Y-84666250D01*
X195980693Y-84748713D01*
X195919621Y-84827595D01*
X195839581Y-84878426D01*
X195733693Y-84904429D01*
X195637413Y-84909587D01*
X195538586Y-84905109D01*
X195467640Y-84890029D01*
X195419931Y-84867448D01*
X195360089Y-84818707D01*
X195310334Y-84758738D01*
X195308885Y-84756402D01*
X195301426Y-84743208D01*
X195294904Y-84727860D01*
X195289257Y-84707586D01*
X195284422Y-84679616D01*
X195280335Y-84641182D01*
X195276934Y-84589512D01*
X195274155Y-84521838D01*
X195271936Y-84435388D01*
X195270213Y-84327394D01*
X195268923Y-84195085D01*
X195268002Y-84035691D01*
X195267389Y-83846443D01*
X195267019Y-83624571D01*
X195266829Y-83367304D01*
X195266757Y-83071873D01*
X195266746Y-82907255D01*
X195266667Y-81127094D01*
X195314292Y-81057322D01*
X195388767Y-80978144D01*
X195485430Y-80929781D01*
X195609396Y-80909940D01*
X195644454Y-80909167D01*
X195777545Y-80923237D01*
G36*
X187651823Y-81028679D02*
G01*
X187734176Y-81052178D01*
X187799443Y-81094427D01*
X187859937Y-81161181D01*
X187867609Y-81171310D01*
X187875362Y-81182377D01*
X187882149Y-81195290D01*
X187888043Y-81212807D01*
X187893119Y-81237690D01*
X187897452Y-81272697D01*
X187901114Y-81320589D01*
X187904182Y-81384125D01*
X187906728Y-81466064D01*
X187908827Y-81569167D01*
X187910554Y-81696194D01*
X187911983Y-81849903D01*
X187913188Y-82033054D01*
X187914243Y-82248408D01*
X187915222Y-82498724D01*
X187916201Y-82786762D01*
X187916894Y-83002558D01*
X187922538Y-84775360D01*
X187874560Y-84845859D01*
X187818433Y-84917995D01*
X187759960Y-84965480D01*
X187688010Y-84993551D01*
X187591450Y-85007440D01*
X187523442Y-85010943D01*
X187428561Y-85012496D01*
X187362815Y-85008310D01*
X187313164Y-84996320D01*
X187266571Y-84974458D01*
X187256263Y-84968598D01*
X187192695Y-84920379D01*
X187138947Y-84860963D01*
X187129263Y-84846155D01*
X187121501Y-84832219D01*
X187114721Y-84816721D01*
X187108858Y-84796863D01*
X187103844Y-84769848D01*
X187099614Y-84732878D01*
X187096100Y-84683156D01*
X187093236Y-84617885D01*
X187090956Y-84534267D01*
X187089193Y-84429504D01*
X187087881Y-84300799D01*
X187086953Y-84145355D01*
X187086343Y-83960373D01*
X187085984Y-83743057D01*
X187085810Y-83490610D01*
X187085754Y-83200233D01*
X187085750Y-83015250D01*
X187085750Y-81258417D01*
X187134173Y-81180543D01*
X187205581Y-81098443D01*
X187301403Y-81045360D01*
X187425127Y-81019901D01*
X187540071Y-81018173D01*
X187651823Y-81028679D01*
G37*
X187651823Y-81028679D02*
X187734176Y-81052178D01*
X187799443Y-81094427D01*
X187859937Y-81161181D01*
X187867609Y-81171310D01*
X187875362Y-81182377D01*
X187882149Y-81195290D01*
X187888043Y-81212807D01*
X187893119Y-81237690D01*
X187897452Y-81272697D01*
X187901114Y-81320589D01*
X187904182Y-81384125D01*
X187906728Y-81466064D01*
X187908827Y-81569167D01*
X187910554Y-81696194D01*
X187911983Y-81849903D01*
X187913188Y-82033054D01*
X187914243Y-82248408D01*
X187915222Y-82498724D01*
X187916201Y-82786762D01*
X187916894Y-83002558D01*
X187922538Y-84775360D01*
X187874560Y-84845859D01*
X187818433Y-84917995D01*
X187759960Y-84965480D01*
X187688010Y-84993551D01*
X187591450Y-85007440D01*
X187523442Y-85010943D01*
X187428561Y-85012496D01*
X187362815Y-85008310D01*
X187313164Y-84996320D01*
X187266571Y-84974458D01*
X187256263Y-84968598D01*
X187192695Y-84920379D01*
X187138947Y-84860963D01*
X187129263Y-84846155D01*
X187121501Y-84832219D01*
X187114721Y-84816721D01*
X187108858Y-84796863D01*
X187103844Y-84769848D01*
X187099614Y-84732878D01*
X187096100Y-84683156D01*
X187093236Y-84617885D01*
X187090956Y-84534267D01*
X187089193Y-84429504D01*
X187087881Y-84300799D01*
X187086953Y-84145355D01*
X187086343Y-83960373D01*
X187085984Y-83743057D01*
X187085810Y-83490610D01*
X187085754Y-83200233D01*
X187085750Y-83015250D01*
X187085750Y-81258417D01*
X187134173Y-81180543D01*
X187205581Y-81098443D01*
X187301403Y-81045360D01*
X187425127Y-81019901D01*
X187540071Y-81018173D01*
X187651823Y-81028679D01*
G36*
X190147489Y-82366135D02*
G01*
X190187222Y-82370859D01*
X190263971Y-82381714D01*
X190365162Y-82397836D01*
X190481251Y-82417505D01*
X190602698Y-82439000D01*
X190719962Y-82460600D01*
X190823501Y-82480586D01*
X190903774Y-82497235D01*
X190949578Y-82508333D01*
X190974290Y-82533088D01*
X190998771Y-82584487D01*
X191007386Y-82611927D01*
X191038731Y-82689453D01*
X191085228Y-82764788D01*
X191098051Y-82780569D01*
X191144768Y-82822100D01*
X191214240Y-82870512D01*
X191295145Y-82919389D01*
X191376159Y-82962318D01*
X191445962Y-82992882D01*
X191493231Y-83004665D01*
X191493555Y-83004667D01*
X191514117Y-83015402D01*
X191512366Y-83053501D01*
X191510157Y-83062831D01*
X191495610Y-83112025D01*
X191476274Y-83129143D01*
X191437620Y-83121621D01*
X191412255Y-83112947D01*
X191301357Y-83091368D01*
X191177101Y-83093720D01*
X191060254Y-83118880D01*
X191022508Y-83134003D01*
X190938491Y-83187721D01*
X190847894Y-83268885D01*
X190761444Y-83366307D01*
X190689866Y-83468797D01*
X190673098Y-83498478D01*
X190641420Y-83553852D01*
X190616479Y-83589725D01*
X190607329Y-83597333D01*
X190555198Y-83583209D01*
X190482561Y-83545205D01*
X190398343Y-83489869D01*
X190311469Y-83423753D01*
X190230862Y-83353407D01*
X190165446Y-83285381D01*
X190142592Y-83256221D01*
X190108491Y-83198871D01*
X190070432Y-83120951D01*
X190044604Y-83059379D01*
X189995068Y-82930583D01*
X190002981Y-83093987D01*
X190030506Y-83272894D01*
X190094465Y-83430343D01*
X190194455Y-83565731D01*
X190330071Y-83678458D01*
X190436219Y-83738846D01*
X190500499Y-83773142D01*
X190532732Y-83799911D01*
X190540491Y-83826546D01*
X190538475Y-83838670D01*
X190530462Y-83876647D01*
X190517055Y-83946039D01*
X190500204Y-84036571D01*
X190483906Y-84126500D01*
X190462985Y-84237027D01*
X190440576Y-84345035D01*
X190419737Y-84436266D01*
X190406944Y-84485227D01*
X190330594Y-84682150D01*
X190216710Y-84881369D01*
X190069439Y-85077763D01*
X189892924Y-85266209D01*
X189691313Y-85441587D01*
X189547536Y-85546992D01*
X189477623Y-85593962D01*
X189434669Y-85619321D01*
X189411032Y-85625849D01*
X189399072Y-85616326D01*
X189393948Y-85602875D01*
X189384976Y-85571924D01*
X189367663Y-85510622D01*
X189344949Y-85429421D01*
X189331181Y-85379918D01*
X189302433Y-85283721D01*
X189263286Y-85162806D01*
X189218658Y-85031919D01*
X189173471Y-84905808D01*
X189168761Y-84893085D01*
X189083668Y-84662086D01*
X189013012Y-84465048D01*
X188955352Y-84296690D01*
X188909245Y-84151731D01*
X188873249Y-84024890D01*
X188845921Y-83910886D01*
X188825819Y-83804439D01*
X188811502Y-83700266D01*
X188801526Y-83593088D01*
X188797540Y-83533833D01*
X188800200Y-83311643D01*
X188837475Y-83111702D01*
X188910872Y-82929880D01*
X189021898Y-82762044D01*
X189118030Y-82655420D01*
X189252952Y-82537865D01*
X189395048Y-82450039D01*
X189549934Y-82390447D01*
X189723226Y-82357596D01*
X189920539Y-82349990D01*
X190147489Y-82366135D01*
G37*
X190147489Y-82366135D02*
X190187222Y-82370859D01*
X190263971Y-82381714D01*
X190365162Y-82397836D01*
X190481251Y-82417505D01*
X190602698Y-82439000D01*
X190719962Y-82460600D01*
X190823501Y-82480586D01*
X190903774Y-82497235D01*
X190949578Y-82508333D01*
X190974290Y-82533088D01*
X190998771Y-82584487D01*
X191007386Y-82611927D01*
X191038731Y-82689453D01*
X191085228Y-82764788D01*
X191098051Y-82780569D01*
X191144768Y-82822100D01*
X191214240Y-82870512D01*
X191295145Y-82919389D01*
X191376159Y-82962318D01*
X191445962Y-82992882D01*
X191493231Y-83004665D01*
X191493555Y-83004667D01*
X191514117Y-83015402D01*
X191512366Y-83053501D01*
X191510157Y-83062831D01*
X191495610Y-83112025D01*
X191476274Y-83129143D01*
X191437620Y-83121621D01*
X191412255Y-83112947D01*
X191301357Y-83091368D01*
X191177101Y-83093720D01*
X191060254Y-83118880D01*
X191022508Y-83134003D01*
X190938491Y-83187721D01*
X190847894Y-83268885D01*
X190761444Y-83366307D01*
X190689866Y-83468797D01*
X190673098Y-83498478D01*
X190641420Y-83553852D01*
X190616479Y-83589725D01*
X190607329Y-83597333D01*
X190555198Y-83583209D01*
X190482561Y-83545205D01*
X190398343Y-83489869D01*
X190311469Y-83423753D01*
X190230862Y-83353407D01*
X190165446Y-83285381D01*
X190142592Y-83256221D01*
X190108491Y-83198871D01*
X190070432Y-83120951D01*
X190044604Y-83059379D01*
X189995068Y-82930583D01*
X190002981Y-83093987D01*
X190030506Y-83272894D01*
X190094465Y-83430343D01*
X190194455Y-83565731D01*
X190330071Y-83678458D01*
X190436219Y-83738846D01*
X190500499Y-83773142D01*
X190532732Y-83799911D01*
X190540491Y-83826546D01*
X190538475Y-83838670D01*
X190530462Y-83876647D01*
X190517055Y-83946039D01*
X190500204Y-84036571D01*
X190483906Y-84126500D01*
X190462985Y-84237027D01*
X190440576Y-84345035D01*
X190419737Y-84436266D01*
X190406944Y-84485227D01*
X190330594Y-84682150D01*
X190216710Y-84881369D01*
X190069439Y-85077763D01*
X189892924Y-85266209D01*
X189691313Y-85441587D01*
X189547536Y-85546992D01*
X189477623Y-85593962D01*
X189434669Y-85619321D01*
X189411032Y-85625849D01*
X189399072Y-85616326D01*
X189393948Y-85602875D01*
X189384976Y-85571924D01*
X189367663Y-85510622D01*
X189344949Y-85429421D01*
X189331181Y-85379918D01*
X189302433Y-85283721D01*
X189263286Y-85162806D01*
X189218658Y-85031919D01*
X189173471Y-84905808D01*
X189168761Y-84893085D01*
X189083668Y-84662086D01*
X189013012Y-84465048D01*
X188955352Y-84296690D01*
X188909245Y-84151731D01*
X188873249Y-84024890D01*
X188845921Y-83910886D01*
X188825819Y-83804439D01*
X188811502Y-83700266D01*
X188801526Y-83593088D01*
X188797540Y-83533833D01*
X188800200Y-83311643D01*
X188837475Y-83111702D01*
X188910872Y-82929880D01*
X189021898Y-82762044D01*
X189118030Y-82655420D01*
X189252952Y-82537865D01*
X189395048Y-82450039D01*
X189549934Y-82390447D01*
X189723226Y-82357596D01*
X189920539Y-82349990D01*
X190147489Y-82366135D01*
G36*
X193606551Y-82365568D02*
G01*
X193620312Y-82368253D01*
X193804451Y-82427717D01*
X193975779Y-82523798D01*
X194129273Y-82651499D01*
X194259910Y-82805826D01*
X194362666Y-82981784D01*
X194432518Y-83174376D01*
X194433038Y-83176390D01*
X194456637Y-83329933D01*
X194457482Y-83513829D01*
X194436287Y-83723198D01*
X194393768Y-83953161D01*
X194330641Y-84198838D01*
X194247620Y-84455350D01*
X194244111Y-84465167D01*
X194167216Y-84679793D01*
X194103355Y-84858733D01*
X194051125Y-85006092D01*
X194009124Y-85125979D01*
X193975947Y-85222502D01*
X193950193Y-85299768D01*
X193930457Y-85361886D01*
X193915337Y-85412962D01*
X193903429Y-85457105D01*
X193898336Y-85477475D01*
X193878950Y-85550899D01*
X193861291Y-85607584D01*
X193849184Y-85635259D01*
X193827112Y-85630527D01*
X193778722Y-85604922D01*
X193711654Y-85562846D01*
X193649845Y-85520398D01*
X193443365Y-85357518D01*
X193256112Y-85177990D01*
X193093940Y-84988507D01*
X192962701Y-84795762D01*
X192884564Y-84645185D01*
X192861289Y-84580634D01*
X192833716Y-84485531D01*
X192804780Y-84371036D01*
X192777418Y-84248305D01*
X192768450Y-84203906D01*
X192745934Y-84089437D01*
X192725630Y-83987094D01*
X192709220Y-83905293D01*
X192698387Y-83852450D01*
X192695600Y-83839574D01*
X192696500Y-83812920D01*
X192717814Y-83788374D01*
X192766892Y-83759617D01*
X192815625Y-83736378D01*
X192968614Y-83644829D01*
X193089520Y-83526060D01*
X193177345Y-83381586D01*
X193231095Y-83212922D01*
X193248058Y-83078750D01*
X193251787Y-83011624D01*
X193251947Y-82973161D01*
X193245752Y-82965379D01*
X193230413Y-82990291D01*
X193203144Y-83049914D01*
X193164131Y-83139436D01*
X193114856Y-83223474D01*
X193039966Y-83317126D01*
X192950449Y-83408737D01*
X192857293Y-83486651D01*
X192802639Y-83522904D01*
X192723593Y-83563587D01*
X192658538Y-83587066D01*
X192614801Y-83591424D01*
X192599667Y-83576016D01*
X192586897Y-83539387D01*
X192553254Y-83480650D01*
X192505734Y-83409561D01*
X192451335Y-83335873D01*
X192397054Y-83269345D01*
X192349889Y-83219730D01*
X192335165Y-83207248D01*
X192238386Y-83145259D01*
X192137760Y-83107712D01*
X192023891Y-83093015D01*
X191887381Y-83099577D01*
X191784750Y-83114039D01*
X191751917Y-83109160D01*
X191737160Y-83073503D01*
X191735719Y-83062875D01*
X191737315Y-83019647D01*
X191760360Y-83005096D01*
X191769380Y-83004667D01*
X191825084Y-82992133D01*
X191901027Y-82959113D01*
X191985139Y-82912477D01*
X192065351Y-82859093D01*
X192129596Y-82805833D01*
X192142953Y-82792017D01*
X192194364Y-82721420D01*
X192234422Y-82642375D01*
X192244352Y-82612905D01*
X192266097Y-82554079D01*
X192291703Y-82515160D01*
X192302422Y-82508061D01*
X192333403Y-82501033D01*
X192398339Y-82487850D01*
X192489552Y-82470020D01*
X192599363Y-82449051D01*
X192684333Y-82433097D01*
X192917584Y-82394173D01*
X193131419Y-82367613D01*
X193320849Y-82353761D01*
X193480889Y-82352964D01*
X193606551Y-82365568D01*
G37*
X193606551Y-82365568D02*
X193620312Y-82368253D01*
X193804451Y-82427717D01*
X193975779Y-82523798D01*
X194129273Y-82651499D01*
X194259910Y-82805826D01*
X194362666Y-82981784D01*
X194432518Y-83174376D01*
X194433038Y-83176390D01*
X194456637Y-83329933D01*
X194457482Y-83513829D01*
X194436287Y-83723198D01*
X194393768Y-83953161D01*
X194330641Y-84198838D01*
X194247620Y-84455350D01*
X194244111Y-84465167D01*
X194167216Y-84679793D01*
X194103355Y-84858733D01*
X194051125Y-85006092D01*
X194009124Y-85125979D01*
X193975947Y-85222502D01*
X193950193Y-85299768D01*
X193930457Y-85361886D01*
X193915337Y-85412962D01*
X193903429Y-85457105D01*
X193898336Y-85477475D01*
X193878950Y-85550899D01*
X193861291Y-85607584D01*
X193849184Y-85635259D01*
X193827112Y-85630527D01*
X193778722Y-85604922D01*
X193711654Y-85562846D01*
X193649845Y-85520398D01*
X193443365Y-85357518D01*
X193256112Y-85177990D01*
X193093940Y-84988507D01*
X192962701Y-84795762D01*
X192884564Y-84645185D01*
X192861289Y-84580634D01*
X192833716Y-84485531D01*
X192804780Y-84371036D01*
X192777418Y-84248305D01*
X192768450Y-84203906D01*
X192745934Y-84089437D01*
X192725630Y-83987094D01*
X192709220Y-83905293D01*
X192698387Y-83852450D01*
X192695600Y-83839574D01*
X192696500Y-83812920D01*
X192717814Y-83788374D01*
X192766892Y-83759617D01*
X192815625Y-83736378D01*
X192968614Y-83644829D01*
X193089520Y-83526060D01*
X193177345Y-83381586D01*
X193231095Y-83212922D01*
X193248058Y-83078750D01*
X193251787Y-83011624D01*
X193251947Y-82973161D01*
X193245752Y-82965379D01*
X193230413Y-82990291D01*
X193203144Y-83049914D01*
X193164131Y-83139436D01*
X193114856Y-83223474D01*
X193039966Y-83317126D01*
X192950449Y-83408737D01*
X192857293Y-83486651D01*
X192802639Y-83522904D01*
X192723593Y-83563587D01*
X192658538Y-83587066D01*
X192614801Y-83591424D01*
X192599667Y-83576016D01*
X192586897Y-83539387D01*
X192553254Y-83480650D01*
X192505734Y-83409561D01*
X192451335Y-83335873D01*
X192397054Y-83269345D01*
X192349889Y-83219730D01*
X192335165Y-83207248D01*
X192238386Y-83145259D01*
X192137760Y-83107712D01*
X192023891Y-83093015D01*
X191887381Y-83099577D01*
X191784750Y-83114039D01*
X191751917Y-83109160D01*
X191737160Y-83073503D01*
X191735719Y-83062875D01*
X191737315Y-83019647D01*
X191760360Y-83005096D01*
X191769380Y-83004667D01*
X191825084Y-82992133D01*
X191901027Y-82959113D01*
X191985139Y-82912477D01*
X192065351Y-82859093D01*
X192129596Y-82805833D01*
X192142953Y-82792017D01*
X192194364Y-82721420D01*
X192234422Y-82642375D01*
X192244352Y-82612905D01*
X192266097Y-82554079D01*
X192291703Y-82515160D01*
X192302422Y-82508061D01*
X192333403Y-82501033D01*
X192398339Y-82487850D01*
X192489552Y-82470020D01*
X192599363Y-82449051D01*
X192684333Y-82433097D01*
X192917584Y-82394173D01*
X193131419Y-82367613D01*
X193320849Y-82353761D01*
X193480889Y-82352964D01*
X193606551Y-82365568D01*
G36*
X191655772Y-85345011D02*
G01*
X191787961Y-85794936D01*
X191955171Y-86235516D01*
X192154663Y-86661677D01*
X192383699Y-87068346D01*
X192639541Y-87450447D01*
X192919450Y-87802906D01*
X193074232Y-87973445D01*
X193252065Y-88160317D01*
X193088255Y-88646367D01*
X193007238Y-88883708D01*
X192934322Y-89089635D01*
X192865750Y-89273371D01*
X192797770Y-89444143D01*
X192726624Y-89611173D01*
X192648558Y-89783687D01*
X192559817Y-89970910D01*
X192494033Y-90106083D01*
X192251975Y-90568032D01*
X191996628Y-90992151D01*
X191725210Y-91381620D01*
X191434935Y-91739616D01*
X191123022Y-92069320D01*
X190786687Y-92373912D01*
X190423145Y-92656569D01*
X190030247Y-92920076D01*
X189947202Y-92969721D01*
X189842263Y-93029133D01*
X189722636Y-93094572D01*
X189595528Y-93162294D01*
X189468144Y-93228560D01*
X189347691Y-93289627D01*
X189241374Y-93341754D01*
X189156401Y-93381199D01*
X189099977Y-93404221D01*
X189094142Y-93406111D01*
X189071057Y-93407959D01*
X189048045Y-93394372D01*
X189019899Y-93359306D01*
X188981414Y-93296717D01*
X188945976Y-93234083D01*
X188815370Y-93036234D01*
X188657157Y-92857929D01*
X188478945Y-92706570D01*
X188288339Y-92589564D01*
X188279340Y-92585101D01*
X188137545Y-92520371D01*
X188006428Y-92472646D01*
X187871013Y-92437701D01*
X187716326Y-92411315D01*
X187620167Y-92399213D01*
X187418869Y-92388437D01*
X187190844Y-92397962D01*
X186946063Y-92426980D01*
X186697375Y-92474035D01*
X186608881Y-92493077D01*
X186538090Y-92506694D01*
X186493545Y-92513343D01*
X186482500Y-92512822D01*
X186487841Y-92503678D01*
X186505253Y-92482434D01*
X186536820Y-92446860D01*
X186584626Y-92394723D01*
X186650755Y-92323792D01*
X186737289Y-92231836D01*
X186846314Y-92116624D01*
X186979912Y-91975923D01*
X187140167Y-91807502D01*
X187188184Y-91757083D01*
X187432976Y-91497298D01*
X187648896Y-91262071D01*
X187838895Y-91048044D01*
X188005925Y-90851858D01*
X188152937Y-90670155D01*
X188222853Y-90579752D01*
X188428234Y-90294507D01*
X188623321Y-89993903D01*
X188803145Y-89686738D01*
X188962739Y-89381814D01*
X189097136Y-89087931D01*
X189171606Y-88898867D01*
X189264546Y-88644152D01*
X189413398Y-88557596D01*
X189703528Y-88366075D01*
X189983380Y-88136169D01*
X190250771Y-87871044D01*
X190503519Y-87573865D01*
X190739444Y-87247799D01*
X190956363Y-86896012D01*
X191152095Y-86521671D01*
X191324459Y-86127941D01*
X191471272Y-85717989D01*
X191547694Y-85460045D01*
X191619041Y-85198784D01*
X191655772Y-85345011D01*
G37*
X191655772Y-85345011D02*
X191787961Y-85794936D01*
X191955171Y-86235516D01*
X192154663Y-86661677D01*
X192383699Y-87068346D01*
X192639541Y-87450447D01*
X192919450Y-87802906D01*
X193074232Y-87973445D01*
X193252065Y-88160317D01*
X193088255Y-88646367D01*
X193007238Y-88883708D01*
X192934322Y-89089635D01*
X192865750Y-89273371D01*
X192797770Y-89444143D01*
X192726624Y-89611173D01*
X192648558Y-89783687D01*
X192559817Y-89970910D01*
X192494033Y-90106083D01*
X192251975Y-90568032D01*
X191996628Y-90992151D01*
X191725210Y-91381620D01*
X191434935Y-91739616D01*
X191123022Y-92069320D01*
X190786687Y-92373912D01*
X190423145Y-92656569D01*
X190030247Y-92920076D01*
X189947202Y-92969721D01*
X189842263Y-93029133D01*
X189722636Y-93094572D01*
X189595528Y-93162294D01*
X189468144Y-93228560D01*
X189347691Y-93289627D01*
X189241374Y-93341754D01*
X189156401Y-93381199D01*
X189099977Y-93404221D01*
X189094142Y-93406111D01*
X189071057Y-93407959D01*
X189048045Y-93394372D01*
X189019899Y-93359306D01*
X188981414Y-93296717D01*
X188945976Y-93234083D01*
X188815370Y-93036234D01*
X188657157Y-92857929D01*
X188478945Y-92706570D01*
X188288339Y-92589564D01*
X188279340Y-92585101D01*
X188137545Y-92520371D01*
X188006428Y-92472646D01*
X187871013Y-92437701D01*
X187716326Y-92411315D01*
X187620167Y-92399213D01*
X187418869Y-92388437D01*
X187190844Y-92397962D01*
X186946063Y-92426980D01*
X186697375Y-92474035D01*
X186608881Y-92493077D01*
X186538090Y-92506694D01*
X186493545Y-92513343D01*
X186482500Y-92512822D01*
X186487841Y-92503678D01*
X186505253Y-92482434D01*
X186536820Y-92446860D01*
X186584626Y-92394723D01*
X186650755Y-92323792D01*
X186737289Y-92231836D01*
X186846314Y-92116624D01*
X186979912Y-91975923D01*
X187140167Y-91807502D01*
X187188184Y-91757083D01*
X187432976Y-91497298D01*
X187648896Y-91262071D01*
X187838895Y-91048044D01*
X188005925Y-90851858D01*
X188152937Y-90670155D01*
X188222853Y-90579752D01*
X188428234Y-90294507D01*
X188623321Y-89993903D01*
X188803145Y-89686738D01*
X188962739Y-89381814D01*
X189097136Y-89087931D01*
X189171606Y-88898867D01*
X189264546Y-88644152D01*
X189413398Y-88557596D01*
X189703528Y-88366075D01*
X189983380Y-88136169D01*
X190250771Y-87871044D01*
X190503519Y-87573865D01*
X190739444Y-87247799D01*
X190956363Y-86896012D01*
X191152095Y-86521671D01*
X191324459Y-86127941D01*
X191471272Y-85717989D01*
X191547694Y-85460045D01*
X191619041Y-85198784D01*
X191655772Y-85345011D01*
M02*
