G04 #@! TF.GenerationSoftware,KiCad,Pcbnew,5.1.5+dfsg1-2build2*
G04 #@! TF.CreationDate,2021-04-11T14:42:19-07:00*
G04 #@! TF.ProjectId,OtterCastAmp,4f747465-7243-4617-9374-416d702e6b69,rev?*
G04 #@! TF.SameCoordinates,Original*
G04 #@! TF.FileFunction,Legend,Bot*
G04 #@! TF.FilePolarity,Positive*
%FSLAX46Y46*%
G04 Gerber Fmt 4.6, Leading zero omitted, Abs format (unit mm)*
G04 Created by KiCad (PCBNEW 5.1.5+dfsg1-2build2) date 2021-04-11 14:42:19*
%MOMM*%
%LPD*%
G04 APERTURE LIST*
%ADD10C,0.100000*%
%ADD11C,0.120000*%
%ADD12C,0.127000*%
G04 APERTURE END LIST*
D10*
X140000000Y-75000000D02*
X120000000Y-75000000D01*
X140000000Y-125000000D02*
X140000000Y-75000000D01*
X120000000Y-125000000D02*
X140000000Y-125000000D01*
X120000000Y-75000000D02*
X120000000Y-125000000D01*
D11*
X175950000Y-144972132D02*
X176250000Y-144972132D01*
X176100000Y-144760000D02*
X175950000Y-144972132D01*
X176250000Y-144972132D02*
X176100000Y-144760000D01*
X186050000Y-140110000D02*
X180900000Y-140110000D01*
X186050000Y-141020000D02*
X186050000Y-140110000D01*
X186340000Y-141020000D02*
X186050000Y-141020000D01*
X186340000Y-140770000D02*
X186340000Y-141020000D01*
X186860000Y-140770000D02*
X186340000Y-140770000D01*
X186860000Y-144520000D02*
X186860000Y-140770000D01*
X186360000Y-144520000D02*
X186860000Y-144520000D01*
X175750000Y-140110000D02*
X180900000Y-140110000D01*
X175750000Y-141020000D02*
X175750000Y-140110000D01*
X175460000Y-141020000D02*
X175750000Y-141020000D01*
X175460000Y-140770000D02*
X175460000Y-141020000D01*
X174940000Y-140770000D02*
X175460000Y-140770000D01*
X174940000Y-144520000D02*
X174940000Y-140770000D01*
X175440000Y-144520000D02*
X174940000Y-144520000D01*
X187450000Y-89450000D02*
X190250000Y-89450000D01*
X190250000Y-89450000D02*
X190250000Y-87450000D01*
X190250000Y-87450000D02*
X187450000Y-87450000D01*
X187450000Y-87450000D02*
X187450000Y-89450000D01*
X158500000Y-50000000D02*
X158500000Y-49350000D01*
X158500000Y-49350000D02*
X156600000Y-49350000D01*
X156600000Y-49350000D02*
X156600000Y-50000000D01*
X155800000Y-53100000D02*
X159300000Y-53100000D01*
X159300000Y-50000000D02*
X155800000Y-50000000D01*
D12*
X183670000Y-64330000D02*
X180570000Y-64330000D01*
X177146900Y-50360000D02*
X170213000Y-50360000D01*
X181656757Y-49532278D02*
G75*
G02X177146900Y-50360000I-4509879J11872278D01*
G01*
X182665178Y-49344003D02*
G75*
G03X181668000Y-49528000I2672J-2808597D01*
G01*
X185199000Y-49344000D02*
X182667900Y-49344000D01*
D11*
X174006066Y-93243934D02*
X173793934Y-93456066D01*
D10*
X187153571Y-142405714D02*
X187475000Y-142405714D01*
X187539285Y-142384285D01*
X187582142Y-142341428D01*
X187603571Y-142277142D01*
X187603571Y-142234285D01*
X187603571Y-142855714D02*
X187603571Y-142598571D01*
X187603571Y-142727142D02*
X187153571Y-142727142D01*
X187217857Y-142684285D01*
X187260714Y-142641428D01*
X187282142Y-142598571D01*
X187153571Y-143134285D02*
X187153571Y-143177142D01*
X187175000Y-143220000D01*
X187196428Y-143241428D01*
X187239285Y-143262857D01*
X187325000Y-143284285D01*
X187432142Y-143284285D01*
X187517857Y-143262857D01*
X187560714Y-143241428D01*
X187582142Y-143220000D01*
X187603571Y-143177142D01*
X187603571Y-143134285D01*
X187582142Y-143091428D01*
X187560714Y-143070000D01*
X187517857Y-143048571D01*
X187432142Y-143027142D01*
X187325000Y-143027142D01*
X187239285Y-143048571D01*
X187196428Y-143070000D01*
X187175000Y-143091428D01*
X187153571Y-143134285D01*
X189439285Y-89753571D02*
X189439285Y-90075000D01*
X189460714Y-90139285D01*
X189503571Y-90182142D01*
X189567857Y-90203571D01*
X189610714Y-90203571D01*
X189225000Y-90203571D02*
X189225000Y-89753571D01*
X189053571Y-89753571D01*
X189010714Y-89775000D01*
X188989285Y-89796428D01*
X188967857Y-89839285D01*
X188967857Y-89903571D01*
X188989285Y-89946428D01*
X189010714Y-89967857D01*
X189053571Y-89989285D01*
X189225000Y-89989285D01*
X188539285Y-90203571D02*
X188796428Y-90203571D01*
X188667857Y-90203571D02*
X188667857Y-89753571D01*
X188710714Y-89817857D01*
X188753571Y-89860714D01*
X188796428Y-89882142D01*
X188110714Y-90203571D02*
X188367857Y-90203571D01*
X188239285Y-90203571D02*
X188239285Y-89753571D01*
X188282142Y-89817857D01*
X188325000Y-89860714D01*
X188367857Y-89882142D01*
X158150000Y-54232142D02*
X158085714Y-54253571D01*
X157978571Y-54253571D01*
X157935714Y-54232142D01*
X157914285Y-54210714D01*
X157892857Y-54167857D01*
X157892857Y-54125000D01*
X157914285Y-54082142D01*
X157935714Y-54060714D01*
X157978571Y-54039285D01*
X158064285Y-54017857D01*
X158107142Y-53996428D01*
X158128571Y-53975000D01*
X158150000Y-53932142D01*
X158150000Y-53889285D01*
X158128571Y-53846428D01*
X158107142Y-53825000D01*
X158064285Y-53803571D01*
X157957142Y-53803571D01*
X157892857Y-53825000D01*
X157742857Y-53803571D02*
X157635714Y-54253571D01*
X157550000Y-53932142D01*
X157464285Y-54253571D01*
X157357142Y-53803571D01*
X156950000Y-54253571D02*
X157207142Y-54253571D01*
X157078571Y-54253571D02*
X157078571Y-53803571D01*
X157121428Y-53867857D01*
X157164285Y-53910714D01*
X157207142Y-53932142D01*
X171437360Y-66142301D02*
X171437360Y-66463730D01*
X171458788Y-66528015D01*
X171501645Y-66570872D01*
X171565931Y-66592301D01*
X171608788Y-66592301D01*
X171244502Y-66185158D02*
X171223074Y-66163730D01*
X171180217Y-66142301D01*
X171073074Y-66142301D01*
X171030217Y-66163730D01*
X171008788Y-66185158D01*
X170987360Y-66228015D01*
X170987360Y-66270872D01*
X171008788Y-66335158D01*
X171265931Y-66592301D01*
X170987360Y-66592301D01*
X173460583Y-94198528D02*
X173460583Y-94228832D01*
X173490888Y-94289441D01*
X173521192Y-94319746D01*
X173581802Y-94350050D01*
X173642411Y-94350050D01*
X173687868Y-94334898D01*
X173763629Y-94289441D01*
X173809086Y-94243984D01*
X173854543Y-94168223D01*
X173869695Y-94122766D01*
X173869695Y-94062157D01*
X173839390Y-94001548D01*
X173809086Y-93971243D01*
X173748477Y-93940939D01*
X173718172Y-93940939D01*
X173596954Y-93819720D02*
X173596954Y-93789416D01*
X173581802Y-93743959D01*
X173506040Y-93668197D01*
X173460583Y-93653045D01*
X173430279Y-93653045D01*
X173384822Y-93668197D01*
X173354517Y-93698502D01*
X173324213Y-93759111D01*
X173324213Y-94122766D01*
X173127233Y-93925786D01*
X172975710Y-93774263D02*
X172915101Y-93713654D01*
X172899949Y-93668197D01*
X172899949Y-93637893D01*
X172915101Y-93562131D01*
X172960558Y-93486370D01*
X173081776Y-93365152D01*
X173127233Y-93349999D01*
X173157537Y-93349999D01*
X173202994Y-93365152D01*
X173263603Y-93425761D01*
X173278756Y-93471218D01*
X173278756Y-93501522D01*
X173263603Y-93546979D01*
X173187842Y-93622741D01*
X173142385Y-93637893D01*
X173112081Y-93637893D01*
X173066624Y-93622741D01*
X173006015Y-93562131D01*
X172990862Y-93516675D01*
X172990862Y-93486370D01*
X173006015Y-93440913D01*
M02*
