G04 #@! TF.GenerationSoftware,KiCad,Pcbnew,5.1.5+dfsg1-2build2*
G04 #@! TF.CreationDate,2021-03-02T22:53:32+01:00*
G04 #@! TF.ProjectId,front,66726f6e-742e-46b6-9963-61645f706362,rev?*
G04 #@! TF.SameCoordinates,Original*
G04 #@! TF.FileFunction,Copper,L1,Top*
G04 #@! TF.FilePolarity,Positive*
%FSLAX46Y46*%
G04 Gerber Fmt 4.6, Leading zero omitted, Abs format (unit mm)*
G04 Created by KiCad (PCBNEW 5.1.5+dfsg1-2build2) date 2021-03-02 22:53:32*
%MOMM*%
%LPD*%
G04 APERTURE LIST*
%ADD10C,0.010000*%
G04 APERTURE END LIST*
D10*
G36*
X109175000Y-64812223D02*
G01*
X109175000Y-65009778D01*
X102825000Y-65009778D01*
X102825000Y-64812223D01*
X109175000Y-64812223D01*
G37*
X109175000Y-64812223D02*
X109175000Y-65009778D01*
X102825000Y-65009778D01*
X102825000Y-64812223D01*
X109175000Y-64812223D01*
G36*
X109175000Y-65235556D02*
G01*
X109175000Y-65433111D01*
X102825000Y-65433111D01*
X102825000Y-65235556D01*
X109175000Y-65235556D01*
G37*
X109175000Y-65235556D02*
X109175000Y-65433111D01*
X102825000Y-65433111D01*
X102825000Y-65235556D01*
X109175000Y-65235556D01*
G36*
X109175000Y-66082223D02*
G01*
X109175000Y-66703111D01*
X102825000Y-66703111D01*
X102825000Y-66082223D01*
X109175000Y-66082223D01*
G37*
X109175000Y-66082223D02*
X109175000Y-66703111D01*
X102825000Y-66703111D01*
X102825000Y-66082223D01*
X109175000Y-66082223D01*
G36*
X109175000Y-67126445D02*
G01*
X109175000Y-67352223D01*
X102825000Y-67352223D01*
X102825000Y-67126445D01*
X109175000Y-67126445D01*
G37*
X109175000Y-67126445D02*
X109175000Y-67352223D01*
X102825000Y-67352223D01*
X102825000Y-67126445D01*
X109175000Y-67126445D01*
G36*
X109175000Y-67775556D02*
G01*
X109175000Y-68396445D01*
X102825000Y-68396445D01*
X102825000Y-67775556D01*
X109175000Y-67775556D01*
G37*
X109175000Y-67775556D02*
X109175000Y-68396445D01*
X102825000Y-68396445D01*
X102825000Y-67775556D01*
X109175000Y-67775556D01*
G36*
X109175000Y-69045556D02*
G01*
X109175000Y-69243111D01*
X102825000Y-69243111D01*
X102825000Y-69045556D01*
X109175000Y-69045556D01*
G37*
X109175000Y-69045556D02*
X109175000Y-69243111D01*
X102825000Y-69243111D01*
X102825000Y-69045556D01*
X109175000Y-69045556D01*
G36*
X109175000Y-69412445D02*
G01*
X109175000Y-69835778D01*
X102825000Y-69835778D01*
X102825000Y-69412445D01*
X109175000Y-69412445D01*
G37*
X109175000Y-69412445D02*
X109175000Y-69835778D01*
X102825000Y-69835778D01*
X102825000Y-69412445D01*
X109175000Y-69412445D01*
G36*
X109175000Y-70089778D02*
G01*
X109175000Y-70259111D01*
X102825000Y-70259111D01*
X102825000Y-70089778D01*
X109175000Y-70089778D01*
G37*
X109175000Y-70089778D02*
X109175000Y-70259111D01*
X102825000Y-70259111D01*
X102825000Y-70089778D01*
X109175000Y-70089778D01*
G36*
X109175000Y-71105778D02*
G01*
X109175000Y-71529111D01*
X102825000Y-71529111D01*
X102825000Y-71105778D01*
X109175000Y-71105778D01*
G37*
X109175000Y-71105778D02*
X109175000Y-71529111D01*
X102825000Y-71529111D01*
X102825000Y-71105778D01*
X109175000Y-71105778D01*
G36*
X109175000Y-71783111D02*
G01*
X109175000Y-72206445D01*
X102825000Y-72206445D01*
X102825000Y-71783111D01*
X109175000Y-71783111D01*
G37*
X109175000Y-71783111D02*
X109175000Y-72206445D01*
X102825000Y-72206445D01*
X102825000Y-71783111D01*
X109175000Y-71783111D01*
G36*
X109175000Y-72375778D02*
G01*
X109175000Y-72799111D01*
X102825000Y-72799111D01*
X102825000Y-72375778D01*
X109175000Y-72375778D01*
G37*
X109175000Y-72375778D02*
X109175000Y-72799111D01*
X102825000Y-72799111D01*
X102825000Y-72375778D01*
X109175000Y-72375778D01*
G36*
X109175000Y-73645778D02*
G01*
X109175000Y-73843334D01*
X102825000Y-73843334D01*
X102825000Y-73645778D01*
X109175000Y-73645778D01*
G37*
X109175000Y-73645778D02*
X109175000Y-73843334D01*
X102825000Y-73843334D01*
X102825000Y-73645778D01*
X109175000Y-73645778D01*
G36*
X109175000Y-74069111D02*
G01*
X109175000Y-74915778D01*
X102825000Y-74915778D01*
X102825000Y-74069111D01*
X109175000Y-74069111D01*
G37*
X109175000Y-74069111D02*
X109175000Y-74915778D01*
X102825000Y-74915778D01*
X102825000Y-74069111D01*
X109175000Y-74069111D01*
G36*
X109175000Y-75339111D02*
G01*
X109175000Y-75536667D01*
X102825000Y-75536667D01*
X102825000Y-75339111D01*
X109175000Y-75339111D01*
G37*
X109175000Y-75339111D02*
X109175000Y-75536667D01*
X102825000Y-75536667D01*
X102825000Y-75339111D01*
X109175000Y-75339111D01*
G36*
X109175000Y-75762445D02*
G01*
X109175000Y-76185778D01*
X102825000Y-76185778D01*
X102825000Y-75762445D01*
X109175000Y-75762445D01*
G37*
X109175000Y-75762445D02*
X109175000Y-76185778D01*
X102825000Y-76185778D01*
X102825000Y-75762445D01*
X109175000Y-75762445D01*
G36*
X109175000Y-76383334D02*
G01*
X109175000Y-76609111D01*
X102825000Y-76609111D01*
X102825000Y-76383334D01*
X109175000Y-76383334D01*
G37*
X109175000Y-76383334D02*
X109175000Y-76609111D01*
X102825000Y-76609111D01*
X102825000Y-76383334D01*
X109175000Y-76383334D01*
G36*
X109175000Y-77032445D02*
G01*
X109175000Y-77653334D01*
X102825000Y-77653334D01*
X102825000Y-77032445D01*
X109175000Y-77032445D01*
G37*
X109175000Y-77032445D02*
X109175000Y-77653334D01*
X102825000Y-77653334D01*
X102825000Y-77032445D01*
X109175000Y-77032445D01*
G36*
X109175000Y-77879111D02*
G01*
X109175000Y-78500000D01*
X102825000Y-78500000D01*
X102825000Y-77879111D01*
X109175000Y-77879111D01*
G37*
X109175000Y-77879111D02*
X109175000Y-78500000D01*
X102825000Y-78500000D01*
X102825000Y-77879111D01*
X109175000Y-77879111D01*
G36*
X109175000Y-78697556D02*
G01*
X109175000Y-78923334D01*
X102825000Y-78923334D01*
X102825000Y-78697556D01*
X109175000Y-78697556D01*
G37*
X109175000Y-78697556D02*
X109175000Y-78923334D01*
X102825000Y-78923334D01*
X102825000Y-78697556D01*
X109175000Y-78697556D01*
G36*
X109175000Y-79770000D02*
G01*
X109175000Y-80193334D01*
X102825000Y-80193334D01*
X102825000Y-79770000D01*
X109175000Y-79770000D01*
G37*
X109175000Y-79770000D02*
X109175000Y-80193334D01*
X102825000Y-80193334D01*
X102825000Y-79770000D01*
X109175000Y-79770000D01*
G36*
X109175000Y-80390889D02*
G01*
X109175000Y-80814223D01*
X102825000Y-80814223D01*
X102825000Y-80390889D01*
X109175000Y-80390889D01*
G37*
X109175000Y-80390889D02*
X109175000Y-80814223D01*
X102825000Y-80814223D01*
X102825000Y-80390889D01*
X109175000Y-80390889D01*
G36*
X109175000Y-81040000D02*
G01*
X109175000Y-81886667D01*
X102825000Y-81886667D01*
X102825000Y-81040000D01*
X109175000Y-81040000D01*
G37*
X109175000Y-81040000D02*
X109175000Y-81886667D01*
X102825000Y-81886667D01*
X102825000Y-81040000D01*
X109175000Y-81040000D01*
G36*
X109175000Y-82084223D02*
G01*
X109175000Y-82507556D01*
X102825000Y-82507556D01*
X102825000Y-82084223D01*
X109175000Y-82084223D01*
G37*
X109175000Y-82084223D02*
X109175000Y-82507556D01*
X102825000Y-82507556D01*
X102825000Y-82084223D01*
X109175000Y-82084223D01*
G36*
X109175000Y-82930889D02*
G01*
X109175000Y-83156667D01*
X102825000Y-83156667D01*
X102825000Y-82930889D01*
X109175000Y-82930889D01*
G37*
X109175000Y-82930889D02*
X109175000Y-83156667D01*
X102825000Y-83156667D01*
X102825000Y-82930889D01*
X109175000Y-82930889D01*
G36*
X109175000Y-83354223D02*
G01*
X109175000Y-83777556D01*
X102825000Y-83777556D01*
X102825000Y-83354223D01*
X109175000Y-83354223D01*
G37*
X109175000Y-83354223D02*
X109175000Y-83777556D01*
X102825000Y-83777556D01*
X102825000Y-83354223D01*
X109175000Y-83354223D01*
G36*
X109175000Y-83946889D02*
G01*
X109175000Y-84200889D01*
X102825000Y-84200889D01*
X102825000Y-83946889D01*
X109175000Y-83946889D01*
G37*
X109175000Y-83946889D02*
X109175000Y-84200889D01*
X102825000Y-84200889D01*
X102825000Y-83946889D01*
X109175000Y-83946889D01*
G36*
X109175000Y-85047556D02*
G01*
X109175000Y-85470889D01*
X102825000Y-85470889D01*
X102825000Y-85047556D01*
X109175000Y-85047556D01*
G37*
X109175000Y-85047556D02*
X109175000Y-85470889D01*
X102825000Y-85470889D01*
X102825000Y-85047556D01*
X109175000Y-85047556D01*
G36*
X109175000Y-85640223D02*
G01*
X109175000Y-86063556D01*
X102825000Y-86063556D01*
X102825000Y-85640223D01*
X109175000Y-85640223D01*
G37*
X109175000Y-85640223D02*
X109175000Y-86063556D01*
X102825000Y-86063556D01*
X102825000Y-85640223D01*
X109175000Y-85640223D01*
G36*
X109175000Y-86317556D02*
G01*
X109175000Y-86486889D01*
X102825000Y-86486889D01*
X102825000Y-86317556D01*
X109175000Y-86317556D01*
G37*
X109175000Y-86317556D02*
X109175000Y-86486889D01*
X102825000Y-86486889D01*
X102825000Y-86317556D01*
X109175000Y-86317556D01*
G36*
X109175000Y-87333556D02*
G01*
X109175000Y-87756889D01*
X102825000Y-87756889D01*
X102825000Y-87333556D01*
X109175000Y-87333556D01*
G37*
X109175000Y-87333556D02*
X109175000Y-87756889D01*
X102825000Y-87756889D01*
X102825000Y-87333556D01*
X109175000Y-87333556D01*
G36*
X109175000Y-87954445D02*
G01*
X109175000Y-88180223D01*
X102825000Y-88180223D01*
X102825000Y-87954445D01*
X109175000Y-87954445D01*
G37*
X109175000Y-87954445D02*
X109175000Y-88180223D01*
X102825000Y-88180223D01*
X102825000Y-87954445D01*
X109175000Y-87954445D01*
G36*
X109175000Y-88603556D02*
G01*
X109175000Y-88801111D01*
X102825000Y-88801111D01*
X102825000Y-88603556D01*
X109175000Y-88603556D01*
G37*
X109175000Y-88603556D02*
X109175000Y-88801111D01*
X102825000Y-88801111D01*
X102825000Y-88603556D01*
X109175000Y-88603556D01*
G36*
X109175000Y-89450223D02*
G01*
X109175000Y-90071111D01*
X102825000Y-90071111D01*
X102825000Y-89450223D01*
X109175000Y-89450223D01*
G37*
X109175000Y-89450223D02*
X109175000Y-90071111D01*
X102825000Y-90071111D01*
X102825000Y-89450223D01*
X109175000Y-89450223D01*
G36*
X109175000Y-90296889D02*
G01*
X109175000Y-91143556D01*
X102825000Y-91143556D01*
X102825000Y-90296889D01*
X109175000Y-90296889D01*
G37*
X109175000Y-90296889D02*
X109175000Y-91143556D01*
X102825000Y-91143556D01*
X102825000Y-90296889D01*
X109175000Y-90296889D01*
G36*
X109175000Y-91341111D02*
G01*
X109175000Y-91764445D01*
X102825000Y-91764445D01*
X102825000Y-91341111D01*
X109175000Y-91341111D01*
G37*
X109175000Y-91341111D02*
X109175000Y-91764445D01*
X102825000Y-91764445D01*
X102825000Y-91341111D01*
X109175000Y-91341111D01*
G36*
X109175000Y-91990223D02*
G01*
X109175000Y-92187778D01*
X102825000Y-92187778D01*
X102825000Y-91990223D01*
X109175000Y-91990223D01*
G37*
X109175000Y-91990223D02*
X109175000Y-92187778D01*
X102825000Y-92187778D01*
X102825000Y-91990223D01*
X109175000Y-91990223D01*
M02*
