G04 #@! TF.GenerationSoftware,KiCad,Pcbnew,5.1.5+dfsg1-2build2*
G04 #@! TF.CreationDate,2021-03-02T22:53:32+01:00*
G04 #@! TF.ProjectId,front,66726f6e-742e-46b6-9963-61645f706362,rev?*
G04 #@! TF.SameCoordinates,Original*
G04 #@! TF.FileFunction,Profile,NP*
%FSLAX46Y46*%
G04 Gerber Fmt 4.6, Leading zero omitted, Abs format (unit mm)*
G04 Created by KiCad (PCBNEW 5.1.5+dfsg1-2build2) date 2021-03-02 22:53:32*
%MOMM*%
%LPD*%
G04 APERTURE LIST*
%ADD10C,0.050000*%
G04 APERTURE END LIST*
D10*
X192750000Y-61250001D02*
G75*
G02X193249999Y-61750000I0J-499999D01*
G01*
X193249999Y-95250000D02*
G75*
G02X192750000Y-95749999I-499999J0D01*
G01*
X112250000Y-95749999D02*
G75*
G02X111750001Y-95250000I0J499999D01*
G01*
X111750001Y-61750000D02*
G75*
G02X112250000Y-61250001I499999J0D01*
G01*
X193249999Y-95250000D02*
X193249999Y-61750000D01*
X112250000Y-95749999D02*
X192750000Y-95749999D01*
X111750001Y-61750000D02*
X111750001Y-95250000D01*
X192750000Y-61250001D02*
X112250000Y-61250001D01*
X200000000Y-98000000D02*
X200000001Y-59000000D01*
X197581139Y-96750000D02*
G75*
G03X197581139Y-96750000I-1581139J0D01*
G01*
X105581140Y-60250000D02*
G75*
G03X105581140Y-60250000I-1581140J0D01*
G01*
X198000000Y-57000000D02*
X102000000Y-57000000D01*
X102000000Y-57000000D02*
X100000000Y-59000000D01*
X198000000Y-56999999D02*
X200000001Y-59000000D01*
X102000000Y-100000000D02*
X100000000Y-98000000D01*
X102000000Y-100000000D02*
X198000000Y-100000000D01*
X100000000Y-59000000D02*
X100000000Y-98000000D01*
X197581139Y-60250000D02*
G75*
G03X197581139Y-60250000I-1581139J0D01*
G01*
X105581139Y-96750000D02*
G75*
G03X105581139Y-96750000I-1581139J0D01*
G01*
X200000000Y-98000000D02*
X198000000Y-100000000D01*
M02*
